<svg width="48" height="69" viewBox="0 0 48 69" fill="none" xmlns="http://www.w3.org/2000/svg">
<path d="M47 21.8972V24.0132C46.9972 28.9729 45.3911 33.7989 42.4214 37.7714C39.4518 41.7438 35.2775 44.6499 30.5213 46.0561C25.7651 47.4624 20.6817 47.2935 16.0293 45.5747C11.3769 43.8559 7.4047 40.6792 4.70521 36.5184C2.00571 32.3576 0.72352 27.4357 1.04986 22.4867C1.37619 17.5377 3.29357 12.8267 6.51604 9.05643C9.73851 5.28615 14.0934 2.65854 18.9312 1.5655C23.7691 0.472457 28.8306 0.97254 33.361 2.99117" stroke="#00C9AC" stroke-width="2" stroke-linecap="round" stroke-linejoin="round"/>
<path d="M46.9998 5.61279L23.9999 28.6358L17.0999 21.7358" stroke="#00C9AC" stroke-width="2" stroke-linecap="round" stroke-linejoin="round"/>
<path d="M18.7686 65H17.4014L13.7578 60.1533L12.7119 61.083V65H11.5498V55.0059H12.7119V59.9619L17.2441 55.0059H18.6182L14.5986 59.3467L18.7686 65ZM21.1133 65H19.9785V54.3633H21.1133V65ZM28.127 65L27.9014 63.9336H27.8467C27.473 64.403 27.0993 64.722 26.7256 64.8906C26.3564 65.0547 25.8939 65.1367 25.3379 65.1367C24.5951 65.1367 24.0117 64.9453 23.5879 64.5625C23.1686 64.1797 22.959 63.6351 22.959 62.9287C22.959 61.4157 24.1689 60.6227 26.5889 60.5498L27.8604 60.5088V60.0439C27.8604 59.4561 27.7327 59.0231 27.4775 58.7451C27.2269 58.4626 26.8236 58.3213 26.2676 58.3213C25.6432 58.3213 24.9368 58.5127 24.1484 58.8955L23.7998 58.0273C24.1689 57.8268 24.5723 57.6696 25.0098 57.5557C25.4518 57.4417 25.8939 57.3848 26.3359 57.3848C27.2292 57.3848 27.89 57.583 28.3184 57.9795C28.7513 58.376 28.9678 59.0117 28.9678 59.8867V65H28.127ZM25.5635 64.2002C26.2699 64.2002 26.8236 64.0065 27.2246 63.6191C27.6302 63.2318 27.833 62.6895 27.833 61.9922V61.3154L26.6982 61.3633C25.7959 61.3952 25.1442 61.5365 24.7432 61.7871C24.3467 62.0332 24.1484 62.4183 24.1484 62.9424C24.1484 63.3525 24.2715 63.6647 24.5176 63.8789C24.7682 64.0931 25.1169 64.2002 25.5635 64.2002ZM34.7305 57.3711C35.0632 57.3711 35.3617 57.3984 35.626 57.4531L35.4688 58.5059C35.1589 58.4375 34.8854 58.4033 34.6484 58.4033C34.0423 58.4033 33.5228 58.6494 33.0898 59.1416C32.6615 59.6338 32.4473 60.2467 32.4473 60.9805V65H31.3125V57.5078H32.249L32.3789 58.8955H32.4336C32.7116 58.4079 33.0465 58.0319 33.4385 57.7676C33.8304 57.5033 34.2611 57.3711 34.7305 57.3711Z" fill="#00C9AC"/>
</svg>
