<svg width="23" height="32" viewBox="0 0 23 32" fill="CD7B2A" xmlns="http://www.w3.org/2000/svg">
<path d="M16.165 32C14.1109 29.7141 11.2971 26.1289 8.84075 23.1261C8.26096 22.3626 7.86015 22.14 7.45832 22.14C7.27984 22.14 7.05649 22.1845 6.74441 22.2746V27.2491C6.74441 30.2074 7.14624 30.4761 10.0044 30.7447V31.9104H0V30.7447C2.9923 30.4761 3.26002 30.1173 3.26002 27.2491V6.05018C3.26002 3.09238 3.03718 2.86825 0.31259 2.59959V1.56845C2.45432 1.34431 5.004 0.58286 6.7439 0V21.1094C8.0835 20.8402 8.88563 20.2573 9.55721 19.5404C10.5399 18.5543 11.88 16.8067 12.7285 15.5965C13.6214 14.2072 13.4873 13.8484 11.3884 13.6248V12.4591L20.4994 12.0558V13.1765C17.4179 13.7144 16.4796 14.1626 14.7371 15.8206C13.6204 16.9413 12.8167 17.8374 10.8963 20.0782C11.7892 21.4231 16.3016 26.7113 17.8187 28.2802C19.4285 29.9833 20.5886 30.6552 22.2842 30.7447V31.9104L16.165 32Z" fill="#CD7B2A"/>
</svg>
