<svg width="295" height="244" fill="none" xmlns="http://www.w3.org/2000/svg"><path opacity=".8" d="M147.275 240.719c66.459 0 120.334-53.876 120.334-120.335C267.609 53.926 213.734.05 147.275.05S26.94 53.926 26.94 120.384c0 66.459 53.876 120.335 120.335 120.335z" fill="url(#paint0_radial)"/><path d="M211.131 163.62v2.934a.916.916 0 0 0 .559.843c.11.045.229.069.348.069h1.092a.912.912 0 0 0 .912-.912v-.265a1.118 1.118 0 0 0 1.115-1.116 1.116 1.116 0 0 0-1.115-1.116v-.437h-2.911zm2.911.95a.583.583 0 0 1 .413.997.587.587 0 0 1-.413.171v-1.168z" fill="#fff"/><path d="M212.337 161.023s.228.066.247.427c.019.361-.546.432-.546.95a.814.814 0 0 0 .275.684M213.016 161.669a.293.293 0 0 1 .157.111.306.306 0 0 1 .057.183c0 .252-.475.294-.475.636a.512.512 0 0 0 .237.475" stroke="#fff" stroke-width=".25" stroke-miterlimit="10" stroke-linecap="round"/><path d="M204.731 166.934l5.707-.664v1.073h-5.707v-.409zM113.26 78.369h40.263l4.302-4.558-6.529-5.176-8.475-5.916s-1.177 3.799-1.192 3.01c-.014-.787-9.045-6.827-9.045-6.827l-6.395 5.422-1.387 3.414-5.792-2.611-4.601 3.508-1.149 9.734zM205.329 69.675h20.136l2.156-2.279-3.257-2.587-4.24-2.958s-.589 1.899-.594 1.505c-.004-.394-4.525-3.414-4.525-3.414l-3.195 2.711-.693 1.705-2.896-1.306-2.303 1.757-.589 4.866zM241.101 99.94h15.303l1.633-1.734-2.478-1.965-3.224-2.251s-.432 1.472-.432 1.144c0-.327-3.438-2.592-3.438-2.592l-2.426 2.06-.532 1.297-2.198-.993-1.748 1.335-.46 3.698zM36.508 102.513h20.891l2.232-3.124-3.386-3.547-4.396-4.055s-.613 2.616-.622 2.065c-.01-.55-4.691-4.677-4.691-4.677l-3.324 3.713-.698 2.337-3.006-1.786-2.374 2.403-.626 6.671z" fill="#fff"/><path d="M5.612 206.946l21.324-45.396 15.825 20.953 12.008-26.238 27.676 20.246 19.586-23.152 12.297 21.433 10.189-12.293 7.274 14.012 16.571-17.392 15.08 21.29 21.328-20.991 18.94 15.787 16.969 3.837 12.17-21.072 25.236 9.42 5.916-24.092 11.936 12.991 8.342-12.407 7.013 20.346 3.257 75.987L0 243.05l5.612-36.104z" fill="#fff"/><path d="M81.737 164.783v.437a1.113 1.113 0 0 0-1.042 1.113 1.114 1.114 0 0 0 1.043 1.114v.27a.911.911 0 0 0 .563.84c.11.045.229.068.348.067h1.092a.901.901 0 0 0 .907-.907v-2.934h-2.91zm0 2.132a.582.582 0 0 1-.53-.582.582.582 0 0 1 .53-.581v1.163z" fill="#fff"/><path d="M83.442 162.181s-.228.067-.247.432c-.019.366.546.433.546.95a.813.813 0 0 1-.275.684M82.763 162.827a.308.308 0 0 0-.214.295c0 .251.475.299.475.636a.525.525 0 0 1-.237.475" stroke="#fff" stroke-width=".25" stroke-miterlimit="10" stroke-linecap="round"/><path d="M235.351 204.254h2.417l-5.522-33.93h-4.316l7.421 33.93zM207.599 204.254h-2.417l5.522-33.93h4.311l-7.416 33.93z" fill="#D8D8D8"/><path d="M201.231 170.324h38.056v-2.882h-38.056v2.882z" fill="#D8D8D8"/><path d="M224.231 166.972v.717h9.363v-2.607l-4.069-8.413-.897 1.648 2.867 6.438-.061 1.909-.575.308h-6.628z" fill="#DDD"/><path d="M225.622 164.755h3.12l3.119-20.967h-3.119l-3.12 20.967z" fill="#DDD"/><path d="M224.972 149.993l-4.293-2.478M224.725 151.489l-3.11-.883M224.677 155.9l-4.42 2.245M224.535 154.357l-3.181.565M224.701 152.975l-2.089-.062" stroke="#fff" stroke-width=".75" stroke-miterlimit="10" stroke-linecap="round"/><path d="M117.172 154.186v3.285a.699.699 0 0 1 0 .171l-2.588 14.658a.994.994 0 0 1-.194.436l-2.094 2.678a1.08 1.08 0 0 0-.19.413l-1.168 5.698a.981.981 0 0 1-.665.745l-2.089.689a1.002 1.002 0 0 1-1.282-1.178l.916-3.841-.256.114 3.276-24.69a.997.997 0 0 1 .679-.812l3.167-1.063a1.008 1.008 0 0 1 1.125.375l1.206 1.728c.115.176.17.384.157.594zM103.388 183.689l-2.649-.009-.051 15.346 2.649.008.051-15.345z" fill="#C4C4C4" stroke="#C4C4C4" stroke-width=".25" stroke-miterlimit="10" stroke-linecap="round"/><path d="M97.018 199.013l7.483.025a2.156 2.156 0 0 1 2.148 2.163l-11.794-.039a2.153 2.153 0 0 1 2.163-2.149zM108.118 183.776l-14.6-.048a2.885 2.885 0 0 1-2.872-2.892l20.364.068a2.882 2.882 0 0 1-2.892 2.872z" fill="#C4C4C4" stroke="#C4C4C4" stroke-width=".25" stroke-miterlimit="10" stroke-linecap="round"/><path d="M104.785 204.121a1.5 1.5 0 1 0-.002-3.002 1.5 1.5 0 0 0 .002 3.002zM96.708 204.092a1.5 1.5 0 1 0 .001-3 1.5 1.5 0 0 0 0 3z" fill="#C4C4C4" stroke="#C4C4C4" stroke-width=".25" stroke-miterlimit="10" stroke-linecap="round"/><path d="M104.818 180.927l-14.586-.091a.87.87 0 0 0-.83.589l-6.406 18.366a.874.874 0 0 1-1.265.472.88.88 0 0 1-.425-.928l3.508-18.294.812-3.438a.897.897 0 0 1 .28-.475l2.374-2.07a.924.924 0 0 1 .352-.19l3.893-1.021c.124-.023.251-.023.375 0l12.079 2.123a.883.883 0 0 1 .727.869v3.224a.893.893 0 0 1-.071.334.857.857 0 0 1-.194.282.85.85 0 0 1-.287.186.86.86 0 0 1-.336.062z" fill="#F7D1C9"/><path d="M106.508 180.181l-10.878 1.482a1.004 1.004 0 0 0-.868.758c-.034.132-.04.27-.02.405l2.313 16.528a1.014 1.014 0 0 1-.585 1.064 1.02 1.02 0 0 1-.422.09h-1.187a1.014 1.014 0 0 1-.983-.789l-4.073-17.852v-.038l-.675-3.101a1.03 1.03 0 0 1 .053-.598l.446-1.101c.103-.248.3-.445.546-.551l2.749-1.168c.162-.068.338-.094.513-.076l13.218 1.519a1.015 1.015 0 0 1 .893 1.135l-.185 1.424a1.017 1.017 0 0 1-.855.869z" fill="#F9DCD4"/><path d="M97.112 196.496l-7.065 7.639 3.741-.218 1.762-2.051 1.975 1.837-.413-7.207z" fill="#EDEDED"/><path d="M84.102 196.619l-7.06 7.635 3.741-.214 1.762-2.051 1.975 1.837-.418-7.207z" fill="#C4C4C4" stroke="#C4C4C4" stroke-width=".25" stroke-miterlimit="10" stroke-linecap="round"/><path d="M109.846 155.715l-4.269 12.197-1.324-.004-1.762-.338-10.137 1.715.005-1.463 11.063-3.613 2.777-10.009.684-1.097 1.743-.759 1.229.398-.009 2.973z" fill="#F7D1C9"/><path d="M113.568 153.45l-3.38 21.171a.76.76 0 0 1-.1.261v5.223a.54.54 0 0 1-.309.475l-3.285 1.5a.615.615 0 0 1-.223.048l-11.31-.038a.531.531 0 0 1-.51-.386.527.527 0 0 1-.012-.227l.408-2.649a.533.533 0 0 0-.048-.309l-1.31-2.768a.53.53 0 0 0-.532-.299l-1.377.143a.544.544 0 0 1-.498-.233l-.475-.731a.533.533 0 0 1 .413-.826l10.279-.551a.456.456 0 0 0 .138 0l2.085-3.585a.867.867 0 0 0 .076-.19l1.282-5.522a.686.686 0 0 0-.081-.517l-2.46-4.012a.705.705 0 0 1 .086-.841l4.99-5.341a.68.68 0 0 1 .475-.224l4.957-.379a.694.694 0 0 1 .721.807z" fill="#F08113"/><path d="M103.237 140.948l.949 6.253a4.44 4.44 0 0 0 4.093 3.761l-.441 3.176h1.315l2.336-.674.232-13.821-8.484 1.305z" fill="#F9DCD4"/><path d="M102.956 141.314l1.7.84.537 2.483 1.961.546.527 3.12 1.486.902c.066 0 3.656-.56 3.656-.56l1.742-5.143a6.464 6.464 0 0 0-.076-1.243c-.541-3.552-3.594-6.026-6.808-5.537a5.884 5.884 0 0 0-4.725 4.573s-.004.014 0 .019zM114.295 137.7a2.559 2.559 0 1 0 0-5.117 2.559 2.559 0 0 0 0 5.117z" fill="#24284F"/><path d="M111.11 137.458l2.146 1.577.894-1.217-2.146-1.577-.894 1.217z" fill="#F08113"/><path d="M93.617 176.074c.147 0 8.38-1.496 8.38-1.496l1.582-5.113-2.161 3.775-10.54.565s-.086-.053-.304.242c-.333.437.475 1.31.475 1.31a.54.54 0 0 0 .417.238c.243 0 1.126-.124 1.458-.148.536-.014.693.627.693.627z" fill="#CE6B14"/><path d="M112.823 148.64l16.058 5.085c.129.043.263.067.399.071l19.201.542c.234.006.469-.016.698-.067l16.998-3.618" stroke="#fff" stroke-miterlimit="10" stroke-linecap="round"/><path d="M106.261 148.858l8.3 1.895 1.082-2.882-7.464-4.121-1.918 5.108z" fill="#41B6A3"/><path d="M112.88 157.732l-3.87 12.117a.584.584 0 0 1-.56.409h-.973a.405.405 0 0 1-.11 0l-1.082-.204a27.22 27.22 0 0 1-.575-7.213c.352-6.11 1.771-13.802 1.553-13.156-.261.773.366-2.156 1.306-2.374.94-.219 2.303.474 2.203 1.267l-2.882 16.11s.888-5.151.949-5.398l1.467-4.554c.164-.289.396-.535.675-.716l.736-.475c.256-.1 1.058-.128 1.21.095l.475.736a.572.572 0 0 1 .086.474l-.627 2.849.019.033z" fill="#F9DCD4"/><path d="M191.021 181.226l-2.787-.01-.057 17.117 2.787.009.057-17.116z" fill="#C4C4C4" stroke="#C4C4C4" stroke-width=".25" stroke-miterlimit="10" stroke-linecap="round"/><path d="M183.761 198.309l12.454.041a1.962 1.962 0 0 1 1.955 1.967v.1l-16.376-.054v-.076a1.97 1.97 0 0 1 .57-1.4 1.957 1.957 0 0 1 1.397-.578zM195.807 181.304l-14.011-.046a2.63 2.63 0 0 1-2.617-2.635v-.099l19.263.063v.1a2.622 2.622 0 0 1-.775 1.854 2.616 2.616 0 0 1-1.86.763z" fill="#C4C4C4" stroke="#C4C4C4" stroke-width=".25" stroke-miterlimit="10" stroke-linecap="round"/><path d="M194.147 203.157a1.42 1.42 0 1 0 0-2.84 1.42 1.42 0 0 0 0 2.84zM184.922 203.133a1.42 1.42 0 1 0 .001-2.839 1.42 1.42 0 0 0-.001 2.839zM198.359 172.812l-3.058 5.366a1.699 1.699 0 0 1-1.681.849l-8.114-.949a1.714 1.714 0 0 1-1.515-1.558l-2.198-26.536a.635.635 0 0 1 .413-.679l7.065-1.805a1.738 1.738 0 0 1 1.007.048l6.073 2.213c.216.079.414.2.583.356.168.157.304.346.399.555l2.973 6.647c.133.298.179.627.133.95l-1.862 13.95c-.034.21-.108.411-.218.593z" fill="#C4C4C4" stroke="#C4C4C4" stroke-width=".25" stroke-miterlimit="10" stroke-linecap="round"/><path d="M186.897 202.839h-10.84l5.423-4.563h5.417v4.563z" fill="#C4C4C4" stroke="#C4C4C4" stroke-width=".25" stroke-miterlimit="10" stroke-linecap="round"/><path d="M182.244 200.479a.148.148 0 0 1-.199 0l-1.634-1.576a.147.147 0 0 1-.031-.044.14.14 0 0 1 0-.107.147.147 0 0 1 .031-.044.148.148 0 0 1 .2 0l1.633 1.576a.14.14 0 0 1 .042.098.123.123 0 0 1-.011.053.125.125 0 0 1-.031.044zM181.223 201.039a.147.147 0 0 1-.199 0l-1.425-1.362a.14.14 0 0 1-.042-.098.135.135 0 0 1 .042-.097.148.148 0 0 1 .2 0l1.424 1.363a.14.14 0 0 1 0 .194zM180.274 201.514a.148.148 0 0 1-.2 0l-1.187-1.144a.131.131 0 0 1-.042-.095.131.131 0 0 1 .042-.095.148.148 0 0 1 .2 0l1.187 1.144a.146.146 0 0 1 .029.044.134.134 0 0 1-.029.146z" fill="#C4C4C4" stroke="#C4C4C4" stroke-width=".25" stroke-miterlimit="10" stroke-linecap="round"/><path d="M186.964 202.886H175.91v1.415h11.054v-1.415z" fill="#8D8D8E"/><path d="M196.298 202.715H184.77l5.764-4.961h5.764v4.961z" fill="#EDEDED"/><path d="M191.351 200.147a.158.158 0 0 1-.048.033.139.139 0 0 1-.114 0 .143.143 0 0 1-.047-.033l-1.743-1.714a.175.175 0 0 1-.032-.048.151.151 0 0 1 .032-.161.158.158 0 0 1 .214 0l1.738 1.714a.142.142 0 0 1 .033.161.142.142 0 0 1-.033.048zM190.264 200.759a.158.158 0 0 1-.214 0l-1.5-1.481a.136.136 0 0 1-.034-.048.135.135 0 0 1 0-.113.136.136 0 0 1 .034-.048.145.145 0 0 1 .047-.034.157.157 0 0 1 .057-.012c.02 0 .039.005.057.012.018.008.034.02.047.034l1.506 1.481c.013.014.024.03.032.048a.151.151 0 0 1-.032.161zM189.252 201.277a.175.175 0 0 1-.048.032.155.155 0 0 1-.113 0 .175.175 0 0 1-.048-.032l-1.239-1.244a.14.14 0 0 1-.032-.048.139.139 0 0 1 0-.113.13.13 0 0 1 .032-.048.157.157 0 0 1 .214 0l1.258 1.244a.144.144 0 0 1 .029.051c.005.019.007.039.005.058a.154.154 0 0 1-.018.056.153.153 0 0 1-.04.044z" fill="#C4C4C4" stroke="#C4C4C4" stroke-width=".25" stroke-miterlimit="10" stroke-linecap="round"/><path d="M196.298 202.715H184.77v1.539h11.528v-1.539z" fill="#A9A9A9"/><path d="M172.501 167.086l-1.576.423c-.475-.048-.803-.656-.717-1.316l-2.502-14.467c.085-.646.527-1.087.982-.978l.855.209a1.11 1.11 0 0 1 .646 1.234l3.224 13.831c-.053.66-.461 1.135-.912 1.064z" fill="#F7D1C9"/><path d="M173.66 167.528l-2.175.28a1.237 1.237 0 0 1-1.301-1.021 1.645 1.645 0 0 1 .214-.973l7.435-9.302a1.1 1.1 0 0 1 1.047-.389 1.105 1.105 0 0 1 .852.722l.997 1.932a1.421 1.421 0 0 1-.242 1.624l-6.215 6.818a1.08 1.08 0 0 1-.612.309z" fill="#F7D1C9"/><path d="M207.508 154.85l.252.594a1.001 1.001 0 0 1-.356 1.22l-7.953 5.332a.949.949 0 0 1-.95.057l-8.632-7.022-1.22-5.313 9.8 7.283a.935.935 0 0 0 .426.152.94.94 0 0 0 .448-.062l6.946-2.753a.951.951 0 0 1 1.239.512z" fill="#F9DCD4"/><path d="M186.152 147.249l-4.482 1.268a.588.588 0 0 0-.319.218l-4.121 5.446a.774.774 0 0 0-.133.631l4.273 19.852a.657.657 0 0 0 .58.537l16.214.669a.69.69 0 0 0 .645-.629.704.704 0 0 0-.046-.321l-8.243-25.05a.683.683 0 0 0-.29-.375l-3.641-2.184a.559.559 0 0 0-.437-.062z" fill="#fff"/><path d="M183.74 150.411l-1.814 2.896-2.702.295-.56-5.394 3.214-2.099 1.862 4.302z" fill="#F9DCD4"/><path d="M181.878 146.109l-2.977 4.387c-1.899.58-4.577-.337-5.156-2.236l-1.956-6.22 8.147-2.483a.184.184 0 0 1 .228.119l1.838 6.205a.186.186 0 0 1-.124.228z" fill="#F9DCD4"/><path d="M181.783 139.495l1.368 3.946c.024.08.037.163.038.247l-.057 2.806a.69.69 0 0 1-.086.32.69.69 0 0 1-.864.316l-.399-.161a.703.703 0 0 1-.413-.475l-.812-2.602a.706.706 0 0 0-.636-.503l-.949-.052a.707.707 0 0 1-.382-.145.707.707 0 0 1-.24-.33l-.565-1.477a.701.701 0 0 0-.86-.427l-4.169 1.272a1.12 1.12 0 0 1-1.381-.774l-.432-1.424a3.172 3.172 0 0 1 2.022-3.998l4.098-.902a.704.704 0 0 1 .65.195l4.05 4.145.019.023z" fill="#24284F"/><path d="M196.275 154.219l-2.517 3.58a.528.528 0 0 1-.722.19l-4.833-3.395 1.999-5.076 6.016 3.946a.548.548 0 0 1 .057.755z" fill="#fff"/><path d="M186.707 198.305l-5.118-.029a.157.157 0 0 1-.089-.028.153.153 0 0 1-.054-.076l-5.037-15.702-1.486-5.005a.627.627 0 0 1-.024-.104l-.537-2.607a1.276 1.276 0 0 1 .138-.883l1.325-2.374a1.282 1.282 0 0 1 1.125-.66h3.11l10.469 1.396a1.285 1.285 0 0 1 1.116 1.296l-.085 4.972a1.304 1.304 0 0 1-.438.937 1.298 1.298 0 0 1-.987.311l-5.655-.679a1.287 1.287 0 0 0-1.424 1.543l3.798 17.511a.152.152 0 0 1 0 .067.142.142 0 0 1-.029.059.133.133 0 0 1-.053.041.144.144 0 0 1-.065.014z" fill="#CE6B14"/><path d="M196.17 197.716l-5.636.038-.755-19.553a1.613 1.613 0 0 0-.028-.228l-.276-1.334a1.514 1.514 0 0 1 0-.475l.608-4.173c.045-.306.19-.588.413-.803l.575-.565c.263-.253.613-.396.978-.398h1.662c.291.002.574.093.812.261l2.611 1.856c.189.137.342.318.446.527l1.135 2.317c.105.216.154.454.143.694l-.124 2.283a1.397 1.397 0 0 1-1.059 1.282l-.275.072a1.422 1.422 0 0 0-1.059 1.343l-.171 16.856z" fill="#F08113"/><path d="M79.89 168.045v.703h-9.154v-2.55l3.98-8.228.873 1.614-2.802 6.291.057 1.866.566.304h6.48z" fill="#DDD"/><path d="M78.533 165.875H75.48l-3.049-20.497h3.049l3.053 20.497z" fill="#DDD"/><path d="M79.164 151.446l4.197-2.426M79.406 152.909l3.039-.865M79.454 157.224l4.325 2.194M79.591 155.71l3.11.555M79.43 154.361l2.042-.061" stroke="#fff" stroke-miterlimit="10" stroke-linecap="round"/><path d="M63.144 204.254h-2.36l5.399-33.882h4.216l-7.255 33.882zM90.28 204.254h2.36l-5.4-33.882h-4.216l7.255 33.882z" fill="#D8D8D8"/><path d="M96.504 170.372h-37.21l-.442-1.852h37.206l.446 1.852z" fill="#D8D8D8"/><path d="M179.267 85.9h-61.81a3.338 3.338 0 0 0-3.338 3.337v36.959a3.338 3.338 0 0 0 3.338 3.338h61.81a3.338 3.338 0 0 0 3.338-3.338V89.237a3.338 3.338 0 0 0-3.338-3.338z" fill="#fff"/><path d="M177.24 104.426h-56.811a.993.993 0 0 0-.992.993v.702c0 .548.444.993.992.993h56.811a.993.993 0 0 0 .992-.993v-.702a.993.993 0 0 0-.992-.993z" fill="url(#paint1_linear)"/><path d="M155.546 109.331h-35.14a.97.97 0 0 0-.969.969v.688a.97.97 0 0 0 .969.969h35.14a.968.968 0 0 0 .968-.969v-.688a.968.968 0 0 0-.968-.969z" fill="url(#paint2_linear)"/><path d="M177.24 116.178h-56.811a.992.992 0 0 0-.992.992v.703c0 .548.444.992.992.992h56.811a.992.992 0 0 0 .992-.992v-.703a.992.992 0 0 0-.992-.992z" fill="url(#paint3_linear)"/><path d="M155.546 121.082h-35.14a.97.97 0 0 0-.969.969v.688a.97.97 0 0 0 .969.969h35.14a.968.968 0 0 0 .968-.969v-.688a.968.968 0 0 0-.968-.969z" fill="url(#paint4_linear)"/><path d="M177.24 92.076h-56.811a.992.992 0 0 0-.992.993v.703c0 .548.444.992.992.992h56.811a.992.992 0 0 0 .992-.992v-.703a.992.992 0 0 0-.992-.993z" fill="url(#paint5_linear)"/><path d="M155.546 96.981h-35.14a.969.969 0 0 0-.969.969v.688c0 .535.434.969.969.969h35.14a.968.968 0 0 0 .968-.969v-.688a.968.968 0 0 0-.968-.969z" fill="url(#paint6_linear)"/><path d="M166.177 204.292h43.767M156.833 204.292h5.545M57.537 204.292h49.598M46.949 204.292h6.286" stroke="#C4C4C4" stroke-miterlimit="10" stroke-linecap="round"/><path d="M91.362 168.055l-5.712-.67v1.078h5.712v-.408z" fill="#fff"/><path d="M136.15 200.968h-1.386l2.54-14.439 3.385-1.737v-3.637l5.973-2.427v7.279l-2.887 3.176.29 3.467-3.87 2.369-4.045 5.949z" fill="#EDEDED"/><path d="M144.17 182.603l-7.673 15.383" stroke="#C4C4C4" stroke-width=".25" stroke-miterlimit="10" stroke-linecap="round"/><path d="M136.497 200.83l-1.168.2-1.933-2.892-1.662-2.53s-3.798-2.46-3.57-2.612c.228-.152.65-3.162.451-3.323a878.497 878.497 0 0 1-2.213-1.847l1.387-4.691 4.24 3.2 4.468 14.495z" fill="#E0E0E0"/><path d="M128.838 186.287l5.584 11.182" stroke="#C4C4C4" stroke-width=".25" stroke-miterlimit="10" stroke-linecap="round"/><path d="M134.92 182.023l-1.619 2.598-.983 5.488.556 5.209.138 3.233 1.619 3.633 2.25-3.058.869-8.266-.75-4.041-.176-2.198-1.904-2.598z" fill="#F8F7F7"/><path d="M135.034 186.705v13.921M135.034 183.581v1.965" stroke="#C4C4C4" stroke-width=".25" stroke-miterlimit="10" stroke-linecap="round"/><path d="M136.886 204.292h-3.76l-.798-4.217h5.413l-.855 4.217z" fill="#EDEDED"/><path d="M134.165 204.292h-1.039l-.798-4.217h1.101l.736 4.217z" fill="#C4C4C4"/><path d="M123.083 204.292h20.583M118.098 204.292h3.694" stroke="#C4C4C4" stroke-miterlimit="10" stroke-linecap="round"/><path d="M247.344 197.853l3.267-3.921 4.449-12.037v-9.311l-1.363-3.746-3.447 3.272-3.266 7.084-.907 18.659h1.267z" fill="#EDEDED"/><path d="M240.901 175.471c-.27.361-2.72 5.176-2.72 5.176l2.269 2.725-1.453 3.727 3.723 4.311-.475 4.031 3.632 2.446 2.721-3.766-1.543-4.534.365-3.048-2.725-3.433.726-2.455-4.52-5.18z" fill="#E0E0E0"/><path d="M247.031 168.083h-.688l-.527 28.645h1.69l-.475-28.645z" fill="#F8F7F7"/><path d="M247.506 196.728h.399l4.601-22.187-.29.047-4.71 22.14zM246.115 197.08l-.314.014-5.066-18.798.233.029 5.147 18.755z" fill="#F8F7F7"/><path d="M247.14 194.411l-4.624-.408-2.892-3.723h4.34l3.176 4.131zM247.359 188.533l-4.63-.408-2.397-3.229 4.007.261 3.02 3.376zM246.879 183.362l-3.404-.308-2.018-2.726 3.267.214 2.155 2.82zM246.58 178.686l-2.721-.304-1.69-2.279 3.262.213 1.149 2.37zM246.703 174.688l-2.331-.119-1.643-1.947 2.36.152 1.614 1.914zM246.694 171.388l-1.947-.342-.859-2.203 2.431.859.375 1.686z" fill="#F8F7F7"/><path d="M246.1 193.352l4.625-.389 2.892-3.533h-4.34l-3.177 3.922zM245.882 187.769l4.629-.39 2.398-3.067-4.007.247-3.02 3.21zM246.357 182.854l3.409-.294 2.018-2.588-3.267.205-2.16 2.677zM246.656 178.41l2.725-.289 1.691-2.165-3.262.204-1.154 2.25zM246.532 174.612l2.336-.114 1.648-1.847-2.364.147-1.62 1.814zM246.547 171.478l1.946-.323.86-2.094-2.431.817-.375 1.6zM246.58 168.843l-1.382-2.208.974-2.73 1.562 2.768-1.154 2.17z" fill="#F8F7F7"/><path d="M249.932 204.111h-6.5l-1.344-7.383h9.064l-1.22 7.383z" fill="#EDEDED"/><path d="M244.913 204.111h-1.481l-1.344-7.383 1.828-.005.997 7.388z" fill="#C4C4C4"/><path d="M225.565 204.292h35.971M217.888 204.292h4.558" stroke="#C4C4C4" stroke-miterlimit="10" stroke-linecap="round"/><path d="M173.797 150.012l-8.19 2.331-1.235-2.825 7.236-4.506 2.189 5z" fill="#41B6A3"/><defs><radialGradient id="paint0_radial" cx="0" cy="0" r="1" gradientUnits="userSpaceOnUse" gradientTransform="translate(147.275 120.384) scale(120.334)"><stop offset=".5" stop-color="#E0E0E0"/><stop offset=".6" stop-color="#E0E0E0" stop-opacity=".99"/><stop offset=".67" stop-color="#E2E2E2" stop-opacity=".95"/><stop offset=".73" stop-color="#E4E4E4" stop-opacity=".88"/><stop offset=".78" stop-color="#E7E7E7" stop-opacity=".78"/><stop offset=".84" stop-color="#EBEBEB" stop-opacity=".65"/><stop offset=".89" stop-color="#F0F0F0" stop-opacity=".49"/><stop offset=".94" stop-color="#F6F6F6" stop-opacity=".3"/><stop offset=".98" stop-color="#FCFCFC" stop-opacity=".09"/><stop offset="1" stop-color="#fff" stop-opacity="0"/></radialGradient><linearGradient id="paint1_linear" x1="119.437" y1="105.77" x2="178.232" y2="105.77" gradientUnits="userSpaceOnUse"><stop stop-color="#EBEBE9"/><stop offset=".22" stop-color="#EBEBE9" stop-opacity=".99"/><stop offset=".35" stop-color="#EAEAE8" stop-opacity=".95"/><stop offset=".47" stop-color="#E9E9E8" stop-opacity=".89"/><stop offset=".58" stop-color="#E8E8E6" stop-opacity=".8"/><stop offset=".67" stop-color="#E6E6E5" stop-opacity=".68"/><stop offset=".77" stop-color="#E4E4E3" stop-opacity=".54"/><stop offset=".85" stop-color="#E2E2E1" stop-opacity=".37"/><stop offset=".93" stop-color="#DFDFDE" stop-opacity=".18"/><stop offset="1" stop-color="#DCDCDC" stop-opacity="0"/></linearGradient><linearGradient id="paint2_linear" x1="8981.32" y1="1154.27" x2="11876.7" y2="1154.27" gradientUnits="userSpaceOnUse"><stop stop-color="#EBEBE9"/><stop offset=".22" stop-color="#EBEBE9" stop-opacity=".99"/><stop offset=".35" stop-color="#EAEAE8" stop-opacity=".95"/><stop offset=".47" stop-color="#E9E9E8" stop-opacity=".89"/><stop offset=".58" stop-color="#E8E8E6" stop-opacity=".8"/><stop offset=".67" stop-color="#E6E6E5" stop-opacity=".68"/><stop offset=".77" stop-color="#E4E4E3" stop-opacity=".54"/><stop offset=".85" stop-color="#E2E2E1" stop-opacity=".37"/><stop offset=".93" stop-color="#DFDFDE" stop-opacity=".18"/><stop offset="1" stop-color="#DCDCDC" stop-opacity="0"/></linearGradient><linearGradient id="paint3_linear" x1="14172" y1="1224.62" x2="21452.6" y2="1224.62" gradientUnits="userSpaceOnUse"><stop stop-color="#EBEBE9"/><stop offset=".22" stop-color="#EBEBE9" stop-opacity=".99"/><stop offset=".35" stop-color="#EAEAE8" stop-opacity=".95"/><stop offset=".47" stop-color="#E9E9E8" stop-opacity=".89"/><stop offset=".58" stop-color="#E8E8E6" stop-opacity=".8"/><stop offset=".67" stop-color="#E6E6E5" stop-opacity=".68"/><stop offset=".77" stop-color="#E4E4E3" stop-opacity=".54"/><stop offset=".85" stop-color="#E2E2E1" stop-opacity=".37"/><stop offset=".93" stop-color="#DFDFDE" stop-opacity=".18"/><stop offset="1" stop-color="#DCDCDC" stop-opacity="0"/></linearGradient><linearGradient id="paint4_linear" x1="8981.32" y1="1231.03" x2="11876.7" y2="1231.03" gradientUnits="userSpaceOnUse"><stop stop-color="#EBEBE9"/><stop offset=".22" stop-color="#EBEBE9" stop-opacity=".99"/><stop offset=".35" stop-color="#EAEAE8" stop-opacity=".95"/><stop offset=".47" stop-color="#E9E9E8" stop-opacity=".89"/><stop offset=".58" stop-color="#E8E8E6" stop-opacity=".8"/><stop offset=".67" stop-color="#E6E6E5" stop-opacity=".68"/><stop offset=".77" stop-color="#E4E4E3" stop-opacity=".54"/><stop offset=".85" stop-color="#E2E2E1" stop-opacity=".37"/><stop offset=".93" stop-color="#DFDFDE" stop-opacity=".18"/><stop offset="1" stop-color="#DCDCDC" stop-opacity="0"/></linearGradient><linearGradient id="paint5_linear" x1="14172" y1="1064.11" x2="21452.6" y2="1064.11" gradientUnits="userSpaceOnUse"><stop stop-color="#EBEBE9"/><stop offset=".22" stop-color="#EBEBE9" stop-opacity=".99"/><stop offset=".35" stop-color="#EAEAE8" stop-opacity=".95"/><stop offset=".47" stop-color="#E9E9E8" stop-opacity=".89"/><stop offset=".58" stop-color="#E8E8E6" stop-opacity=".8"/><stop offset=".67" stop-color="#E6E6E5" stop-opacity=".68"/><stop offset=".77" stop-color="#E4E4E3" stop-opacity=".54"/><stop offset=".85" stop-color="#E2E2E1" stop-opacity=".37"/><stop offset=".93" stop-color="#DFDFDE" stop-opacity=".18"/><stop offset="1" stop-color="#DCDCDC" stop-opacity="0"/></linearGradient><linearGradient id="paint6_linear" x1="8981.32" y1="1073.62" x2="11876.7" y2="1073.62" gradientUnits="userSpaceOnUse"><stop stop-color="#EBEBE9"/><stop offset=".22" stop-color="#EBEBE9" stop-opacity=".99"/><stop offset=".35" stop-color="#EAEAE8" stop-opacity=".95"/><stop offset=".47" stop-color="#E9E9E8" stop-opacity=".89"/><stop offset=".58" stop-color="#E8E8E6" stop-opacity=".8"/><stop offset=".67" stop-color="#E6E6E5" stop-opacity=".68"/><stop offset=".77" stop-color="#E4E4E3" stop-opacity=".54"/><stop offset=".85" stop-color="#E2E2E1" stop-opacity=".37"/><stop offset=".93" stop-color="#DFDFDE" stop-opacity=".18"/><stop offset="1" stop-color="#DCDCDC" stop-opacity="0"/></linearGradient></defs></svg>