<svg id="Layer_1" data-name="Layer 1" xmlns="http://www.w3.org/2000/svg" xmlns:xlink="http://www.w3.org/1999/xlink" viewBox="0 0 595.28 841.89"><defs><style>.cls-1{opacity:0.8;fill:url(#radial-gradient);}.cls-18,.cls-2{fill:#fff;}.cls-14,.cls-3{fill:none;}.cls-14,.cls-18,.cls-3,.cls-6{stroke:#fff;}.cls-14,.cls-18,.cls-25,.cls-29,.cls-3,.cls-6,.cls-7{stroke-linecap:round;stroke-miterlimit:10;}.cls-3,.cls-7{stroke-width:0.25px;}.cls-4{fill:#d8d8d8;}.cls-5{fill:#ddd;}.cls-6{fill:#3a509c;stroke-width:0.75px;}.cls-25,.cls-28,.cls-7{fill:#c4c4c4;}.cls-25,.cls-29,.cls-7{stroke:#c4c4c4;}.cls-8{fill:#f7d1c9;}.cls-9{fill:#f9dcd4;}.cls-10{fill:#ededed;}.cls-11{fill:#f08113;}.cls-12{fill:#24284f;}.cls-13{fill:#ce6b14;}.cls-15{fill:#41b6a3;}.cls-16{fill:#8d8d8e;}.cls-17{fill:#a9a9a9;}.cls-19{fill:url(#linear-gradient);}.cls-20{fill:url(#linear-gradient-2);}.cls-21{fill:url(#linear-gradient-3);}.cls-22{fill:url(#linear-gradient-4);}.cls-23{fill:url(#linear-gradient-5);}.cls-24{fill:url(#linear-gradient-6);}.cls-26{fill:#e0e0e0;}.cls-27{fill:#f8f7f7;}.cls-29{fill:#214390;}</style><radialGradient id="radial-gradient" cx="297.64" cy="418.49" r="253.44" gradientUnits="userSpaceOnUse"><stop offset="0.5" stop-color="#e0e0e0"/><stop offset="0.6" stop-color="#e0e0e0" stop-opacity="0.99"/><stop offset="0.67" stop-color="#e2e2e2" stop-opacity="0.95"/><stop offset="0.73" stop-color="#e4e4e4" stop-opacity="0.88"/><stop offset="0.78" stop-color="#e7e7e7" stop-opacity="0.78"/><stop offset="0.84" stop-color="#ebebeb" stop-opacity="0.65"/><stop offset="0.89" stop-color="#f0f0f0" stop-opacity="0.49"/><stop offset="0.94" stop-color="#f6f6f6" stop-opacity="0.3"/><stop offset="0.98" stop-color="#fcfcfc" stop-opacity="0.09"/><stop offset="1" stop-color="#fff" stop-opacity="0"/></radialGradient><linearGradient id="linear-gradient" x1="239.01" y1="387.71" x2="362.84" y2="387.71" gradientUnits="userSpaceOnUse"><stop offset="0" stop-color="#ebebe9"/><stop offset="0.22" stop-color="#ebebe9" stop-opacity="0.99"/><stop offset="0.35" stop-color="#eaeae8" stop-opacity="0.95"/><stop offset="0.47" stop-color="#e9e9e8" stop-opacity="0.89"/><stop offset="0.58" stop-color="#e8e8e6" stop-opacity="0.8"/><stop offset="0.67" stop-color="#e6e6e5" stop-opacity="0.68"/><stop offset="0.77" stop-color="#e4e4e3" stop-opacity="0.54"/><stop offset="0.85" stop-color="#e2e2e1" stop-opacity="0.37"/><stop offset="0.93" stop-color="#dfdfde" stop-opacity="0.18"/><stop offset="1" stop-color="#dcdcdc" stop-opacity="0"/></linearGradient><linearGradient id="linear-gradient-2" x1="239.01" y1="397.97" x2="317.1" y2="397.97" xlink:href="#linear-gradient"/><linearGradient id="linear-gradient-3" x1="239.01" y1="412.46" x2="362.84" y2="412.46" xlink:href="#linear-gradient"/><linearGradient id="linear-gradient-4" x1="239.01" y1="422.73" x2="317.1" y2="422.73" xlink:href="#linear-gradient"/><linearGradient id="linear-gradient-5" x1="239.01" y1="361.7" x2="362.84" y2="361.7" xlink:href="#linear-gradient"/><linearGradient id="linear-gradient-6" x1="239.01" y1="371.96" x2="317.1" y2="371.96" xlink:href="#linear-gradient"/></defs><title>Communication 0</title><g id="Communication"><circle class="cls-1" cx="297.64" cy="418.49" r="253.44"/><path class="cls-2" d="M432.13,509.55v6.18a1.91,1.91,0,0,0,1.91,1.92h2.3a1.92,1.92,0,0,0,1.92-1.92v-.56a2.35,2.35,0,0,0,0-4.7v-.92Zm6.13,2a1.23,1.23,0,0,1,0,2.46Z"/><path class="cls-3" d="M434.67,504.08s.48.14.52.9-1.15.91-1.15,2a1.71,1.71,0,0,0,.58,1.44"/><path class="cls-3" d="M436.1,505.44a.63.63,0,0,1,.45.62c0,.53-1,.62-1,1.34a1.09,1.09,0,0,0,.5,1"/><polygon class="cls-2" points="418.65 516.53 430.67 515.13 430.67 517.39 418.65 517.39 418.65 516.53"/><path class="cls-2" d="M226,330H310.8l9.06-9.6-13.75-10.9-17.85-12.46s-2.48,8-2.51,6.34S266.7,289,266.7,289l-13.47,11.42-2.92,7.19-12.2-5.5-9.69,7.39Z"/><path class="cls-2" d="M419.91,311.69h42.41l4.54-4.8L460,301.44l-8.93-6.23s-1.24,4-1.25,3.17-9.53-7.19-9.53-7.19l-6.73,5.71-1.46,3.59-6.1-2.75-4.85,3.7Z"/><path class="cls-2" d="M495.25,375.43h32.23l3.44-3.65-5.22-4.14-6.79-4.74S518,366,518,365.31s-7.24-5.46-7.24-5.46l-5.11,4.34-1.12,2.73-4.63-2.09-3.68,2.81Z"/><path class="cls-2" d="M64.35,380.85h44l4.7-6.58-7.13-7.47-9.26-8.54s-1.29,5.51-1.31,4.35-9.88-9.85-9.88-9.85l-7,7.82L77,365.5l-6.33-3.76-5,5.06Z"/><polygon class="cls-2" points="-0.72 600.8 44.19 505.19 77.52 549.32 102.81 494.06 161.1 536.7 202.35 487.94 228.25 533.08 249.71 507.19 265.03 536.7 299.93 500.07 331.69 544.91 376.61 500.7 416.5 533.95 452.24 542.03 477.87 497.65 531.02 517.49 543.48 466.75 568.62 494.11 586.19 467.98 600.96 510.83 607.82 670.87 -12.54 676.84 -0.72 600.8"/><path class="cls-2" d="M159.61,512v.92a2.35,2.35,0,0,0,0,4.69v.57a1.91,1.91,0,0,0,1.92,1.91h2.3a1.9,1.9,0,0,0,1.91-1.91V512Zm0,4.49a1.23,1.23,0,0,1,0-2.45Z"/><path class="cls-3" d="M163.2,506.52s-.48.14-.52.91,1.15.91,1.15,2a1.71,1.71,0,0,1-.58,1.44"/><path class="cls-3" d="M161.77,507.88a.64.64,0,0,0-.45.62c0,.53,1,.63,1,1.34a1.11,1.11,0,0,1-.5,1"/><polygon class="cls-4" points="483.14 595.13 488.23 595.13 476.6 523.67 467.51 523.67 483.14 595.13"/><polygon class="cls-4" points="424.69 595.13 419.6 595.13 431.23 523.67 440.31 523.67 424.69 595.13"/><rect class="cls-4" x="411.28" y="517.6" width="80.15" height="6.07" transform="translate(902.71 1041.27) rotate(-180)"/><polygon class="cls-5" points="459.72 516.61 459.72 518.12 479.44 518.12 479.44 512.63 470.87 494.91 468.98 498.38 475.02 511.94 474.89 515.96 473.68 516.61 459.72 516.61"/><polygon class="cls-5" points="462.65 511.94 469.22 511.94 475.79 467.78 469.22 467.78 462.65 511.94"/><line class="cls-6" x1="461.28" y1="480.85" x2="452.24" y2="475.63"/><line class="cls-6" x1="460.76" y1="484" x2="454.21" y2="482.14"/><line class="cls-6" x1="460.66" y1="493.29" x2="451.35" y2="498.02"/><line class="cls-6" x1="460.36" y1="490.04" x2="453.66" y2="491.23"/><line class="cls-6" x1="460.71" y1="487.13" x2="456.31" y2="487"/><path class="cls-7" d="M234.24,489.68l0,6.92a1.47,1.47,0,0,1,0,.36l-5.45,30.87a2.12,2.12,0,0,1-.41.92l-4.41,5.64a2.24,2.24,0,0,0-.4.87l-2.46,12a2.07,2.07,0,0,1-1.4,1.57l-4.4,1.45a2.1,2.1,0,0,1-2.7-2.48l1.93-8.09-.54.24,6.9-52a2.09,2.09,0,0,1,1.43-1.71L229,484a2.12,2.12,0,0,1,2.37.79l2.54,3.64A2.07,2.07,0,0,1,234.24,489.68Z"/><rect class="cls-7" x="199.57" y="551.81" width="5.58" height="32.32" transform="translate(1.89 -0.67) rotate(0.19)"/><path class="cls-7" d="M191.78,584.12h15.76a4.54,4.54,0,0,1,4.54,4.54v0a0,0,0,0,1,0,0H187.24a0,0,0,0,1,0,0v0A4.54,4.54,0,0,1,191.78,584.12Z" transform="translate(1.95 -0.66) rotate(0.19)"/><path class="cls-7" d="M184.43,545.88h30.75a6.07,6.07,0,0,1,6.07,6.07v0a0,0,0,0,1,0,0H178.36a0,0,0,0,1,0,0v0a6.07,6.07,0,0,1,6.07-6.07Z" transform="translate(397.79 1098.49) rotate(-179.81)"/><circle class="cls-7" cx="208.15" cy="591.69" r="3.16"/><circle class="cls-7" cx="191.14" cy="591.63" r="3.16"/><path class="cls-8" d="M208.22,546l-30.72-.19a1.83,1.83,0,0,0-1.75,1.24l-13.49,38.68a1.84,1.84,0,0,1-1.94,1.23h0a1.85,1.85,0,0,1-1.62-2.19l7.39-38.53L167.8,539a1.89,1.89,0,0,1,.59-1l5-4.36a1.91,1.91,0,0,1,.74-.4l8.2-2.15a2.1,2.1,0,0,1,.79,0l25.44,4.47a1.86,1.86,0,0,1,1.53,1.83l0,6.79A1.84,1.84,0,0,1,208.22,546Z"/><path class="cls-9" d="M211.78,544.43l-22.91,3.12A2.14,2.14,0,0,0,187,550l4.87,34.81a2.13,2.13,0,0,1-2.12,2.43h-2.5a2.13,2.13,0,0,1-2.07-1.66l-8.58-37.6v-.08l-1.42-6.53a2.17,2.17,0,0,1,.11-1.26l.94-2.32a2.18,2.18,0,0,1,1.15-1.16l5.79-2.46a2.21,2.21,0,0,1,1.08-.16l27.84,3.2a2.14,2.14,0,0,1,1.88,2.39l-.39,3A2.13,2.13,0,0,1,211.78,544.43Z"/><polygon class="cls-10" points="191.99 578.79 177.11 594.88 184.99 594.42 188.7 590.1 192.86 593.97 191.99 578.79"/><polygon class="cls-7" points="164.59 579.05 149.72 595.13 157.6 594.68 161.31 590.36 165.47 594.23 164.59 579.05"/><polygon class="cls-8" points="218.81 492.9 209.82 518.59 207.03 518.58 203.32 517.87 181.97 521.48 181.98 518.4 205.28 510.79 211.13 489.71 212.57 487.4 216.24 485.8 218.83 486.64 218.81 492.9"/><path class="cls-11" d="M226.65,488.13l-7.12,44.59a1.58,1.58,0,0,1-.21.55l0,11a1.14,1.14,0,0,1-.65,1l-6.92,3.16a1.28,1.28,0,0,1-.47.1l-23.82-.08a1.11,1.11,0,0,1-1.1-1.29l.86-5.58a1.12,1.12,0,0,0-.1-.65l-2.76-5.83a1.12,1.12,0,0,0-1.12-.63l-2.9.3a1.14,1.14,0,0,1-1.05-.49l-1-1.54a1.12,1.12,0,0,1,.87-1.74l21.65-1.16a.93.93,0,0,0,.29,0h0l4.39-7.55a1.76,1.76,0,0,0,.16-.4l2.7-11.63a1.44,1.44,0,0,0-.17-1.09L203,500.72a1.49,1.49,0,0,1,.18-1.77l10.51-11.25a1.43,1.43,0,0,1,1-.47l10.44-.8A1.47,1.47,0,0,1,226.65,488.13Z"/><path class="cls-9" d="M204.89,461.8l2,13.17a9.35,9.35,0,0,0,8.62,7.92l-.93,6.69h2.77l4.92-1.42.49-29.11Z"/><path class="cls-12" d="M204.3,462.57l3.58,1.77,1.13,5.23,4.13,1.15,1.11,6.57,3.13,1.9c.14,0,7.7-1.18,7.7-1.18l3.67-10.83a13.71,13.71,0,0,0-.16-2.62c-1.14-7.48-7.57-12.69-14.34-11.66a12.4,12.4,0,0,0-9.95,9.63S204.29,462.56,204.3,462.57Z"/><circle class="cls-12" cx="228.18" cy="449.57" r="5.39"/><rect class="cls-11" x="221.85" y="453.23" width="5.61" height="3.18" transform="translate(136.47 954.38) rotate(-143.7)"/><path class="cls-13" d="M184.63,535.78c.31,0,17.65-3.15,17.65-3.15l3.33-10.77-4.55,7.95L178.86,531s-.18-.11-.64.51c-.7.92,1,2.76,1,2.76a1.14,1.14,0,0,0,.88.5c.51,0,2.37-.26,3.07-.31C184.3,534.43,184.63,535.78,184.63,535.78Z"/><path class="cls-14" d="M225.08,478l33.82,10.71a3,3,0,0,0,.84.15L300.18,490a6,6,0,0,0,1.47-.14l35.8-7.62"/><polygon class="cls-15" points="211.26 478.46 228.74 482.45 231.02 476.38 215.3 467.7 211.26 478.46"/><path class="cls-9" d="M225.2,497.15l-8.15,25.52a1.23,1.23,0,0,1-1.18.86h-2.05a.9.9,0,0,1-.23,0l-2.28-.43a57.29,57.29,0,0,1-1.21-15.19c.74-12.87,3.73-29.07,3.27-27.71-.55,1.63.77-4.54,2.75-5s4.85,1,4.64,2.67l-6.07,33.93s1.87-10.85,2-11.37l3.09-9.59a4.37,4.37,0,0,1,1.42-1.51l1.55-1c.54-.21,2.23-.27,2.55.2l1,1.55a1.23,1.23,0,0,1,.18,1l-1.32,6Z"/><rect class="cls-7" x="383.84" y="546.63" width="5.87" height="36.05" transform="translate(1.88 -1.29) rotate(0.19)"/><path class="cls-7" d="M374.47,582.66H400.7a4.13,4.13,0,0,1,4.13,4.13V587a0,0,0,0,1,0,0H370.34a0,0,0,0,1,0,0v-.16A4.13,4.13,0,0,1,374.47,582.66Z" transform="translate(1.95 -1.29) rotate(0.19)"/><path class="cls-7" d="M370.37,541h29.51a5.53,5.53,0,0,1,5.53,5.53v.21a0,0,0,0,1,0,0H364.84a0,0,0,0,1,0,0v-.21A5.53,5.53,0,0,1,370.37,541Z" transform="translate(768.43 1089.02) rotate(-179.81)"/><circle class="cls-7" cx="396.36" cy="589.83" r="2.99"/><circle class="cls-7" cx="376.93" cy="589.78" r="2.99"/><path class="cls-7" d="M405.23,528.91l-6.44,11.3a3.59,3.59,0,0,1-3.54,1.79l-17.09-2a3.6,3.6,0,0,1-3.19-3.28l-4.63-55.89a1.33,1.33,0,0,1,.87-1.43l14.88-3.8a3.65,3.65,0,0,1,2.12.1L401,480.36a3.65,3.65,0,0,1,2.07,1.92l6.26,14a3.63,3.63,0,0,1,.28,2l-3.92,29.38A3.52,3.52,0,0,1,405.23,528.91Z"/><g id="Shoe"><polygon class="cls-7" points="381.09 592.15 358.26 592.15 369.68 582.54 381.09 582.54 381.09 592.15"/><path class="cls-7" d="M371.29,587.18h0a.31.31,0,0,1-.42,0l-3.44-3.32a.28.28,0,0,1,0-.41h0a.31.31,0,0,1,.42,0l3.44,3.32A.28.28,0,0,1,371.29,587.18Z"/><path class="cls-7" d="M369.14,588.36h0a.31.31,0,0,1-.42,0l-3-2.87a.28.28,0,0,1,0-.41h0a.31.31,0,0,1,.42,0l3,2.87A.3.3,0,0,1,369.14,588.36Z"/><path class="cls-7" d="M367.14,589.36h0a.31.31,0,0,1-.42,0l-2.5-2.41a.27.27,0,0,1,0-.4h0a.31.31,0,0,1,.42,0l2.5,2.41A.28.28,0,0,1,367.14,589.36Z"/><rect class="cls-16" x="357.95" y="592.25" width="23.28" height="2.98"/></g><polygon class="cls-10" points="400.89 591.89 376.61 591.89 388.75 581.44 400.89 581.44 400.89 591.89"/><path class="cls-7" d="M390.47,586.48h0a.3.3,0,0,1-.44,0l-3.67-3.61a.31.31,0,0,1,0-.44h0a.33.33,0,0,1,.45,0l3.66,3.61A.3.3,0,0,1,390.47,586.48Z"/><path class="cls-7" d="M388.18,587.77h0a.33.33,0,0,1-.45,0l-3.16-3.12a.3.3,0,0,1,0-.44h0a.3.3,0,0,1,.44,0l3.17,3.12A.31.31,0,0,1,388.18,587.77Z"/><path class="cls-7" d="M386.05,588.86h0a.31.31,0,0,1-.44,0L383,586.24a.31.31,0,0,1,0-.44h0a.33.33,0,0,1,.45,0l2.65,2.62A.3.3,0,0,1,386.05,588.86Z"/><rect class="cls-17" x="376.61" y="591.89" width="24.28" height="3.24"/><path class="cls-8" d="M350.77,516.85l-3.32.89c-1-.1-1.69-1.38-1.51-2.77l-5.27-30.47c.18-1.36,1.11-2.29,2.07-2.06l1.8.44a2.34,2.34,0,0,1,1.36,2.6l6.79,29.13C352.58,516,351.72,517,350.77,516.85Z"/><path class="cls-8" d="M353.21,517.78l-4.58.59a2.61,2.61,0,0,1-2.74-2.15,3.48,3.48,0,0,1,.45-2.05L362,494.58a2.33,2.33,0,0,1,4,.7l2.1,4.07a3,3,0,0,1-.51,3.42L354.5,517.13A2.28,2.28,0,0,1,353.21,517.78Z"/><path class="cls-9" d="M424.5,491.08l.53,1.25a2.11,2.11,0,0,1-.75,2.57l-16.75,11.23a2,2,0,0,1-2,.12l-18.18-14.79-2.57-11.19,20.64,15.34a2,2,0,0,0,1.84.19L421.89,490A2,2,0,0,1,424.5,491.08Z"/><path class="cls-2" d="M379.52,475.07l-9.44,2.67a1.24,1.24,0,0,0-.67.46l-8.68,11.47a1.63,1.63,0,0,0-.28,1.33l9,41.81a1.37,1.37,0,0,0,1.22,1.13l34.15,1.41a1.46,1.46,0,0,0,1.26-2l-17.36-52.76a1.44,1.44,0,0,0-.61-.79l-7.67-4.6A1.17,1.17,0,0,0,379.52,475.07Z"/><polygon class="cls-9" points="374.44 481.73 370.62 487.83 364.93 488.45 363.75 477.09 370.52 472.67 374.44 481.73"/><path class="cls-9" d="M370.52,472.67l-6.27,9.24c-4,1.22-9.64-.71-10.86-4.71l-4.12-13.1,17.16-5.23a.39.39,0,0,1,.48.25l3.87,13.07A.39.39,0,0,1,370.52,472.67Z"/><path class="cls-12" d="M370.32,458.74l2.88,8.31a1.82,1.82,0,0,1,.08.52l-.12,5.91a1.47,1.47,0,0,1-2,1.34l-.84-.34a1.47,1.47,0,0,1-.87-1L367.74,468a1.5,1.5,0,0,0-1.34-1.06l-2-.11a1.5,1.5,0,0,1-1.31-1l-1.19-3.11a1.47,1.47,0,0,0-1.81-.9l-8.78,2.68a2.36,2.36,0,0,1-2.91-1.63l-.91-3a6.68,6.68,0,0,1,4.26-8.42l8.63-1.9a1.48,1.48,0,0,1,1.37.41l8.53,8.73Z"/><path class="cls-2" d="M400.84,489.75l-5.3,7.54a1.11,1.11,0,0,1-1.52.4l-10.18-7.15,4.21-10.69,12.67,8.31A1.15,1.15,0,0,1,400.84,489.75Z"/><path class="cls-13" d="M380.69,582.6l-10.78-.06a.31.31,0,0,1-.3-.22L359,549.25l-3.13-10.54a1.74,1.74,0,0,1-.05-.22L354.69,533a2.68,2.68,0,0,1,.29-1.86l2.79-5a2.7,2.7,0,0,1,2.37-1.39h6.19l.36,0,22.05,2.94a2.7,2.7,0,0,1,2.35,2.73l-.18,10.47a2.71,2.71,0,0,1-3,2.63L376,542.09a2.7,2.7,0,0,0-3,3.25l8,36.88A.31.31,0,0,1,380.69,582.6Z"/><path class="cls-11" d="M400.62,581.36l-11.87.08-1.59-41.18a3.5,3.5,0,0,0-.06-.48l-.58-2.81a3.17,3.17,0,0,1,0-1l1.28-8.79a2.94,2.94,0,0,1,.87-1.69l1.21-1.19a3,3,0,0,1,2.06-.84h3.5a3,3,0,0,1,1.71.55l5.5,3.91a3.05,3.05,0,0,1,.94,1.11l2.39,4.88a3,3,0,0,1,.3,1.46l-.26,4.81a2.94,2.94,0,0,1-2.23,2.7l-.58.15a3,3,0,0,0-2.23,2.83Z"/><polygon class="cls-5" points="155.72 518.87 155.72 520.35 136.44 520.35 136.44 514.98 144.82 497.65 146.66 501.05 140.76 514.3 140.88 518.23 142.07 518.87 155.72 518.87"/><polygon class="cls-5" points="152.86 514.3 146.43 514.3 140.01 471.13 146.43 471.13 152.86 514.3"/><line class="cls-18" x1="154.19" y1="483.91" x2="163.03" y2="478.8"/><line class="cls-18" x1="154.7" y1="486.99" x2="161.1" y2="485.17"/><line class="cls-18" x1="154.8" y1="496.08" x2="163.91" y2="500.7"/><line class="cls-18" x1="155.09" y1="492.89" x2="161.64" y2="494.06"/><line class="cls-18" x1="154.75" y1="490.05" x2="159.05" y2="489.92"/><polygon class="cls-4" points="120.45 595.13 115.48 595.13 126.85 523.77 135.73 523.77 120.45 595.13"/><polygon class="cls-4" points="177.6 595.13 182.57 595.13 171.2 523.77 162.32 523.77 177.6 595.13"/><polygon class="cls-4" points="190.71 523.77 112.34 523.77 111.41 519.87 189.77 519.87 190.71 523.77"/><rect class="cls-2" x="227.81" y="345.86" width="144.24" height="91.9" rx="7.03"/><rect class="cls-19" x="239.01" y="384.88" width="123.83" height="5.66" rx="2.09"/><rect class="cls-20" x="239.01" y="395.21" width="78.09" height="5.53" rx="2.04"/><rect class="cls-21" x="239.01" y="409.63" width="123.83" height="5.66" rx="2.09"/><rect class="cls-22" x="239.01" y="419.96" width="78.09" height="5.53" rx="2.04"/><rect class="cls-23" x="239.01" y="358.87" width="123.83" height="5.66" rx="2.09"/><rect class="cls-24" x="239.01" y="369.2" width="78.09" height="5.53" rx="2.04"/><line class="cls-25" x1="337.45" y1="595.21" x2="429.63" y2="595.21"/><line class="cls-25" x1="317.77" y1="595.21" x2="329.45" y2="595.21"/><line class="cls-25" x1="108.64" y1="595.21" x2="213.1" y2="595.21"/><line class="cls-25" x1="86.34" y1="595.21" x2="99.58" y2="595.21"/><polygon class="cls-2" points="179.88 518.89 167.85 517.48 167.85 519.75 179.88 519.75 179.88 518.89"/><polygon class="cls-10" points="274.21 588.21 271.29 588.21 276.64 557.8 283.77 554.14 283.77 546.48 296.35 541.37 296.35 556.7 290.27 563.39 290.88 570.69 282.73 575.68 274.21 588.21"/><line class="cls-7" x1="291.1" y1="549.53" x2="274.94" y2="581.93"/><path class="cls-26" d="M274.94,587.92l-2.46.42-4.07-6.09-3.5-5.33s-8-5.18-7.52-5.5,1.37-6.66.95-7-4.66-3.89-4.66-3.89l2.92-9.88,8.93,6.74Z"/><line class="cls-7" x1="258.81" y1="557.29" x2="270.57" y2="580.84"/><polygon class="cls-27" points="271.62 548.31 268.21 553.78 266.14 565.34 267.31 576.31 267.6 583.12 271.01 590.77 275.75 584.33 277.58 566.92 276 558.41 275.63 553.78 271.62 548.31"/><line class="cls-7" x1="271.86" y1="558.17" x2="271.86" y2="587.49"/><line class="cls-7" x1="271.86" y1="551.59" x2="271.86" y2="555.73"/><polygon class="cls-10" points="275.76 595.21 267.84 595.21 266.16 586.33 277.56 586.33 275.76 595.21"/><polygon class="cls-28" points="270.03 595.21 267.84 595.21 266.16 586.33 268.48 586.33 270.03 595.21"/><line class="cls-29" x1="246.69" y1="595.21" x2="290.04" y2="595.21"/><line class="cls-29" x1="236.19" y1="595.21" x2="243.97" y2="595.21"/><polygon class="cls-10" points="508.4 581.65 515.28 573.39 524.65 548.04 524.65 528.43 521.78 520.54 514.52 527.43 507.64 542.35 505.73 581.65 508.4 581.65"/><path class="cls-26" d="M494.83,534.51c-.57.76-5.73,10.9-5.73,10.9l4.78,5.74L490.82,559l7.84,9.08-1,8.49,7.65,5.15,5.73-7.93-3.25-9.55.77-6.42-5.74-7.23,1.53-5.17Z"/><polygon class="cls-27" points="507.74 518.95 506.29 518.95 505.18 579.28 508.74 579.28 507.74 518.95"/><polygon class="cls-27" points="508.74 579.28 509.58 579.28 519.27 532.55 518.66 532.65 508.74 579.28"/><polygon class="cls-27" points="505.81 580.02 505.15 580.05 494.48 540.46 494.97 540.52 505.81 580.02"/><polygon class="cls-27" points="507.97 574.4 498.23 573.54 492.14 565.7 501.28 565.7 507.97 574.4"/><polygon class="cls-27" points="508.43 562.02 498.68 561.16 493.63 554.36 502.07 554.91 508.43 562.02"/><polygon class="cls-27" points="507.42 551.13 500.25 550.48 496 544.74 502.88 545.19 507.42 551.13"/><polygon class="cls-27" points="506.79 541.28 501.06 540.64 497.5 535.84 504.37 536.29 506.79 541.28"/><polygon class="cls-27" points="507.05 532.86 502.14 532.61 498.68 528.51 503.65 528.83 507.05 532.86"/><polygon class="cls-27" points="507.03 525.91 502.93 525.19 501.12 520.55 506.24 522.36 507.03 525.91"/><polygon class="cls-27" points="505.78 572.17 515.52 571.35 521.61 563.91 512.47 563.91 505.78 572.17"/><polygon class="cls-27" points="505.32 560.41 515.07 559.59 520.12 553.13 511.68 553.65 505.32 560.41"/><polygon class="cls-27" points="506.32 550.06 513.5 549.44 517.75 543.99 510.87 544.42 506.32 550.06"/><polygon class="cls-27" points="506.95 540.7 512.69 540.09 516.25 535.53 509.38 535.96 506.95 540.7"/><polygon class="cls-27" points="506.69 532.7 511.61 532.46 515.08 528.57 510.1 528.88 506.69 532.7"/><polygon class="cls-27" points="506.72 526.1 510.82 525.42 512.63 521.01 507.51 522.73 506.72 526.1"/><polygon class="cls-27" points="506.79 520.55 503.88 515.9 505.93 510.15 509.22 515.98 506.79 520.55"/><polygon class="cls-10" points="513.85 594.83 500.16 594.83 497.33 579.28 516.42 579.28 513.85 594.83"/><polygon class="cls-28" points="503.28 594.83 500.16 594.83 497.33 579.28 501.18 579.27 503.28 594.83"/><line class="cls-25" x1="462.53" y1="595.21" x2="538.29" y2="595.21"/><line class="cls-25" x1="446.36" y1="595.21" x2="455.96" y2="595.21"/><polygon class="cls-15" points="353.5 480.89 336.25 485.8 333.65 479.85 348.89 470.36 353.5 480.89"/></g></svg>