<svg width="304" height="243" viewBox="0 0 304 243" fill="none" xmlns="http://www.w3.org/2000/svg">
<path opacity="0.8" d="M158.035 243C225.138 243 279.535 188.603 279.535 121.5C279.535 54.3974 225.138 0 158.035 0C90.9327 0 36.5353 54.3974 36.5353 121.5C36.5353 188.603 90.9327 243 158.035 243Z" fill="url(#paint0_radial)"/>
<path d="M5.61861 204.283L46.8857 157.359L49.4457 182.475L62.6532 166.986L71.0715 178.813L82.1985 154.469L106.634 170.692L124.722 159.411L135.129 173.894L167.125 159.646L205.568 171.976L220.703 145.063L239.654 167.666L246.183 153.141L249.4 169.364L270.609 140.024L276.395 153.141L292.585 134.938L303.271 151.645V237.54L0 240.742L5.61861 204.283Z" fill="white"/>
<path d="M125.92 79.0872H166.593L170.936 74.4849L164.34 69.2738L155.782 63.3005C155.782 63.3005 154.593 67.1357 154.579 66.3399C154.565 65.5441 145.47 59.446 145.47 59.446L139.017 64.9208L137.613 68.3677L131.764 65.731L127.095 69.2738L125.92 79.0872Z" fill="white"/>
<path d="M218.896 70.2997H239.232L241.404 67.9985L238.101 65.3858L233.824 62.3991C233.824 62.3991 233.23 64.3167 233.22 63.9188C233.211 63.5209 228.656 60.4719 228.656 60.4719L225.425 63.2093L224.725 64.9304L221.801 63.6168L219.481 65.3858L218.896 70.2997Z" fill="white"/>
<path d="M255.014 100.857H270.465L272.119 99.1071L269.612 97.1224L266.385 94.8548C266.385 94.8548 265.935 96.317 265.906 96.0102C265.877 95.7033 262.44 93.3878 262.44 93.3878L259.985 95.4684L259.453 96.7772L257.229 95.7753L255.465 97.1224L255.014 100.857Z" fill="white"/>
<path d="M48.4437 103.455H69.5375L71.7907 100.301L68.3917 96.7244L63.9524 92.6255C63.9524 92.6255 63.3388 95.267 63.3292 94.7109C63.3196 94.1548 58.5927 89.9888 58.5927 89.9888L55.2369 93.7377L54.489 96.1203L51.4592 94.313L49.0622 96.7436L48.4437 103.455Z" fill="white"/>
<path d="M55.6204 202.126H62.7443" stroke="#C4C4C4" stroke-miterlimit="10" stroke-linecap="round"/>
<path d="M66.6083 202.126H103.307" stroke="#C4C4C4" stroke-miterlimit="10" stroke-linecap="round"/>
<path d="M112.986 201.853H120.11" stroke="#C4C4C4" stroke-miterlimit="10" stroke-linecap="round"/>
<path d="M123.979 201.853H146.515" stroke="#C4C4C4" stroke-miterlimit="10" stroke-linecap="round"/>
<path d="M157.441 202.126H164.57" stroke="#C4C4C4" stroke-miterlimit="10" stroke-linecap="round"/>
<path d="M168.434 202.126H210.659" stroke="#C4C4C4" stroke-miterlimit="10" stroke-linecap="round"/>
<path d="M85.6934 195.534L88.9917 191.574L93.4789 179.422V170.02L92.1078 166.238L88.6225 169.536L85.3242 176.689L84.4086 195.534H85.6934Z" fill="#CDCCCC"/>
<path d="M79.183 172.93C78.9098 173.3 76.436 178.156 76.436 178.156L78.7276 180.912L77.2606 184.666L81.0191 189.019L80.5397 193.089L84.2072 195.558L86.9541 191.761L85.4153 187.207L85.7844 184.129L83.0326 180.658L83.7661 178.18L79.183 172.93Z" fill="#E0E0E0"/>
<path d="M85.3722 165.471H84.677L84.1449 194.393H85.8564L85.3722 165.471Z" fill="#EAEAEA"/>
<path d="M85.8563 194.393H86.2542L90.8996 171.996L90.6072 172.044L85.8563 194.393Z" fill="#EAEAEA"/>
<path d="M84.4469 194.748L84.1305 194.762L79.0153 175.783L79.2502 175.816L84.4469 194.748Z" fill="#EAEAEA"/>
<path d="M85.4872 192.054L80.813 191.642L77.8934 187.888H82.2752L85.4872 192.054Z" fill="#EAEAEA"/>
<path d="M85.7029 186.124L81.0287 185.711L78.6125 182.447L82.6539 182.71L85.7029 186.124Z" fill="#EAEAEA"/>
<path d="M85.2235 180.898L81.7814 180.586L79.7439 177.839L83.0422 178.05L85.2235 180.898Z" fill="#EAEAEA"/>
<path d="M84.9215 176.176L82.1697 175.869L80.463 173.568L83.7613 173.784L84.9215 176.176Z" fill="#EAEAEA"/>
<path d="M85.0462 172.139L82.6923 172.02L81.0288 170.054L83.4114 170.212L85.0462 172.139Z" fill="#EAEAEA"/>
<path d="M85.0318 168.808L83.0662 168.462L82.1985 166.238L84.653 167.11L85.0318 168.808Z" fill="#EAEAEA"/>
<path d="M84.4325 190.985L89.1019 190.592L92.0214 187.025H87.6397L84.4325 190.985Z" fill="#EAEAEA"/>
<path d="M84.2168 185.352L88.8862 184.954L91.3072 181.857L87.2658 182.106L84.2168 185.352Z" fill="#EAEAEA"/>
<path d="M84.6962 180.385L88.1335 180.088L90.171 177.48L86.8775 177.681L84.6962 180.385Z" fill="#EAEAEA"/>
<path d="M84.9983 175.898L87.7501 175.61L89.4567 173.424L86.1584 173.626L84.9983 175.898Z" fill="#EAEAEA"/>
<path d="M84.8735 172.067L87.2274 171.952L88.8909 170.083L86.5035 170.231L84.8735 172.067Z" fill="#EAEAEA"/>
<path d="M84.8879 168.903L86.8487 168.573L87.7164 166.458L85.2619 167.288L84.8879 168.903Z" fill="#EAEAEA"/>
<path d="M84.9215 166.238L83.5216 164.013L84.5044 161.252L86.0816 164.047L84.9215 166.238Z" fill="#EAEAEA"/>
<path d="M88.3013 201.848H81.7383L80.3816 194.393H89.5334L88.3013 201.848Z" fill="#EDEDED"/>
<path d="M83.2388 201.848H81.7383L80.3816 194.393H82.2273L83.2388 201.848Z" fill="#C4C4C4"/>
<path d="M229.74 202.126H233.446" stroke="#C4C4C4" stroke-miterlimit="10" stroke-linecap="round"/>
<path d="M235.454 202.126H254.534" stroke="#C4C4C4" stroke-miterlimit="10" stroke-linecap="round"/>
<path d="M244.611 198.492H243.211L245.776 183.914L249.189 182.164V178.487L255.225 176.037V183.386L252.31 186.593L252.602 190.093L248.691 192.485L244.611 198.492Z" fill="#EDEDED"/>
<path d="M252.708 179.949L244.956 195.482" stroke="#C4C4C4" stroke-width="0.25" stroke-miterlimit="10" stroke-linecap="round"/>
<path d="M244.956 198.353L243.781 198.554L241.83 195.635L240.152 193.08C240.152 193.08 236.317 190.596 236.547 190.443C236.777 190.29 237.204 187.25 237.003 187.087C236.801 186.924 234.769 185.217 234.769 185.217L236.183 180.495L240.464 183.731L244.956 198.353Z" fill="#E0E0E0"/>
<path d="M237.223 183.669L242.861 194.959" stroke="#C4C4C4" stroke-width="0.25" stroke-miterlimit="10" stroke-linecap="round"/>
<path d="M243.364 179.364L241.734 181.991L240.742 187.528L241.298 192.787L241.442 196.052L243.077 199.724L245.349 196.632L246.222 188.286L245.464 184.206L245.291 181.991L243.364 179.364Z" fill="#F8F7F7"/>
<path d="M243.484 184.091V198.147" stroke="#C4C4C4" stroke-width="0.25" stroke-miterlimit="10" stroke-linecap="round"/>
<path d="M243.484 180.941V182.921" stroke="#C4C4C4" stroke-width="0.25" stroke-miterlimit="10" stroke-linecap="round"/>
<path d="M245.354 201.848H241.557L240.752 197.591H246.217L245.354 201.848Z" fill="#EDEDED"/>
<path d="M242.602 201.848H241.557L240.752 197.591H241.864L242.602 201.848Z" fill="#C4C4C4"/>
<path d="M183.573 92.8652H137.579C136.02 92.8652 134.755 94.1294 134.755 95.6889V178.146C134.755 179.706 136.02 180.97 137.579 180.97H183.573C185.133 180.97 186.397 179.706 186.397 178.146V95.6889C186.397 94.1294 185.133 92.8652 183.573 92.8652Z" fill="#F2F2F2"/>
<path d="M180.462 95.2H140.69C139.131 95.2 137.867 96.4642 137.867 98.0236V175.816C137.867 177.376 139.131 178.64 140.69 178.64H180.462C182.021 178.64 183.285 177.376 183.285 175.816V98.0236C183.285 96.4642 182.021 95.2 180.462 95.2Z" fill="white"/>
<path d="M174.316 120.062H146.539C145.713 120.062 145.043 120.731 145.043 121.558V131.831C145.043 132.657 145.713 133.327 146.539 133.327H174.316C175.142 133.327 175.812 132.657 175.812 131.831V121.558C175.812 120.731 175.142 120.062 174.316 120.062Z" fill="url(#paint1_linear)"/>
<path d="M160.428 113.786C162.435 113.786 164.061 112.159 164.061 110.153C164.061 108.146 162.435 106.519 160.428 106.519C158.421 106.519 156.794 108.146 156.794 110.153C156.794 112.159 158.421 113.786 160.428 113.786Z" fill="#EDEDED"/>
<path d="M160.437 113.786C160.437 113.786 158.917 113.786 158.04 112.895C158.533 112.603 159.082 112.419 159.651 112.353V111.15C159.45 110.836 159.348 110.468 159.359 110.095C159.325 109.362 159.387 108.307 160.408 108.307C161.43 108.307 161.521 109.362 161.492 110.095C161.503 110.468 161.401 110.836 161.199 111.15V112.353C161.765 112.42 162.308 112.612 162.791 112.914C161.923 113.782 160.423 113.786 160.423 113.786" fill="#C4C4C4"/>
<path d="M175.006 137.392H145.849C145.404 137.392 145.043 137.753 145.043 138.198V139.789C145.043 140.234 145.404 140.595 145.849 140.595H175.006C175.451 140.595 175.812 140.234 175.812 139.789V138.198C175.812 137.753 175.451 137.392 175.006 137.392Z" fill="url(#paint2_linear)"/>
<path d="M169.344 143.236H151.515C151.081 143.236 150.729 143.588 150.729 144.022V145.58C150.729 146.015 151.081 146.367 151.515 146.367H169.344C169.779 146.367 170.131 146.015 170.131 145.58V144.022C170.131 143.588 169.779 143.236 169.344 143.236Z" fill="url(#paint3_linear)"/>
<path d="M175.006 147.81H145.849C145.404 147.81 145.043 148.17 145.043 148.615V150.207C145.043 150.652 145.404 151.012 145.849 151.012H175.006C175.451 151.012 175.812 150.652 175.812 150.207V148.615C175.812 148.17 175.451 147.81 175.006 147.81Z" fill="url(#paint4_linear)"/>
<path d="M169.153 153.658H151.707C151.167 153.658 150.729 154.096 150.729 154.636V155.811C150.729 156.351 151.167 156.789 151.707 156.789H169.153C169.693 156.789 170.131 156.351 170.131 155.811V154.636C170.131 154.096 169.693 153.658 169.153 153.658Z" fill="url(#paint5_linear)"/>
<path d="M145.48 161.281V162.954C145.48 162.966 145.479 162.977 145.475 162.989C145.471 163 145.464 163.01 145.456 163.018C145.448 163.027 145.438 163.033 145.428 163.038C145.417 163.043 145.405 163.045 145.393 163.045H144.094C144.078 163.046 144.062 163.051 144.048 163.059C144.033 163.067 144.021 163.079 144.013 163.093L143.759 163.572C143.753 163.588 143.742 163.601 143.727 163.609C143.712 163.617 143.695 163.619 143.679 163.615C143.662 163.611 143.648 163.601 143.639 163.587C143.63 163.572 143.626 163.555 143.629 163.539V161.262C143.629 161.239 143.638 161.217 143.654 161.201C143.671 161.185 143.693 161.175 143.716 161.175H145.393C145.407 161.175 145.42 161.178 145.432 161.183C145.444 161.189 145.454 161.197 145.462 161.207C145.471 161.217 145.477 161.229 145.48 161.242C145.483 161.255 145.483 161.268 145.48 161.281Z" fill="#EDEDED"/>
<path d="M160.437 161.18C160.196 161.18 159.961 161.252 159.76 161.386C159.56 161.52 159.404 161.71 159.312 161.933C159.22 162.156 159.196 162.401 159.243 162.637C159.291 162.874 159.407 163.09 159.578 163.261C159.749 163.431 159.966 163.546 160.203 163.593C160.439 163.639 160.684 163.614 160.906 163.521C161.129 163.429 161.319 163.272 161.452 163.071C161.585 162.87 161.656 162.634 161.655 162.393C161.654 162.071 161.525 161.762 161.296 161.535C161.068 161.308 160.759 161.18 160.437 161.18ZM160.437 162.777C160.361 162.777 160.287 162.754 160.224 162.712C160.161 162.67 160.112 162.61 160.083 162.54C160.054 162.47 160.046 162.393 160.061 162.318C160.076 162.244 160.112 162.176 160.166 162.122C160.22 162.068 160.288 162.032 160.362 162.017C160.437 162.002 160.514 162.01 160.584 162.039C160.654 162.068 160.714 162.117 160.756 162.18C160.798 162.243 160.821 162.317 160.821 162.393C160.816 162.491 160.773 162.584 160.702 162.652C160.63 162.72 160.536 162.758 160.437 162.757V162.777Z" fill="#EDEDED"/>
<path d="M177.207 161.195H174.206V163.63H177.207V161.195Z" fill="#EDEDED"/>
<path d="M175.711 162.829L174.206 161.19H177.211L175.711 162.829Z" stroke="white" stroke-width="0.25" stroke-miterlimit="10"/>
<path d="M160.428 174.479C162.204 174.479 163.644 173.039 163.644 171.262C163.644 169.485 162.204 168.045 160.428 168.045C158.651 168.045 157.211 169.485 157.211 171.262C157.211 173.039 158.651 174.479 160.428 174.479Z" stroke="#EDEDED" stroke-width="2" stroke-miterlimit="10"/>
<path d="M163.702 100.718H157.153C156.928 100.718 156.746 100.9 156.746 101.125V101.356C156.746 101.581 156.928 101.763 157.153 101.763H163.702C163.927 101.763 164.109 101.581 164.109 101.356V101.125C164.109 100.9 163.927 100.718 163.702 100.718Z" fill="#EDEDED"/>
<path d="M155.044 101.854C155.383 101.854 155.657 101.579 155.657 101.24C155.657 100.902 155.383 100.627 155.044 100.627C154.705 100.627 154.43 100.902 154.43 101.24C154.43 101.579 154.705 101.854 155.044 101.854Z" fill="#EDEDED"/>
<path d="M145.923 104.349L144.778 103.203L143.632 104.349L144.778 105.495L145.923 104.349Z" fill="#EDEDED"/>
<path d="M177.02 103.206H174.848C174.742 103.206 174.656 103.292 174.656 103.398V103.503C174.656 103.609 174.742 103.695 174.848 103.695H177.02C177.126 103.695 177.211 103.609 177.211 103.503V103.398C177.211 103.292 177.126 103.206 177.02 103.206Z" fill="#EDEDED"/>
<path d="M177.02 103.983H174.848C174.742 103.983 174.656 104.069 174.656 104.174V104.28C174.656 104.386 174.742 104.472 174.848 104.472H177.02C177.126 104.472 177.211 104.386 177.211 104.28V104.174C177.211 104.069 177.126 103.983 177.02 103.983Z" fill="#EDEDED"/>
<path d="M177.02 104.759H174.848C174.742 104.759 174.656 104.845 174.656 104.951V105.057C174.656 105.162 174.742 105.248 174.848 105.248H177.02C177.126 105.248 177.211 105.162 177.211 105.057V104.951C177.211 104.845 177.126 104.759 177.02 104.759Z" fill="#EDEDED"/>
<path d="M152.249 130.326C154.253 130.326 155.878 128.701 155.878 126.697C155.878 124.692 154.253 123.068 152.249 123.068C150.245 123.068 148.62 124.692 148.62 126.697C148.62 128.701 150.245 130.326 152.249 130.326Z" stroke="#D8D8D8" stroke-miterlimit="10"/>
<path d="M152.249 131.347C154.817 131.347 156.899 129.265 156.899 126.697C156.899 124.128 154.817 122.047 152.249 122.047C149.681 122.047 147.599 124.128 147.599 126.697C147.599 129.265 149.681 131.347 152.249 131.347Z" stroke="#E0E0E0" stroke-miterlimit="10"/>
<path d="M152.249 130.067C154.11 130.067 155.619 128.558 155.619 126.697C155.619 124.835 154.11 123.327 152.249 123.327C150.388 123.327 148.879 124.835 148.879 126.697C148.879 128.558 150.388 130.067 152.249 130.067Z" fill="#41B6A3"/>
<path d="M150.612 126.693L150.114 127.191L151.368 128.445L151.866 127.947L150.612 126.693Z" fill="white"/>
<path d="M154.385 125.438L153.886 124.94L150.88 127.947L151.378 128.445L154.385 125.438Z" fill="white"/>
<path d="M186.891 156.961H185.366C184.873 156.962 184.385 156.865 183.929 156.677C183.473 156.489 183.059 156.212 182.71 155.863C182.362 155.515 182.085 155.101 181.897 154.645C181.708 154.189 181.612 153.701 181.612 153.208L181.704 149.051L188.708 149.866V155.14C188.708 155.622 188.516 156.085 188.176 156.426C187.835 156.768 187.373 156.96 186.891 156.961Z" fill="#F9DCD4"/>
<path d="M190.165 155.6H185.165V159.91H190.165V155.6Z" fill="#F9DCD4"/>
<path d="M183.592 152.407C183.592 152.407 178.539 146.271 183.592 145.01C188.645 143.749 191.263 145.6 191.263 145.6C191.263 145.6 194.585 155.6 190.088 156.377C183.252 157.561 191.263 149.521 183.592 152.407Z" fill="#24284F"/>
<path d="M203.77 197.553L190.678 200.712C190.486 200.762 190.285 200.762 190.093 200.712L188.76 200.333C188.565 200.276 188.389 200.169 188.249 200.021C188.109 199.874 188.011 199.692 187.964 199.494L187.418 197.203C187.399 197.116 187.389 197.028 187.389 196.939V185.289C187.389 185.123 187.426 184.958 187.497 184.806C187.568 184.655 187.67 184.521 187.798 184.414C187.926 184.307 188.076 184.229 188.237 184.185C188.398 184.142 188.567 184.134 188.731 184.163L194.595 184.326L193.262 193.962C193.239 194.136 193.257 194.313 193.313 194.479C193.37 194.646 193.464 194.797 193.588 194.921C193.712 195.045 193.863 195.139 194.029 195.195C194.196 195.252 194.373 195.269 194.547 195.247L203.104 194.144L203.77 197.553Z" fill="#CE6B14"/>
<path d="M195.036 182.49L194.595 184.345C194.538 184.584 194.406 184.798 194.219 184.957C194.032 185.115 193.799 185.21 193.554 185.227L180.026 186.133C179.787 186.149 179.56 186.239 179.375 186.39C179.19 186.541 179.057 186.746 178.995 186.977L176.195 197.246C176.128 197.492 175.981 197.708 175.777 197.861C175.573 198.014 175.323 198.094 175.069 198.089L172.341 198.037L173.381 183.372C173.4 183.121 173.501 182.883 173.669 182.696L175.658 180.433C175.815 180.256 176.022 180.132 176.253 180.078L180.572 179.057C180.759 179.013 180.951 178.996 181.143 179.004L193.684 179.537C193.926 179.547 194.16 179.634 194.349 179.786C194.539 179.937 194.675 180.146 194.738 180.38L195.016 181.425C195.112 181.773 195.119 182.139 195.036 182.49Z" fill="#F08113"/>
<path d="M192.95 158.745L190.17 157.844C190.096 157.827 190.019 157.827 189.944 157.844L185.27 158.443C185.227 158.447 185.185 158.458 185.146 158.476L180.61 160.327C180.502 160.371 180.411 160.452 180.354 160.555C180.298 160.658 180.278 160.777 180.299 160.893L182.216 171.238C182.224 171.291 182.224 171.344 182.216 171.396L181.258 178.971L194.537 179.57L193.962 172.858L193.396 164.282L193.319 159.229C193.317 159.12 193.28 159.014 193.214 158.927C193.147 158.84 193.055 158.776 192.95 158.745Z" fill="white"/>
<path d="M184.46 162.153L181.061 169.747L178.156 172.858L174.781 171.305L171.895 168.103L166.737 162.916L169.095 161.391L176.914 167.35L180.366 160.543L184.46 162.153Z" fill="white"/>
<path d="M206.1 193.583L207.328 200.693L203.655 197.668L203.042 194.115L206.1 193.583Z" fill="#C4C4C4"/>
<path d="M205.046 196.91C205.055 196.918 205.062 196.928 205.067 196.939C205.072 196.951 205.075 196.963 205.075 196.975C205.075 196.987 205.072 196.999 205.067 197.01C205.062 197.022 205.055 197.032 205.046 197.04L204.173 198.296C204.165 198.304 204.155 198.311 204.145 198.315C204.134 198.32 204.122 198.322 204.111 198.322C204.099 198.322 204.088 198.32 204.077 198.315C204.066 198.311 204.057 198.304 204.049 198.296C204.028 198.28 204.015 198.258 204.01 198.233C204.006 198.208 204.011 198.183 204.025 198.161L204.897 196.91C204.905 196.898 204.917 196.889 204.93 196.882C204.942 196.875 204.957 196.872 204.971 196.872C204.986 196.872 205 196.875 205.013 196.882C205.026 196.889 205.037 196.898 205.046 196.91Z" fill="#C4C4C4" stroke="#C4C4C4" stroke-width="0.25" stroke-miterlimit="10" stroke-linecap="round"/>
<path d="M205.535 197.519C205.545 197.526 205.554 197.535 205.561 197.545C205.567 197.555 205.572 197.567 205.574 197.579C205.577 197.591 205.576 197.603 205.574 197.615C205.571 197.627 205.566 197.638 205.559 197.648L204.806 198.713C204.799 198.723 204.79 198.732 204.78 198.739C204.77 198.745 204.758 198.75 204.746 198.752C204.734 198.755 204.722 198.754 204.71 198.752C204.698 198.749 204.686 198.744 204.677 198.737C204.66 198.718 204.651 198.694 204.651 198.67C204.651 198.645 204.66 198.621 204.677 198.602L205.429 197.519C205.445 197.508 205.463 197.502 205.482 197.502C205.501 197.502 205.519 197.508 205.535 197.519Z" fill="#C4C4C4" stroke="#C4C4C4" stroke-width="0.25" stroke-miterlimit="10" stroke-linecap="round"/>
<path d="M205.981 198.085C205.991 198.091 206 198.1 206.006 198.11C206.013 198.121 206.018 198.132 206.02 198.144C206.022 198.156 206.022 198.169 206.019 198.181C206.017 198.193 206.012 198.204 206.004 198.214L205.372 199.125C205.363 199.134 205.353 199.14 205.342 199.145C205.331 199.15 205.319 199.152 205.307 199.152C205.295 199.152 205.283 199.15 205.272 199.145C205.261 199.14 205.251 199.134 205.242 199.125C205.225 199.107 205.215 199.083 205.215 199.058C205.215 199.033 205.225 199.009 205.242 198.991L205.875 198.08C205.891 198.07 205.91 198.065 205.929 198.066C205.947 198.066 205.966 198.073 205.981 198.085Z" fill="#C4C4C4" stroke="#C4C4C4" stroke-width="0.25" stroke-miterlimit="10" stroke-linecap="round"/>
<path d="M206.093 193.574L207.322 200.684L208.271 200.52L207.043 193.41L206.093 193.574Z" fill="#A9A9A9"/>
<path d="M175.965 201.124L168.75 201.163L172.341 198.037L175.951 198.013L175.965 201.124Z" fill="#EDEDED"/>
<path d="M172.858 199.533C172.85 199.542 172.84 199.549 172.829 199.554C172.818 199.559 172.806 199.562 172.794 199.562C172.782 199.562 172.769 199.559 172.758 199.554C172.747 199.549 172.737 199.542 172.729 199.533L171.631 198.463C171.615 198.446 171.606 198.423 171.606 198.399C171.606 198.375 171.615 198.352 171.631 198.334C171.649 198.316 171.673 198.307 171.698 198.307C171.723 198.307 171.748 198.316 171.765 198.334L172.858 199.403C172.868 199.411 172.875 199.421 172.88 199.432C172.885 199.443 172.888 199.456 172.888 199.468C172.888 199.48 172.885 199.492 172.88 199.503C172.875 199.514 172.868 199.524 172.858 199.533Z" fill="#C4C4C4" stroke="#C4C4C4" stroke-width="0.25" stroke-miterlimit="10" stroke-linecap="round"/>
<path d="M172.178 199.916C172.17 199.925 172.16 199.933 172.149 199.938C172.137 199.943 172.125 199.945 172.113 199.945C172.101 199.945 172.089 199.943 172.078 199.938C172.066 199.933 172.056 199.925 172.048 199.916L171.089 198.996C171.081 198.987 171.074 198.977 171.07 198.966C171.065 198.955 171.062 198.943 171.062 198.931C171.062 198.919 171.065 198.907 171.07 198.896C171.074 198.885 171.081 198.875 171.089 198.866C171.107 198.849 171.132 198.839 171.157 198.839C171.182 198.839 171.206 198.849 171.224 198.866L172.183 199.791C172.191 199.8 172.197 199.81 172.201 199.821C172.205 199.831 172.207 199.843 172.207 199.855C172.206 199.866 172.204 199.878 172.199 199.888C172.194 199.899 172.186 199.908 172.178 199.916Z" fill="#C4C4C4" stroke="#C4C4C4" stroke-width="0.25" stroke-miterlimit="10" stroke-linecap="round"/>
<path d="M171.55 200.247C171.531 200.263 171.507 200.272 171.483 200.272C171.458 200.272 171.434 200.263 171.415 200.247L170.624 199.47C170.615 199.462 170.608 199.452 170.603 199.441C170.598 199.43 170.595 199.418 170.595 199.405C170.595 199.393 170.598 199.381 170.603 199.37C170.608 199.359 170.615 199.349 170.624 199.341C170.633 199.332 170.642 199.324 170.654 199.319C170.665 199.314 170.677 199.312 170.689 199.312C170.701 199.312 170.713 199.314 170.725 199.319C170.736 199.324 170.746 199.332 170.754 199.341L171.55 200.113C171.559 200.121 171.566 200.131 171.571 200.143C171.577 200.155 171.579 200.167 171.579 200.18C171.579 200.192 171.577 200.205 171.571 200.216C171.566 200.228 171.559 200.238 171.55 200.247Z" fill="#C4C4C4" stroke="#C4C4C4" stroke-width="0.25" stroke-miterlimit="10" stroke-linecap="round"/>
<path d="M175.956 201.127L168.741 201.166L168.746 202.13L175.961 202.091L175.956 201.127Z" fill="#A9A9A9"/>
<path d="M182.192 167.211L181.09 169.675C181.07 169.722 181.042 169.766 181.008 169.805L178.386 172.614C178.318 172.683 178.231 172.73 178.136 172.749C178.041 172.768 177.943 172.758 177.854 172.719L174.867 171.344C174.812 171.315 174.762 171.278 174.719 171.233L171.895 168.103L166.9 163.079C166.848 163.028 166.809 162.966 166.786 162.898C166.764 162.83 166.758 162.757 166.77 162.686L167.11 160.423C167.121 160.341 167.154 160.264 167.206 160.2C167.257 160.135 167.325 160.087 167.403 160.058L168.362 159.704C168.448 159.679 168.539 159.679 168.625 159.704L169.335 159.867C169.419 159.884 169.497 159.925 169.558 159.986C169.619 160.046 169.661 160.123 169.68 160.207L170.131 162.067C170.158 162.17 170.219 162.261 170.303 162.326L176.473 167.024C176.529 167.063 176.592 167.089 176.658 167.101C176.724 167.113 176.793 167.112 176.858 167.096C176.924 167.08 176.985 167.05 177.039 167.009C177.092 166.968 177.136 166.916 177.168 166.856L177.724 165.711L182.192 167.211Z" fill="#F9DCD4"/>
<path d="M177.71 165.711L180.471 160.413" stroke="#C4C4C4" stroke-width="0.5" stroke-miterlimit="10" stroke-linecap="round"/>
<path d="M182.264 167.144L183.933 162.863" stroke="#C4C4C4" stroke-width="0.5" stroke-miterlimit="10" stroke-linecap="round"/>
<path d="M187.389 194.585V185.472L188.482 185.836L189.719 185.481L187.389 194.585Z" fill="#BC5D17"/>
<path d="M175.96 198.104H175.107L177.437 186.066H179.704L175.96 198.104Z" fill="#CE6B14"/>
<path d="M170.883 157.455C173.34 157.455 175.332 155.463 175.332 153.006C175.332 150.549 173.34 148.557 170.883 148.557C168.426 148.557 166.434 150.549 166.434 153.006C166.434 155.463 168.426 157.455 170.883 157.455Z" stroke="#E0E0E0" stroke-width="3" stroke-miterlimit="10" stroke-linecap="round"/>
<path d="M168.75 159.91L169.752 157.311" stroke="#E0E0E0" stroke-width="3" stroke-miterlimit="10" stroke-linecap="round"/>
<path opacity="0.2" d="M170.883 157.311C173.261 157.311 175.188 155.384 175.188 153.006C175.188 150.629 173.261 148.701 170.883 148.701C168.506 148.701 166.578 150.629 166.578 153.006C166.578 155.384 168.506 157.311 170.883 157.311Z" fill="url(#paint6_radial)"/>
<path d="M148.059 160.298C149.92 160.298 151.429 158.789 151.429 156.928C151.429 155.067 149.92 153.558 148.059 153.558C146.198 153.558 144.689 155.067 144.689 156.928C144.689 158.789 146.198 160.298 148.059 160.298Z" fill="#EBEBE9"/>
<path d="M146.809 155.178L146.311 155.677L149.318 158.684L149.816 158.185L146.809 155.178Z" fill="white"/>
<path d="M149.813 155.674L149.315 155.175L146.308 158.182L146.806 158.681L149.813 155.674Z" fill="white"/>
<path d="M149.315 160.38C150.861 160.38 152.115 159.034 152.115 157.374C152.115 155.714 150.861 154.368 149.315 154.368C147.769 154.368 146.515 155.714 146.515 157.374C146.515 159.034 147.769 160.38 149.315 160.38Z" fill="#EBEBE9"/>
<path d="M150.772 158.491L150.36 158.937L147.858 156.252L148.275 155.811L150.772 158.491Z" fill="white"/>
<path d="M148.275 158.937L147.858 158.491L150.36 155.811L150.772 156.252L148.275 158.937Z" fill="white"/>
<path d="M131.946 139.41L132.55 141.434C132.583 141.541 132.639 141.639 132.716 141.721C132.792 141.803 132.886 141.866 132.991 141.905C133.096 141.944 133.209 141.959 133.32 141.948C133.431 141.937 133.539 141.9 133.634 141.841L143.466 136.87L149.89 130.043C149.997 129.976 150.084 129.882 150.144 129.771C150.203 129.661 150.233 129.536 150.231 129.41L150.192 127.89C150.189 127.765 150.154 127.642 150.089 127.534C150.024 127.426 149.932 127.337 149.822 127.275C149.712 127.214 149.588 127.182 149.462 127.183C149.336 127.184 149.213 127.218 149.104 127.282L141.481 134.406L132.282 138.576C132.139 138.657 132.028 138.783 131.967 138.935C131.906 139.086 131.899 139.254 131.946 139.41Z" fill="#F7D1C9"/>
<path d="M132.584 175.663H128.375V198.181H132.584V175.663Z" fill="#F7D1C9"/>
<path d="M128.379 194.24L136.558 202.126H132.464L130.417 199.998L128.379 202.126V194.24Z" fill="#C4C4C4"/>
<path d="M134.885 127.986V132.843C134.886 133.619 134.621 134.371 134.136 134.976C133.65 135.582 132.972 136.003 132.215 136.17V138.816H128.288V127.986H134.885Z" fill="#F9DCD4"/>
<path d="M138.179 151.573L139.823 180.145H132.574L128.629 176.248L123.283 176.257L129.108 151.573L127.061 142.273L128.274 137.704H132.68L140.111 144.09L135.873 151.573H138.179Z" fill="#F08113"/>
<path d="M131.913 151.654L128.629 176.248H123.283L129.108 151.654L127.066 142.258L131.913 151.654Z" fill="#CE6B14"/>
<path d="M138.898 156.492L133.591 148.903L136.261 146.836L140.542 153.869C140.596 153.966 140.674 154.046 140.77 154.101C140.865 154.157 140.973 154.186 141.084 154.186L147.858 158.059C147.994 158.061 148.125 158.107 148.234 158.189C148.342 158.27 148.422 158.385 148.462 158.515L148.975 159.646C149.001 159.739 149.006 159.837 148.988 159.932C148.971 160.028 148.932 160.117 148.874 160.195C148.816 160.273 148.74 160.336 148.654 160.379C148.568 160.423 148.472 160.446 148.375 160.447L139.468 156.798C139.354 156.803 139.241 156.778 139.141 156.724C139.04 156.67 138.956 156.589 138.898 156.492Z" fill="#F9DCD4"/>
<path d="M134.383 143.486C134.35 143.433 134.279 143.416 134.225 143.45C134.171 143.484 134.155 143.555 134.189 143.609L136.354 147.055C136.388 147.109 136.459 147.125 136.513 147.091C136.566 147.058 136.583 146.987 136.549 146.933L134.383 143.486Z" fill="#CE6B14" stroke="#CE6B14" stroke-width="0.25" stroke-miterlimit="10" stroke-linecap="round"/>
<path d="M130.761 144.447C130.727 144.393 130.656 144.377 130.602 144.411C130.548 144.444 130.532 144.515 130.566 144.569L133.499 149.238C133.532 149.291 133.603 149.308 133.657 149.274C133.711 149.24 133.727 149.169 133.693 149.115L130.761 144.447Z" fill="#CE6B14" stroke="#CE6B14" stroke-width="0.25" stroke-miterlimit="10" stroke-linecap="round"/>
<path d="M113.259 180.145V176.248H128.629L132.584 180.145H113.259Z" fill="#F9DCD4"/>
<path d="M117.205 176.248L109.318 184.431V180.337L111.447 178.285L109.318 176.248H117.205Z" fill="#EDEDED"/>
<path d="M135.139 128.24L133.945 129.075L133.825 131.021L132.387 131.663L132.349 134.094L131.342 134.952H128.504L126.586 131.251C126.528 130.935 126.499 130.614 126.5 130.292C126.5 127.536 128.528 125.302 131.026 125.302C131.924 125.324 132.795 125.614 133.527 126.134C134.26 126.654 134.821 127.381 135.139 128.221V128.24Z" fill="#24284F"/>
<path d="M125.819 126.826C126.905 126.826 127.785 125.946 127.785 124.861C127.785 123.775 126.905 122.895 125.819 122.895C124.734 122.895 123.854 123.775 123.854 124.861C123.854 125.946 124.734 126.826 125.819 126.826Z" fill="#24284F"/>
<path d="M127.693 125.428L126.249 126.872L127.069 127.693L128.513 126.249L127.693 125.428Z" fill="#F08113"/>
<defs>
<radialGradient id="paint0_radial" cx="0" cy="0" r="1" gradientUnits="userSpaceOnUse" gradientTransform="translate(158.035 121.5) scale(121.5)">
<stop offset="0.5" stop-color="#E0E0E0"/>
<stop offset="0.6" stop-color="#E0E0E0" stop-opacity="0.99"/>
<stop offset="0.67" stop-color="#E2E2E2" stop-opacity="0.95"/>
<stop offset="0.73" stop-color="#E4E4E4" stop-opacity="0.88"/>
<stop offset="0.78" stop-color="#E7E7E7" stop-opacity="0.78"/>
<stop offset="0.84" stop-color="#EBEBEB" stop-opacity="0.65"/>
<stop offset="0.89" stop-color="#F0F0F0" stop-opacity="0.49"/>
<stop offset="0.94" stop-color="#F6F6F6" stop-opacity="0.3"/>
<stop offset="0.98" stop-color="#FCFCFC" stop-opacity="0.09"/>
<stop offset="1" stop-color="white" stop-opacity="0"/>
</radialGradient>
<linearGradient id="paint1_linear" x1="145.043" y1="126.697" x2="175.812" y2="126.697" gradientUnits="userSpaceOnUse">
<stop stop-color="#EBEBE9"/>
<stop offset="1" stop-color="#DCDCDC" stop-opacity="0"/>
</linearGradient>
<linearGradient id="paint2_linear" x1="145.043" y1="138.993" x2="175.812" y2="138.993" gradientUnits="userSpaceOnUse">
<stop stop-color="#EBEBE9"/>
<stop offset="0.22" stop-color="#EBEBE9" stop-opacity="0.99"/>
<stop offset="0.35" stop-color="#EAEAE8" stop-opacity="0.95"/>
<stop offset="0.47" stop-color="#E9E9E8" stop-opacity="0.89"/>
<stop offset="0.58" stop-color="#E8E8E6" stop-opacity="0.8"/>
<stop offset="0.67" stop-color="#E6E6E5" stop-opacity="0.68"/>
<stop offset="0.77" stop-color="#E4E4E3" stop-opacity="0.54"/>
<stop offset="0.85" stop-color="#E2E2E1" stop-opacity="0.37"/>
<stop offset="0.93" stop-color="#DFDFDE" stop-opacity="0.18"/>
<stop offset="1" stop-color="#DCDCDC" stop-opacity="0"/>
</linearGradient>
<linearGradient id="paint3_linear" x1="5888.71" y1="1613.16" x2="6673.89" y2="1613.16" gradientUnits="userSpaceOnUse">
<stop stop-color="#EBEBE9"/>
<stop offset="0.22" stop-color="#EBEBE9" stop-opacity="0.99"/>
<stop offset="0.35" stop-color="#EAEAE8" stop-opacity="0.95"/>
<stop offset="0.47" stop-color="#E9E9E8" stop-opacity="0.89"/>
<stop offset="0.58" stop-color="#E8E8E6" stop-opacity="0.8"/>
<stop offset="0.67" stop-color="#E6E6E5" stop-opacity="0.68"/>
<stop offset="0.77" stop-color="#E4E4E3" stop-opacity="0.54"/>
<stop offset="0.85" stop-color="#E2E2E1" stop-opacity="0.37"/>
<stop offset="0.93" stop-color="#DFDFDE" stop-opacity="0.18"/>
<stop offset="1" stop-color="#DCDCDC" stop-opacity="0"/>
</linearGradient>
<linearGradient id="paint4_linear" x1="8879.8" y1="1682.28" x2="10854.5" y2="1682.28" gradientUnits="userSpaceOnUse">
<stop stop-color="#EBEBE9"/>
<stop offset="0.22" stop-color="#EBEBE9" stop-opacity="0.99"/>
<stop offset="0.35" stop-color="#EAEAE8" stop-opacity="0.95"/>
<stop offset="0.47" stop-color="#E9E9E8" stop-opacity="0.89"/>
<stop offset="0.58" stop-color="#E8E8E6" stop-opacity="0.8"/>
<stop offset="0.67" stop-color="#E6E6E5" stop-opacity="0.68"/>
<stop offset="0.77" stop-color="#E4E4E3" stop-opacity="0.54"/>
<stop offset="0.85" stop-color="#E2E2E1" stop-opacity="0.37"/>
<stop offset="0.93" stop-color="#DFDFDE" stop-opacity="0.18"/>
<stop offset="1" stop-color="#DCDCDC" stop-opacity="0"/>
</linearGradient>
<linearGradient id="paint5_linear" x1="5888.71" y1="1691.64" x2="6673.89" y2="1691.64" gradientUnits="userSpaceOnUse">
<stop stop-color="#EBEBE9"/>
<stop offset="0.22" stop-color="#EBEBE9" stop-opacity="0.99"/>
<stop offset="0.35" stop-color="#EAEAE8" stop-opacity="0.95"/>
<stop offset="0.47" stop-color="#E9E9E8" stop-opacity="0.89"/>
<stop offset="0.58" stop-color="#E8E8E6" stop-opacity="0.8"/>
<stop offset="0.67" stop-color="#E6E6E5" stop-opacity="0.68"/>
<stop offset="0.77" stop-color="#E4E4E3" stop-opacity="0.54"/>
<stop offset="0.85" stop-color="#E2E2E1" stop-opacity="0.37"/>
<stop offset="0.93" stop-color="#DFDFDE" stop-opacity="0.18"/>
<stop offset="1" stop-color="#DCDCDC" stop-opacity="0"/>
</linearGradient>
<radialGradient id="paint6_radial" cx="0" cy="0" r="1" gradientUnits="userSpaceOnUse" gradientTransform="translate(170.883 153.006) scale(4.30504)">
<stop stop-color="#C4C4C4"/>
<stop offset="0.24" stop-color="#C9C9C9"/>
<stop offset="0.53" stop-color="#D8D8D8"/>
<stop offset="0.86" stop-color="#F1F1F1"/>
<stop offset="1" stop-color="white"/>
</radialGradient>
</defs>
</svg>
