<svg id="Layer_1" data-name="Layer 1" xmlns="http://www.w3.org/2000/svg" xmlns:xlink="http://www.w3.org/1999/xlink" viewBox="0 0 595.28 841.89"><defs><style>.cls-1{opacity:0.8;fill:url(#radial-gradient);}.cls-2{fill:#fff;}.cls-10,.cls-3,.cls-8{fill:#c4c4c4;}.cls-10,.cls-28,.cls-3{stroke:#c4c4c4;}.cls-10,.cls-28,.cls-3,.cls-30,.cls-34,.cls-9{stroke-linecap:round;}.cls-10,.cls-18,.cls-19,.cls-20,.cls-21,.cls-28,.cls-3,.cls-30,.cls-34,.cls-9{stroke-miterlimit:10;}.cls-4{fill:#cdcccc;}.cls-5{fill:#e0e0e0;}.cls-6{fill:#eaeaea;}.cls-7{fill:#ededed;}.cls-9{fill:#214390;stroke:#a5b8d8;}.cls-10,.cls-18,.cls-34{stroke-width:0.25px;}.cls-11{fill:#f8f7f7;}.cls-12{fill:#f2f2f2;}.cls-13{fill:url(#linear-gradient);}.cls-14{fill:url(#linear-gradient-2);}.cls-15{fill:url(#linear-gradient-3);}.cls-16{fill:url(#linear-gradient-4);}.cls-17{fill:url(#linear-gradient-5);}.cls-18,.cls-19,.cls-20,.cls-21,.cls-28,.cls-30{fill:none;}.cls-18{stroke:#fff;}.cls-19{stroke:#ededed;stroke-width:2px;}.cls-20{stroke:#d8d8d8;}.cls-21,.cls-30{stroke:#e0e0e0;}.cls-22{fill:#41b6a3;}.cls-23{fill:#f9dcd4;}.cls-24{fill:#24284f;}.cls-25,.cls-34{fill:#ce6b14;}.cls-26{fill:#f08113;}.cls-27{fill:#a9a9a9;}.cls-28{stroke-width:0.5px;}.cls-29{fill:#bc5d17;}.cls-30{stroke-width:3px;}.cls-31{opacity:0.2;fill:url(#radial-gradient-2);}.cls-32{fill:#ebebe9;}.cls-33{fill:#f7d1c9;}.cls-34{stroke:#ce6b14;}</style><radialGradient id="radial-gradient" cx="310.99" cy="420.94" r="253.44" gradientUnits="userSpaceOnUse"><stop offset="0.5" stop-color="#e0e0e0"/><stop offset="0.6" stop-color="#e0e0e0" stop-opacity="0.99"/><stop offset="0.67" stop-color="#e2e2e2" stop-opacity="0.95"/><stop offset="0.73" stop-color="#e4e4e4" stop-opacity="0.88"/><stop offset="0.78" stop-color="#e7e7e7" stop-opacity="0.78"/><stop offset="0.84" stop-color="#ebebeb" stop-opacity="0.65"/><stop offset="0.89" stop-color="#f0f0f0" stop-opacity="0.49"/><stop offset="0.94" stop-color="#f6f6f6" stop-opacity="0.3"/><stop offset="0.98" stop-color="#fcfcfc" stop-opacity="0.09"/><stop offset="1" stop-color="#fff" stop-opacity="0"/></radialGradient><linearGradient id="linear-gradient" x1="283.89" y1="431.78" x2="348.07" y2="431.78" gradientUnits="userSpaceOnUse"><stop offset="0" stop-color="#ebebe9"/><stop offset="1" stop-color="#dcdcdc" stop-opacity="0"/></linearGradient><linearGradient id="linear-gradient-2" x1="283.89" y1="457.43" x2="348.07" y2="457.43" gradientUnits="userSpaceOnUse"><stop offset="0" stop-color="#ebebe9"/><stop offset="0.22" stop-color="#ebebe9" stop-opacity="0.99"/><stop offset="0.35" stop-color="#eaeae8" stop-opacity="0.95"/><stop offset="0.47" stop-color="#e9e9e8" stop-opacity="0.89"/><stop offset="0.58" stop-color="#e8e8e6" stop-opacity="0.8"/><stop offset="0.67" stop-color="#e6e6e5" stop-opacity="0.68"/><stop offset="0.77" stop-color="#e4e4e3" stop-opacity="0.54"/><stop offset="0.85" stop-color="#e2e2e1" stop-opacity="0.37"/><stop offset="0.93" stop-color="#dfdfde" stop-opacity="0.18"/><stop offset="1" stop-color="#dcdcdc" stop-opacity="0"/></linearGradient><linearGradient id="linear-gradient-3" x1="295.75" y1="469.55" x2="336.22" y2="469.55" xlink:href="#linear-gradient-2"/><linearGradient id="linear-gradient-4" x1="283.89" y1="479.16" x2="348.07" y2="479.16" xlink:href="#linear-gradient-2"/><linearGradient id="linear-gradient-5" x1="295.75" y1="491.29" x2="336.22" y2="491.29" xlink:href="#linear-gradient-2"/><radialGradient id="radial-gradient-2" cx="337.79" cy="486.66" r="8.98" gradientUnits="userSpaceOnUse"><stop offset="0" stop-color="#c4c4c4"/><stop offset="0.24" stop-color="#c9c9c9"/><stop offset="0.53" stop-color="#d8d8d8"/><stop offset="0.86" stop-color="#f1f1f1"/><stop offset="1" stop-color="#fff"/></radialGradient></defs><title>Learning0</title><g id="Learning"><circle class="cls-1" cx="310.99" cy="420.94" r="253.44"/><polygon class="cls-2" points="-6.94 593.62 79.14 495.74 84.48 548.13 112.03 515.82 129.59 540.49 152.8 489.71 203.77 523.55 241.5 500.02 263.21 530.23 329.95 500.51 410.14 526.23 441.71 470.09 481.24 517.24 494.86 486.94 501.57 520.78 545.81 459.58 557.88 486.94 591.65 448.97 613.94 483.82 613.94 662.99 -18.66 669.67 -6.94 593.62"/><path class="cls-2" d="M244,332.47h84.84l9.06-9.6L324.14,312l-17.85-12.46s-2.48,8-2.51,6.34-19-14.38-19-14.38l-13.46,11.42-2.93,7.19-12.2-5.5L246.45,312Z"/><path class="cls-2" d="M437.94,314.14h42.42l4.53-4.8L478,303.89l-8.92-6.23s-1.24,4-1.26,3.17-9.52-7.19-9.52-7.19l-6.74,5.71-1.46,3.59L444,300.2l-4.84,3.69Z"/><path class="cls-2" d="M513.28,377.88h32.23l3.45-3.65-5.23-4.14L537,365.36s-.94,3.05-1,2.41-7.23-5.47-7.23-5.47l-5.12,4.34-1.11,2.73-4.64-2.09-3.68,2.81Z"/><path class="cls-2" d="M82.39,383.3h44l4.7-6.58L124,369.26l-9.26-8.55s-1.28,5.51-1.3,4.35-9.88-9.85-9.88-9.85l-7,7.82L95,368l-6.32-3.77-5,5.07Z"/><line class="cls-3" x1="97.36" y1="589.12" x2="112.22" y2="589.12"/><line class="cls-3" x1="120.28" y1="589.12" x2="196.83" y2="589.12"/><line class="cls-3" x1="217.02" y1="588.55" x2="231.88" y2="588.55"/><line class="cls-3" x1="239.95" y1="588.55" x2="286.96" y2="588.55"/><line class="cls-3" x1="309.75" y1="589.12" x2="324.62" y2="589.12"/><line class="cls-3" x1="332.68" y1="589.12" x2="420.76" y2="589.12"/><polygon class="cls-4" points="160.09 575.37 166.97 567.11 176.33 541.76 176.33 522.15 173.47 514.26 166.2 521.14 159.32 536.06 157.41 575.37 160.09 575.37"/><path class="cls-5" d="M146.51,528.22c-.57.77-5.73,10.9-5.73,10.9l4.78,5.75-3.06,7.83,7.84,9.08-1,8.49,7.65,5.15,5.73-7.92L159.51,558l.77-6.42-5.74-7.24,1.53-5.17Z"/><polygon class="cls-6" points="159.42 512.66 157.97 512.66 156.86 572.99 160.43 572.99 159.42 512.66"/><polygon class="cls-6" points="160.43 572.99 161.26 572.99 170.95 526.27 170.34 526.37 160.43 572.99"/><polygon class="cls-6" points="157.49 573.73 156.83 573.76 146.16 534.17 146.65 534.24 157.49 573.73"/><polygon class="cls-6" points="159.66 568.11 149.91 567.25 143.82 559.42 152.96 559.42 159.66 568.11"/><polygon class="cls-6" points="160.11 555.74 150.36 554.88 145.32 548.07 153.75 548.62 160.11 555.74"/><polygon class="cls-6" points="159.11 544.84 151.93 544.19 147.68 538.46 154.56 538.9 159.11 544.84"/><polygon class="cls-6" points="158.48 534.99 152.74 534.35 149.18 529.55 156.06 530 158.48 534.99"/><polygon class="cls-6" points="158.74 526.57 153.83 526.32 150.36 522.22 155.33 522.55 158.74 526.57"/><polygon class="cls-6" points="158.71 519.62 154.61 518.9 152.8 514.26 157.92 516.08 158.71 519.62"/><polygon class="cls-6" points="157.46 565.88 167.2 565.06 173.29 557.62 164.15 557.62 157.46 565.88"/><polygon class="cls-6" points="157.01 554.13 166.75 553.3 171.8 546.84 163.37 547.36 157.01 554.13"/><polygon class="cls-6" points="158.01 543.77 165.18 543.15 169.43 537.71 162.56 538.13 158.01 543.77"/><polygon class="cls-6" points="158.64 534.41 164.38 533.81 167.94 529.25 161.06 529.67 158.64 534.41"/><polygon class="cls-6" points="158.38 526.42 163.29 526.18 166.76 522.28 161.78 522.59 158.38 526.42"/><polygon class="cls-6" points="158.41 519.82 162.5 519.13 164.31 514.72 159.19 516.45 158.41 519.82"/><polygon class="cls-6" points="158.48 514.26 155.56 509.62 157.61 503.86 160.9 509.69 158.48 514.26"/><polygon class="cls-7" points="165.53 588.54 151.84 588.54 149.01 572.99 168.1 572.99 165.53 588.54"/><polygon class="cls-8" points="154.97 588.54 151.84 588.54 149.01 572.99 152.86 572.99 154.97 588.54"/><line class="cls-3" x1="460.56" y1="589.12" x2="468.29" y2="589.12"/><line class="cls-9" x1="472.48" y1="589.12" x2="512.28" y2="589.12"/><polygon class="cls-7" points="491.58 581.54 488.66 581.54 494.01 551.13 501.13 547.48 501.13 539.81 513.72 534.7 513.72 550.03 507.64 556.72 508.25 564.02 500.09 569.01 491.58 581.54"/><line class="cls-10" x1="508.47" y1="542.86" x2="492.3" y2="575.26"/><path class="cls-5" d="M492.3,581.25l-2.45.42-4.07-6.09-3.5-5.33s-8-5.18-7.52-5.5,1.37-6.66.95-7-4.66-3.9-4.66-3.9L474,544l8.93,6.75Z"/><line class="cls-10" x1="476.17" y1="550.62" x2="487.93" y2="574.17"/><polygon class="cls-11" points="488.98 541.64 485.58 547.12 483.51 558.67 484.67 569.64 484.97 576.45 488.38 584.11 493.12 577.66 494.94 560.25 493.36 551.74 493 547.12 488.98 541.64"/><line class="cls-10" x1="489.23" y1="551.5" x2="489.23" y2="580.82"/><line class="cls-10" x1="489.23" y1="544.93" x2="489.23" y2="549.06"/><polygon class="cls-7" points="493.13 588.54 485.21 588.54 483.53 579.66 494.93 579.66 493.13 588.54"/><polygon class="cls-8" points="487.39 588.54 485.21 588.54 483.53 579.66 485.85 579.66 487.39 588.54"/><rect class="cls-12" x="262.43" y="361.21" width="107.72" height="183.78" rx="5.89"/><rect class="cls-2" x="268.92" y="366.08" width="94.74" height="174.05" rx="5.89"/><rect class="cls-13" x="283.89" y="417.94" width="64.18" height="27.67" rx="3.12"/><circle class="cls-7" cx="315.98" cy="397.27" r="7.58"/><path class="cls-8" d="M316,404.85s-3.17,0-5-1.86a8.53,8.53,0,0,1,3.36-1.13v-2.51a3.87,3.87,0,0,1-.61-2.2c-.07-1.53.06-3.73,2.19-3.73s2.32,2.2,2.26,3.73a3.87,3.87,0,0,1-.61,2.2v2.51a8.06,8.06,0,0,1,3.32,1.17c-1.81,1.81-4.94,1.82-4.94,1.82"/><rect class="cls-14" x="283.89" y="454.09" width="64.18" height="6.68" rx="1.68"/><rect class="cls-15" x="295.75" y="466.28" width="40.47" height="6.53" rx="1.64"/><rect class="cls-16" x="283.89" y="475.82" width="64.18" height="6.68" rx="1.68"/><rect class="cls-17" x="295.75" y="488.02" width="40.47" height="6.53" rx="2.04"/><path class="cls-7" d="M284.8,503.92v3.49a.18.18,0,0,1-.18.19h-2.71a.21.21,0,0,0-.17.1l-.53,1a.14.14,0,0,1-.27-.07v-4.75a.18.18,0,0,1,.18-.18h3.5A.18.18,0,0,1,284.8,503.92Z"/><path class="cls-7" d="M316,503.71a2.54,2.54,0,1,0,2.54,2.53A2.54,2.54,0,0,0,316,503.71Zm0,3.33a.8.8,0,1,1,.8-.8A.8.8,0,0,1,316,507Z"/><rect class="cls-7" x="344.72" y="503.74" width="6.26" height="5.08"/><polygon class="cls-18" points="347.86 507.15 344.72 503.73 350.99 503.73 347.86 507.15"/><circle class="cls-19" cx="315.98" cy="524.74" r="6.71"/><rect class="cls-7" x="308.3" y="377.59" width="15.36" height="2.18" rx="0.85"/><circle class="cls-7" cx="304.75" cy="378.68" r="1.28"/><rect class="cls-7" x="281.64" y="383.47" width="3.38" height="3.38" transform="translate(355.34 -87.53) rotate(45)"/><rect class="cls-7" x="345.66" y="382.78" width="5.33" height="1.02" rx="0.4"/><rect class="cls-7" x="345.66" y="384.4" width="5.33" height="1.02" rx="0.4"/><rect class="cls-7" x="345.66" y="386.02" width="5.33" height="1.02" rx="0.4"/><circle class="cls-20" cx="298.92" cy="431.78" r="7.57"/><circle class="cls-21" cx="298.92" cy="431.78" r="9.7"/><circle class="cls-22" cx="298.92" cy="431.78" r="7.03"/><rect class="cls-2" x="295.56" y="431.75" width="1.47" height="3.7" transform="translate(-219.82 336.51) rotate(-45)"/><rect class="cls-2" x="298.98" y="427.34" width="1.47" height="8.87" transform="translate(393.1 -85.47) rotate(45)"/><path class="cls-23" d="M371.18,494.91H368a7.82,7.82,0,0,1-7.83-7.83l.19-8.67,14.61,1.7v11A3.8,3.8,0,0,1,371.18,494.91Z"/><rect class="cls-23" x="367.58" y="492.07" width="10.43" height="8.99"/><path class="cls-24" d="M364.3,485.41s-10.54-12.8,0-15.43,16,1.23,16,1.23,6.93,20.86-2.45,22.48C363.59,496.16,380.3,479.39,364.3,485.41Z"/><path class="cls-25" d="M406.39,579.58l-27.31,6.59a2.4,2.4,0,0,1-1.22,0l-2.78-.79a2.39,2.39,0,0,1-1.66-1.75l-1.14-4.78a2.57,2.57,0,0,1-.06-.55V554a2.39,2.39,0,0,1,2.8-2.35l12.23.34-2.78,20.1a2.39,2.39,0,0,0,2.68,2.68L405,572.47Z"/><path class="cls-26" d="M388.17,548.16l-.92,3.87a2.4,2.4,0,0,1-2.17,1.84l-28.22,1.89a2.39,2.39,0,0,0-2.15,1.76l-5.84,21.42a2.39,2.39,0,0,1-2.35,1.76l-5.69-.11L343,550a2.39,2.39,0,0,1,.6-1.41l4.15-4.72a2.37,2.37,0,0,1,1.24-.74L358,541a4.33,4.33,0,0,1,1.19-.11L385.35,542a2.38,2.38,0,0,1,2.2,1.76l.58,2.18A4.47,4.47,0,0,1,388.17,548.16Z"/><path class="cls-2" d="M383.82,498.63l-5.8-1.88a1.06,1.06,0,0,0-.47,0L367.8,498a.77.77,0,0,0-.26.07l-9.46,3.86a1.07,1.07,0,0,0-.65,1.18l4,21.58a1.22,1.22,0,0,1,0,.33l-2,15.8,27.7,1.25-1.2-14-1.18-17.89-.16-10.54A1.08,1.08,0,0,0,383.82,498.63Z"/><polygon class="cls-2" points="366.11 505.74 359.02 521.58 352.96 528.07 345.92 524.83 339.9 518.15 329.14 507.33 334.06 504.15 350.37 516.58 357.57 502.38 366.11 505.74"/><polygon class="cls-8" points="411.25 571.3 413.81 586.13 406.15 579.82 404.87 572.41 411.25 571.3"/><path class="cls-10" d="M409.05,578.24h0a.18.18,0,0,1,0,.27l-1.82,2.62a.18.18,0,0,1-.26,0h0a.21.21,0,0,1-.05-.28l1.82-2.61A.19.19,0,0,1,409.05,578.24Z"/><path class="cls-10" d="M410.07,579.51h0a.19.19,0,0,1,.05.27L408.55,582a.19.19,0,0,1-.27.05h0a.21.21,0,0,1,0-.28l1.57-2.26A.19.19,0,0,1,410.07,579.51Z"/><path class="cls-10" d="M411,580.69h0a.19.19,0,0,1,.05.27l-1.32,1.9a.19.19,0,0,1-.27,0h0a.2.2,0,0,1,0-.28l1.32-1.9A.19.19,0,0,1,411,580.69Z"/><rect class="cls-27" x="406" y="577.54" width="15.05" height="2.01" transform="translate(-86.21 1084.49) rotate(-99.8)"/><polygon class="cls-7" points="348.39 587.03 333.34 587.11 340.83 580.59 348.36 580.54 348.39 587.03"/><path class="cls-10" d="M341.91,583.71h0a.18.18,0,0,1-.27,0l-2.29-2.23a.2.2,0,0,1,0-.27h0a.2.2,0,0,1,.28,0l2.28,2.23A.18.18,0,0,1,341.91,583.71Z"/><path class="cls-10" d="M340.49,584.51h0a.18.18,0,0,1-.27,0l-2-1.92a.19.19,0,0,1,0-.27h0a.2.2,0,0,1,.28,0l2,1.93A.18.18,0,0,1,340.49,584.51Z"/><path class="cls-10" d="M339.18,585.2h0a.21.21,0,0,1-.28,0l-1.65-1.62a.18.18,0,0,1,0-.27h0a.18.18,0,0,1,.27,0l1.66,1.61A.19.19,0,0,1,339.18,585.2Z"/><rect class="cls-27" x="333.34" y="587.07" width="15.05" height="2.01" transform="translate(-3.19 1.86) rotate(-0.31)"/><path class="cls-23" d="M361.38,516.29l-2.3,5.14a1,1,0,0,1-.17.27l-5.47,5.86a1,1,0,0,1-1.11.22l-6.23-2.87a1.19,1.19,0,0,1-.31-.23l-5.89-6.53-10.42-10.48a.93.93,0,0,1-.27-.82l.71-4.72a.94.94,0,0,1,.61-.76l2-.74a1,1,0,0,1,.55,0l1.48.34a.93.93,0,0,1,.72.71l.94,3.88a1,1,0,0,0,.36.54l12.87,9.8a1,1,0,0,0,1.45-.35l1.16-2.39Z"/><line class="cls-28" x1="352.03" y1="513.16" x2="357.79" y2="502.11"/><line class="cls-28" x1="361.53" y1="516.15" x2="365.01" y2="507.22"/><polygon class="cls-29" points="372.22 573.39 372.22 573.39 372.22 554.38 374.5 555.14 377.08 554.4 372.22 573.39"/><polygon class="cls-25" points="348.38 580.73 346.6 580.73 351.46 555.62 356.19 555.62 348.38 580.73"/><circle class="cls-30" cx="337.79" cy="486.66" r="9.28"/><line class="cls-30" x1="333.34" y1="501.06" x2="335.43" y2="495.64"/><circle class="cls-31" cx="337.79" cy="486.66" r="8.98"/><circle class="cls-32" cx="290.18" cy="494.84" r="7.03"/><rect class="cls-2" x="289.45" y="490.41" width="1.47" height="8.87" transform="translate(-264.91 350.13) rotate(-45)"/><rect class="cls-2" x="289.45" y="490.41" width="1.47" height="8.87" transform="translate(434.9 -60.26) rotate(45)"/><ellipse class="cls-32" cx="292.8" cy="495.77" rx="5.84" ry="6.27"/><polygon class="cls-2" points="295.84 498.1 294.98 499.03 289.76 493.43 290.63 492.51 295.84 498.1"/><polygon class="cls-2" points="290.63 499.03 289.76 498.1 294.98 492.51 295.84 493.43 290.63 499.03"/><path class="cls-33" d="M256.57,458.3l1.26,4.22a1.52,1.52,0,0,0,2.26.85L280.6,453,294,438.76a1.52,1.52,0,0,0,.71-1.32l-.08-3.17a1.51,1.51,0,0,0-2.27-1.27l-15.9,14.86-19.19,8.7A1.5,1.5,0,0,0,256.57,458.3Z"/><rect class="cls-33" x="249.12" y="533.92" width="8.78" height="46.97"/><polygon class="cls-8" points="249.13 572.67 266.19 589.12 257.65 589.12 253.38 584.68 249.13 589.12 249.13 572.67"/><path class="cls-23" d="M262.7,434.47V444.6a7.1,7.1,0,0,1-5.57,6.94v5.52h-8.19V434.47Z"/><polygon class="cls-26" points="269.57 483.67 273 543.27 257.88 543.27 249.65 535.14 238.5 535.16 250.65 483.67 250.65 483.67 246.38 464.27 248.91 454.74 258.1 454.74 273.6 468.06 264.76 483.67 269.57 483.67"/><polygon class="cls-25" points="256.5 483.84 249.65 535.14 238.5 535.14 250.65 483.84 246.39 464.24 256.5 483.84 256.5 483.84"/><path class="cls-23" d="M271.07,493.93,260,478.1l5.57-4.31,8.93,14.67a1.29,1.29,0,0,0,1.13.66l14.13,8.08a1.34,1.34,0,0,1,1.26.95l1.07,2.36a1.31,1.31,0,0,1-1.25,1.67l-18.58-7.61A1.32,1.32,0,0,1,271.07,493.93Z"/><rect class="cls-34" x="263.48" y="466.02" width="0.48" height="8.97" rx="0.24" transform="translate(-209.9 212.42) rotate(-32.14)"/><rect class="cls-34" x="256.72" y="467.8" width="0.48" height="11.98" rx="0.24" transform="translate(-212.68 209.32) rotate(-32.14)"/><polygon class="cls-23" points="217.59 543.27 217.59 535.14 249.65 535.14 257.9 543.27 217.59 543.27"/><polygon class="cls-7" points="225.82 535.14 209.37 552.21 209.37 543.67 213.81 539.39 209.37 535.14 225.82 535.14"/><path class="cls-24" d="M263.23,435l-2.49,1.74-.25,4.06-3,1.34-.08,5.07L255.31,449h-5.92l-4-7.72a10.83,10.83,0,0,1-.18-2c0-5.75,4.23-10.41,9.44-10.41a9.43,9.43,0,0,1,8.58,6.09S263.23,435,263.23,435Z"/><circle class="cls-24" cx="243.79" cy="427.95" r="4.1"/><rect class="cls-26" x="244.92" y="430.29" width="4.26" height="2.42" transform="translate(-232.76 301.07) rotate(-45)"/></g></svg>