<svg id="Layer_1" data-name="Layer 1" xmlns="http://www.w3.org/2000/svg" xmlns:xlink="http://www.w3.org/1999/xlink" viewBox="0 0 595.28 841.89"><defs><style>.cls-2{fill:#fff}.cls-3,.cls-31,.cls-32,.cls-36{fill:#c4c4c4}.cls-4{fill:#f08113}.cls-5{fill:#f7c418}.cls-25,.cls-28,.cls-31,.cls-32,.cls-36{stroke-miterlimit:10}.cls-25,.cls-31{stroke-width:.25px}.cls-10{fill:#ebebe9}.cls-18{fill:#4ca9aa}.cls-19{fill:#5fbfbc}.cls-20{fill:#fcc12c}.cls-21{fill:#304080}.cls-22{fill:#f7d1c9}.cls-23{fill:#f9dcd4}.cls-24,.cls-25{fill:#ce6b14}.cls-25{stroke:#ce6b14}.cls-25,.cls-28,.cls-31,.cls-32,.cls-36{stroke-linecap:round}.cls-26{fill:#ededed}.cls-27{fill:#24284f}.cls-28{fill:#214390}.cls-28,.cls-31,.cls-32,.cls-36{stroke:#c4c4c4}.cls-29{fill:#e0e0e0}.cls-30{fill:#f8f7f7}.cls-33{fill:#dbdbdb}.cls-36{stroke-width:.5px}</style><radialGradient id="radial-gradient" cx="286.22" cy="416.64" r="253.44" gradientUnits="userSpaceOnUse"><stop offset=".5" stop-color="#e0e0e0"/><stop offset=".6" stop-color="#e0e0e0" stop-opacity=".99"/><stop offset=".67" stop-color="#e2e2e2" stop-opacity=".95"/><stop offset=".73" stop-color="#e4e4e4" stop-opacity=".88"/><stop offset=".78" stop-color="#e7e7e7" stop-opacity=".78"/><stop offset=".84" stop-color="#ebebeb" stop-opacity=".65"/><stop offset=".89" stop-color="#f0f0f0" stop-opacity=".49"/><stop offset=".94" stop-color="#f6f6f6" stop-opacity=".3"/><stop offset=".98" stop-color="#fcfcfc" stop-opacity=".09"/><stop offset="1" stop-color="#fff" stop-opacity="0"/></radialGradient><linearGradient id="linear-gradient" x1="246.85" y1="383.34" x2="338.26" y2="383.34" gradientUnits="userSpaceOnUse"><stop offset="0" stop-color="#ebebe9"/><stop offset=".22" stop-color="#ebebe9" stop-opacity=".99"/><stop offset=".35" stop-color="#eaeae8" stop-opacity=".95"/><stop offset=".47" stop-color="#e9e9e8" stop-opacity=".89"/><stop offset=".58" stop-color="#e8e8e6" stop-opacity=".8"/><stop offset=".67" stop-color="#e6e6e5" stop-opacity=".68"/><stop offset=".77" stop-color="#e4e4e3" stop-opacity=".54"/><stop offset=".85" stop-color="#e2e2e1" stop-opacity=".37"/><stop offset=".93" stop-color="#dfdfde" stop-opacity=".18"/><stop offset="1" stop-color="#dcdcdc" stop-opacity="0"/></linearGradient><linearGradient id="linear-gradient-2" x1="246.85" y1="390.92" x2="304.49" y2="390.92" xlink:href="#linear-gradient"/><linearGradient id="linear-gradient-3" x1="260.63" y1="414.54" x2="352.04" y2="414.54" xlink:href="#linear-gradient"/><linearGradient id="linear-gradient-4" x1="260.63" y1="422.12" x2="318.27" y2="422.12" xlink:href="#linear-gradient"/><linearGradient id="linear-gradient-5" x1="260.63" y1="463.03" x2="352.04" y2="463.03" xlink:href="#linear-gradient"/><linearGradient id="linear-gradient-6" x1="260.63" y1="470.6" x2="318.27" y2="470.6" xlink:href="#linear-gradient"/><linearGradient id="linear-gradient-7" x1="260.63" y1="438.24" x2="352.04" y2="438.24" xlink:href="#linear-gradient"/><linearGradient id="linear-gradient-8" x1="260.63" y1="445.81" x2="318.27" y2="445.81" xlink:href="#linear-gradient"/></defs><g id="Quiz"><circle cx="286.22" cy="416.64" r="253.44" opacity=".8" fill="url(#radial-gradient)"/><path class="cls-2" d="M211.33 357.89h149.36v119.65H211.33z"/><path class="cls-3" d="M211.33 357.89h149.36v11.55H211.33z"/><circle class="cls-4" cx="219.91" cy="363.66" r="2.02"/><circle class="cls-5" cx="226.59" cy="363.66" r="2.02"/><circle cx="233.26" cy="363.66" r="2.02" fill="#5fbfba"/><path class="cls-2" d="M-.36 602.77l86.77-97.89 25.75 53.22 16.38-43.6 31.11 35.34 46.49-42.9 22.47 28.1 21.46-25.88 4.53 31.13 83.55-56.52 48.43 53.76 83.74-66 21.41 54.85 13.73-30.3 6.76 33.85 44.6-61.21 12.16 27.36 17.57-26.13 9.09 4.51V671.2L.36 678.69l-.72-75.92z"/><path stroke-width=".25" stroke-miterlimit="10" stroke="#214390" fill="#fff" d="M201.5 369.28h167.49v31.11H201.5z"/><rect x="246.85" y="381.25" width="91.41" height="4.18" rx="2.09" fill="url(#linear-gradient)"/><rect x="246.85" y="388.87" width="57.64" height="4.08" rx="2.04" fill="url(#linear-gradient-2)"/><circle class="cls-10" cx="249.38" cy="418.3" r="7.03"/><path class="cls-2" transform="rotate(-45 249.374 418.296)" d="M248.64 413.87h1.47v8.87h-1.47z"/><path class="cls-2" transform="rotate(45 249.381 418.307)" d="M248.64 413.87h1.47v8.87h-1.47z"/><circle class="cls-10" cx="249.38" cy="442" r="7.03"/><path class="cls-2" transform="rotate(-45 249.383 442.002)" d="M248.64 437.57h1.47v8.87h-1.47z"/><path class="cls-2" transform="rotate(45 249.38 441.996)" d="M248.64 437.57h1.47v8.87h-1.47z"/><circle class="cls-10" cx="249.38" cy="466.79" r="7.03"/><path class="cls-2" transform="rotate(-45 249.382 466.793)" d="M248.64 462.36h1.47v8.87h-1.47z"/><path class="cls-2" transform="rotate(45 249.38 466.787)" d="M248.64 462.36h1.47v8.87h-1.47z"/><rect x="260.63" y="412.45" width="91.41" height="4.18" rx="2.09" fill="url(#linear-gradient-3)"/><rect x="260.63" y="420.07" width="57.64" height="4.08" rx="2.04" fill="url(#linear-gradient-4)"/><circle cx="227.85" cy="387.1" r="7.03" fill="#41b6a3"/><path class="cls-2" transform="rotate(-45 225.22 388.93)" d="M224.49 387.08h1.47v3.7h-1.47z"/><path class="cls-2" transform="rotate(45 228.648 387.1)" d="M227.91 382.67h1.47v8.87h-1.47z"/><rect x="260.63" y="460.94" width="91.41" height="4.18" rx="2.09" fill="url(#linear-gradient-5)"/><rect x="260.63" y="468.56" width="57.64" height="4.08" rx="2.04" fill="url(#linear-gradient-6)"/><rect x="260.63" y="436.15" width="91.41" height="4.18" rx="2.09" fill="url(#linear-gradient-7)"/><rect x="260.63" y="443.77" width="57.64" height="4.08" rx="2.04" fill="url(#linear-gradient-8)"/><path class="cls-3" d="M385.35 377.16v12.64a.6.6 0 0 1-.62.58h-15.12a.6.6 0 0 1-.62-.58v-12.64a.6.6 0 0 1 .62-.58h15.12a.6.6 0 0 1 .62.58z"/><path class="cls-3" d="M400.39 390.8v1.2h-15.52a.59.59 0 0 1-.58-.6v-15.47h.82a15.46 15.46 0 0 1 15.19 13.85c.04.32.07.67.09 1.02z"/><rect class="cls-3" x="385.35" y="391.52" width="13.97" height="3.33" rx=".58"/><path class="cls-3" d="M402.46 401.84h-20.24a.63.63 0 0 1-.5-.94l3.47-6.29a.55.55 0 0 1 .49-.3H399a.56.56 0 0 1 .5.3l3.5 6.29a.63.63 0 0 1-.54.94z"/><path class="cls-18" d="M387.25 421.8l-4.75-4.57 9.89-10.28 5.13 3.78-10.27 11.07z"/><path class="cls-19" d="M394.3 412.57l-6.12 6.35a.7.7 0 0 0-1 .06l-1.88-1.81a.69.69 0 0 0 0-1l6.12-6.36a.7.7 0 0 0 1-.05l1.87 1.8a.7.7 0 0 0 .01 1.01z"/><ellipse class="cls-18" cx="389.82" cy="414.38" rx="1.4" ry="1.3" transform="rotate(-46.07 389.873 414.402)"/><path class="cls-18" d="M383.88 430.65l-2.45 6.23 9.4 5.81 2.33-5-9.28-7.04z"/><path class="cls-19" d="M391.39 437.58l-6.52-5a.61.61 0 0 1-.85.19l-.79 3a.62.62 0 0 1 .27.83l6.44 4.33a.63.63 0 0 1 .85-.2l.88-2.32a.62.62 0 0 1-.28-.83z"/><ellipse class="cls-18" cx="387.33" cy="436.71" rx="1.15" ry="1.26" transform="rotate(-60.56 387.362 436.722)"/><path class="cls-18" d="M398.19 451.08l2.45 6.23-9.41 5.81-2.33-5 9.29-7.04z"/><path class="cls-19" d="M390.67 458l6.52-5a.63.63 0 0 0 .85.2l.79 3a.62.62 0 0 0-.27.83l-6.44 4.33a.61.61 0 0 0-.85-.19l-.87-2.32a.62.62 0 0 0 .27-.85z"/><ellipse class="cls-18" cx="394.73" cy="457.14" rx="1.26" ry="1.15" transform="rotate(-29.44 394.688 457.111)"/><path class="cls-18" d="M390.31 430.13l.54-6.66 11-1.09-.11 5.52-11.43 2.23z"/><path class="cls-19" d="M400.11 427.22l-8.11 1.64a.62.62 0 0 0-.68-.55l.62-3.05a.62.62 0 0 0 .61-.63l7.68-1.05a.63.63 0 0 0 .68.55l-.23 2.46a.63.63 0 0 0-.57.63z"/><ellipse class="cls-18" cx="396.08" cy="426.21" rx="1.26" ry="1.15" transform="rotate(-3.34 395.747 425.88)"/><circle class="cls-20" cx="383.18" cy="450.75" r="1.33"/><circle class="cls-20" cx="396.1" cy="438.03" r="1.33"/><circle class="cls-20" cx="385.25" cy="424.89" r="1.33"/><circle class="cls-20" cx="394.84" cy="418.2" r="1.33"/><rect class="cls-21" x="376.44" y="412.84" width=".81" height="9.93" rx=".4" transform="rotate(30.19 376.83 417.778)"/><rect class="cls-21" x="372.39" y="407.3" width=".81" height="4.86" rx=".4" transform="rotate(53.64 372.8 409.753)"/><path class="cls-21" d="M407.52 421.25a.36.36 0 0 1-.53-.06l-5.31-6.94a.4.4 0 0 1 .06-.55.38.38 0 0 1 .54.07l5.31 6.94a.38.38 0 0 1-.07.54zM409.41 410.36a.39.39 0 0 1-.52.15l-3.37-1.87a.4.4 0 0 1-.15-.53.38.38 0 0 1 .52-.16l3.36 1.88a.39.39 0 0 1 .16.53z"/><circle class="cls-10" cx="216.93" cy="480.36" r="7.03"/><path class="cls-2" transform="rotate(-45 216.933 480.363)" d="M216.19 475.93h1.47v8.87h-1.47z"/><path class="cls-2" transform="rotate(45 216.93 480.355)" d="M216.19 475.93h1.47v8.87h-1.47z"/><ellipse class="cls-10" cx="219.54" cy="481.28" rx="5.84" ry="6.27"/><path class="cls-2" d="M222.58 483.62l-.86.92-5.21-5.59.86-.93 5.21 5.6z"/><path class="cls-2" d="M217.37 484.54l-.86-.92 5.21-5.6.86.93-5.21 5.59z"/><path class="cls-22" d="M180.77 451l3.34 2.88a1.51 1.51 0 0 0 2.35-.5l20.44-42.86a1.52 1.52 0 0 0-.11-1.5l-1.79-2.68a1.52 1.52 0 0 0-2.6.15l-22 42.62a1.51 1.51 0 0 0 .37 1.89zM175.15 527.39h8.78v46.97h-8.78z"/><path class="cls-3" d="M175.15 566.14l17.07 16.45h-8.54l-4.28-4.44-4.25 4.44v-16.45z"/><path class="cls-23" d="M188.72 427.94v10.13a7.1 7.1 0 0 1-5.57 6.94v5.52H175v-22.59z"/><path class="cls-4" d="M195.6 477.14l3.42 59.6h-15.11l-8.24-8.13-11.14.02 12.14-51.49-4.26-19.4 2.53-9.53h9.18l15.5 13.32-8.83 15.61h4.81z"/><path class="cls-24" d="M182.53 477.31l-6.86 51.3h-11.14l12.15-51.3-4.26-19.6 10.11 19.6z"/><path class="cls-23" d="M197.09 487.4L186 471.57l5.56-4.31 8.93 14.67a1.32 1.32 0 0 0 1.14.66l15.92-.15a1.33 1.33 0 0 1 1.26.95l1.07 2.36a1.31 1.31 0 0 1-1.24 1.67l-20.38.62a1.34 1.34 0 0 1-1.17-.64z"/><rect class="cls-25" x="189.5" y="459.49" width=".48" height="8.97" rx=".24" transform="rotate(-31.8 192.906 465.464)"/><rect class="cls-25" x="182.74" y="461.27" width=".48" height="11.98" rx=".24" transform="rotate(-32.14 183.006 467.294)"/><path class="cls-23" d="M143.62 536.74v-8.13h32.05l8.26 8.13h-40.31z"/><path class="cls-26" d="M151.84 528.61l-16.44 17.07v-8.54l4.44-4.28-4.44-4.25h16.44z"/><path class="cls-27" d="M189.26 428.44l-2.49 1.74-.25 4.06-3 1.34-.08 5.07-2.13 1.79h-5.93l-4-7.72a10.83 10.83 0 0 1-.18-2c0-5.75 4.23-10.41 9.44-10.41a9.43 9.43 0 0 1 8.58 6.09z"/><circle class="cls-27" cx="169.81" cy="421.42" r="4.1"/><path class="cls-4" transform="rotate(-45 173.074 424.96)" d="M170.94 423.75h4.26v2.42h-4.26z"/><circle class="cls-4" cx="209.49" cy="403.31" r="7.03"/><path class="cls-5" d="M209.49 399.38l.88 2.72h2.87l-2.32 1.68.88 2.72-2.31-1.68-2.32 1.68.89-2.72-2.32-1.68h2.86l.89-2.72z"/><path class="cls-22" d="M200.21 412.94l2.36 2.09c.54.47 1.42 0 1.78-.91l1.65-5.78a1.67 1.67 0 0 0 0-1.39l-1.2-2.15c-.44-.78-1.51-.43-1.95.63l-2.8 5.85a1.5 1.5 0 0 0 .16 1.66z"/><path class="cls-28" d="M390.89 582.59h60M378.08 582.59h7.6M323.98 582.59h31.35M317.28 582.59h3.98M152.04 582.59h7.61M163.78 582.59h39.16"/><path class="cls-26" d="M269.37 569.03l6.88-8.26 9.37-25.35v-19.61l-2.87-7.89-7.26 6.88-6.88 14.92-1.91 39.31h2.67z"/><path class="cls-29" d="M255.8 521.88c-.57.76-5.73 10.9-5.73 10.9l4.78 5.75-3.06 7.83 7.83 9.08-.95 8.49 7.65 5.15 5.73-7.92-3.25-9.55.76-6.43-5.73-7.18 1.53-5.17z"/><path class="cls-30" d="M268.71 506.32h-1.45l-1.11 60.33h3.56l-1-60.33z"/><path class="cls-30" d="M269.71 566.65h.84l9.69-46.72-.61.1-9.92 46.62zM266.78 567.39l-.66.03-10.67-39.59.49.07 10.84 39.49z"/><path class="cls-30" d="M268.94 561.77l-9.74-.86-6.09-7.83h9.14l6.69 8.69zM269.39 549.4l-9.74-.87-5.05-6.8 8.44.55 6.35 7.12zM268.39 538.5l-7.17-.65-4.25-5.73 6.88.44 4.54 5.94zM267.76 528.65l-5.74-.64-3.56-4.8 6.88.45 2.42 4.99zM268.02 520.23l-4.9-.25-3.48-4.1 4.98.33 3.4 4.02zM268 513.28l-4.1-.72-1.81-4.64 5.12 1.82.79 3.54z"/><path class="cls-30" d="M266.75 559.54l9.74-.82 6.09-7.44h-9.14l-6.69 8.26zM266.29 547.78l9.75-.82 5.04-6.46-8.43.52-6.36 6.76zM267.3 537.43l7.17-.62 4.25-5.44-6.88.42-4.54 5.64zM267.93 528.07l5.73-.6 3.56-4.56-6.87.42-2.42 4.74zM267.67 520.08l4.9-.24 3.48-3.9-4.98.31-3.4 3.83zM267.69 513.47l4.1-.68 1.81-4.41-5.12 1.73-.79 3.36zM267.76 507.92l-2.91-4.65 2.05-5.75 3.29 5.83-2.43 4.57z"/><path class="cls-26" d="M274.82 582.2h-13.69l-2.83-15.55h19.09l-2.57 15.55z"/><path class="cls-3" d="M264.25 582.2h-3.12l-2.83-15.55h3.85l2.1 15.55z"/><path class="cls-26" d="M340.5 575.59h-2.92l5.35-30.42 7.13-3.65v-7.67l12.58-5.11v15.33l-6.08 6.7.61 7.3-8.15 4.98-8.52 12.54z"/><path class="cls-31" d="M357.39 536.9l-16.16 32.4"/><path class="cls-29" d="M341.23 575.29l-2.46.42-4.07-6.09-3.5-5.33s-8-5.17-7.52-5.5 1.37-6.65.95-6.95-4.66-3.9-4.66-3.9l2.93-9.88 8.92 6.75z"/><path class="cls-31" d="M325.1 544.66l11.76 23.55"/><path class="cls-30" d="M337.91 535.68l-3.41 5.48-2.07 11.56 1.17 10.96.29 6.81 3.41 7.66 4.74-6.45 1.83-17.41-1.58-8.51-.37-4.62-4.01-5.48z"/><path class="cls-31" d="M338.15 545.54v29.32M338.15 538.97v4.14"/><path class="cls-26" d="M342.05 582.59h-7.92l-1.68-8.88h11.4l-1.8 8.88z"/><path class="cls-3" d="M336.32 582.59h-2.19l-1.68-8.88h2.32l1.55 8.88z"/><path class="cls-2" d="M209.46 306.69h84.83l9.06-9.6-13.75-10.9-17.86-12.47s-2.47 8-2.51 6.35-19.05-14.38-19.05-14.38l-13.46 11.42-2.92 7.18-12.2-5.49-9.69 7.39zM374.05 336h42.41l4.54-4.8-6.88-5.45-8.93-6.23s-1.24 4-1.25 3.17-9.53-7.19-9.53-7.19l-6.73 5.71-1.46 3.59-6.1-2.75-4.85 3.7zM468.72 383.7H501l3.44-3.64-5.23-4.14-6.78-4.74s-.94 3.05-.95 2.41-7.24-5.46-7.24-5.46l-5.12 4.34-1.12 2.72-4.63-2.09-3.69 2.81zM56.79 353.81h44l4.7-6.58-7.14-7.47-9.26-8.54s-1.29 5.5-1.3 4.34-9.88-9.85-9.88-9.85l-7 7.82-1.52 4.93-6.32-3.77-5 5.07z"/><path class="cls-32" d="M232.5 582.59h75.76M216.33 582.59h9.6"/><path class="cls-22" d="M424 472.54l-5.55 6.36a.82.82 0 0 1-.57.26l-21.26.82a3.13 3.13 0 0 1-3.11-3.13V476a3.12 3.12 0 0 1 3.13-3.11h13.72a3.15 3.15 0 0 0 2.55-1.31l1.56-2.06 2.63-3.52z" id="arm"/><path class="cls-33" d="M394.62 481.85l-14.31-5.37v-9.04l14.17 3.34.14 11.07z"/><path class="cls-33" d="M402.08 483.8l-7.46-3.93-.43-9.16 8.23 4.05-.34 9.04z"/><path class="cls-18" d="M389.87 480.51l-4.28-6.26 13.37-4.08 2.59 6.33-11.68 4.01z"/><path class="cls-19" d="M399.29 475.25l-8.51 2.65a.62.62 0 0 0-.89.05l-2.31-2a.63.63 0 0 0 0-.89l9.11-2.33a.65.65 0 0 0 .9-.05l1.7 1.64a.63.63 0 0 0 0 .93z"/><ellipse class="cls-18" cx="393.83" cy="475.11" rx="1.28" ry="1.19" transform="rotate(-46.07 393.876 475.13)"/><path class="cls-2" d="M387.57 483.74l-7.26-7.26v-9.04l7.26 7.41v8.89zM402.08 483.8h-14.51v-9.04h14.85l-.34 9.04z"/><g id="Pants"><path class="cls-24" d="M424.4 569.66h-10.96l3.64-80.44h15.87l-8.55 80.44z"/><path class="cls-4" d="M434.82 569.66h10.95v-80.44H431.1l3.72 80.44z"/></g><g id="Shoe"><path class="cls-3" d="M424.39 578.88h-21.91l10.96-9.22h10.95v9.22z"/><path class="cls-31" d="M415 574.11a.28.28 0 0 1-.4 0l-3.31-3.19a.27.27 0 0 1 0-.39.32.32 0 0 1 .41 0l3.3 3.19a.27.27 0 0 1 0 .39zM412.92 575.24a.28.28 0 0 1-.4 0l-2.86-2.75a.27.27 0 0 1 0-.39.28.28 0 0 1 .4 0l2.86 2.75a.27.27 0 0 1 0 .39zM411 576.21a.3.3 0 0 1-.4 0l-2.4-2.32a.27.27 0 0 1 0-.39.32.32 0 0 1 .41 0l2.39 2.32a.27.27 0 0 1 0 .39z"/><path fill="#8d8d8e" d="M402.48 578.88h21.91v2.86h-21.91z"/></g><path class="cls-26" d="M445.77 578.88h-21.42l10.71-9.22h10.71v9.22z"/><path class="cls-31" d="M436.58 574.11a.28.28 0 0 1-.4 0l-3.18-3.19a.27.27 0 0 1 0-.39.3.3 0 0 1 .4 0l3.23 3.19a.27.27 0 0 1-.05.39zM434.55 575.24a.27.27 0 0 1-.39 0l-2.79-2.75a.27.27 0 0 1 0-.39.27.27 0 0 1 .39 0l2.79 2.75a.27.27 0 0 1 0 .39zM432.68 576.21a.3.3 0 0 1-.4 0l-2.34-2.32a.27.27 0 0 1 0-.39.29.29 0 0 1 .39 0l2.35 2.32a.27.27 0 0 1 0 .39z"/><path fill="#a9a9a9" d="M424.35 578.88h21.43v2.86h-21.43z"/><g id="HEAD"><path class="cls-23" d="M427.84 430.86h9.91v9.91h-9.91z"/><path class="cls-23" d="M421.57 415.94h15.13a1.06 1.06 0 0 1 1.06 1.06v13.43a1.06 1.06 0 0 1-1.06 1.06h-7a8.11 8.11 0 0 1-8.11-8.11v-7.44h-.02z"/><path class="cls-27" d="M440.74 416.83l.29 7.77a1.49 1.49 0 0 1-.07.47l-1.62 5a1.3 1.3 0 0 1-2.06.61l-.62-.5a1.32 1.32 0 0 1-.49-1V424a1.32 1.32 0 0 0-.86-1.25l-1.63-.59a1.31 1.31 0 0 1-.85-1.15l-.2-2.94a1.32 1.32 0 0 0-1.31-1.23h-8.11a2.08 2.08 0 0 1-2-2.12V412a5.91 5.91 0 0 1 5.78-6l7.78.62a1.27 1.27 0 0 1 1 .7l5 9.57z"/></g><path class="cls-2" d="M448.38 450.29L446 490a1.9 1.9 0 0 1-1.86 1.83l-25.2.21a1.91 1.91 0 0 1-1.86-2l.76-37.95a2 2 0 0 1 .61-1.4l8.13-11.59a1.83 1.83 0 0 1 .79-.45l9.2-2.49a1.82 1.82 0 0 1 1.91.66l9.52 12.11a2.07 2.07 0 0 1 .38 1.36z"/><g id="arm-2" data-name="arm"><path class="cls-23" d="M427.84 476.27l-5.53 6.38a.82.82 0 0 1-.57.26l-21.26.88a3.12 3.12 0 0 1-3.11-3.12v-.85a3.11 3.11 0 0 1 3.11-3.12h13.72a3.13 3.13 0 0 0 2.55-1.32l1.55-2.06 1.52-2.11z"/><path class="cls-36" d="M426.37 478.67a.29.29 0 0 0 .39-.05l19.33-23.42a.24.24 0 0 0-.06-.35.3.3 0 0 0-.39 0l-19.32 23.42a.24.24 0 0 0 .05.4zM417.58 474a.29.29 0 0 0 .39-.07l10.89-14.19a.23.23 0 0 0-.07-.34.3.3 0 0 0-.39.06l-10.89 14.14a.25.25 0 0 0 .07.4z"/></g></g></svg>