<svg id="Layer_1" data-name="Layer 1" xmlns="http://www.w3.org/2000/svg" xmlns:xlink="http://www.w3.org/1999/xlink" viewBox="0 0 595.28 841.89"><defs><style>.cls-1{opacity:0.8;fill:url(#radial-gradient);}.cls-2,.cls-7{fill:#fff;}.cls-3,.cls-31,.cls-32,.cls-36{fill:#c4c4c4;}.cls-4{fill:#f08113;}.cls-5{fill:#f7c418;}.cls-6{fill:#5fbfba;}.cls-7{stroke:#214390;}.cls-25,.cls-28,.cls-31,.cls-32,.cls-36,.cls-7{stroke-miterlimit:10;}.cls-25,.cls-31,.cls-7{stroke-width:0.25px;}.cls-8{fill:url(#linear-gradient);}.cls-9{fill:url(#linear-gradient-2);}.cls-10{fill:#ebebe9;}.cls-11{fill:url(#linear-gradient-3);}.cls-12{fill:url(#linear-gradient-4);}.cls-13{fill:#41b6a3;}.cls-14{fill:url(#linear-gradient-5);}.cls-15{fill:url(#linear-gradient-6);}.cls-16{fill:url(#linear-gradient-7);}.cls-17{fill:url(#linear-gradient-8);}.cls-18{fill:#4ca9aa;}.cls-19{fill:#5fbfbc;}.cls-20{fill:#fcc12c;}.cls-21{fill:#304080;}.cls-22{fill:#f7d1c9;}.cls-23{fill:#f9dcd4;}.cls-24,.cls-25{fill:#ce6b14;}.cls-25{stroke:#ce6b14;}.cls-25,.cls-28,.cls-31,.cls-32,.cls-36{stroke-linecap:round;}.cls-26{fill:#ededed;}.cls-27{fill:#24284f;}.cls-28{fill:#214390;}.cls-28,.cls-31,.cls-32,.cls-36{stroke:#c4c4c4;}.cls-29{fill:#e0e0e0;}.cls-30{fill:#f8f7f7;}.cls-33{fill:#dbdbdb;}.cls-34{fill:#8d8d8e;}.cls-35{fill:#a9a9a9;}.cls-36{stroke-width:0.5px;}</style><radialGradient id="radial-gradient" cx="286.22" cy="416.64" r="253.44" gradientUnits="userSpaceOnUse"><stop offset="0.5" stop-color="#e0e0e0"/><stop offset="0.6" stop-color="#e0e0e0" stop-opacity="0.99"/><stop offset="0.67" stop-color="#e2e2e2" stop-opacity="0.95"/><stop offset="0.73" stop-color="#e4e4e4" stop-opacity="0.88"/><stop offset="0.78" stop-color="#e7e7e7" stop-opacity="0.78"/><stop offset="0.84" stop-color="#ebebeb" stop-opacity="0.65"/><stop offset="0.89" stop-color="#f0f0f0" stop-opacity="0.49"/><stop offset="0.94" stop-color="#f6f6f6" stop-opacity="0.3"/><stop offset="0.98" stop-color="#fcfcfc" stop-opacity="0.09"/><stop offset="1" stop-color="#fff" stop-opacity="0"/></radialGradient><linearGradient id="linear-gradient" x1="246.85" y1="383.34" x2="338.26" y2="383.34" gradientUnits="userSpaceOnUse"><stop offset="0" stop-color="#ebebe9"/><stop offset="0.22" stop-color="#ebebe9" stop-opacity="0.99"/><stop offset="0.35" stop-color="#eaeae8" stop-opacity="0.95"/><stop offset="0.47" stop-color="#e9e9e8" stop-opacity="0.89"/><stop offset="0.58" stop-color="#e8e8e6" stop-opacity="0.8"/><stop offset="0.67" stop-color="#e6e6e5" stop-opacity="0.68"/><stop offset="0.77" stop-color="#e4e4e3" stop-opacity="0.54"/><stop offset="0.85" stop-color="#e2e2e1" stop-opacity="0.37"/><stop offset="0.93" stop-color="#dfdfde" stop-opacity="0.18"/><stop offset="1" stop-color="#dcdcdc" stop-opacity="0"/></linearGradient><linearGradient id="linear-gradient-2" x1="246.85" y1="390.92" x2="304.49" y2="390.92" xlink:href="#linear-gradient"/><linearGradient id="linear-gradient-3" x1="260.63" y1="414.54" x2="352.04" y2="414.54" xlink:href="#linear-gradient"/><linearGradient id="linear-gradient-4" x1="260.63" y1="422.12" x2="318.27" y2="422.12" xlink:href="#linear-gradient"/><linearGradient id="linear-gradient-5" x1="260.63" y1="463.03" x2="352.04" y2="463.03" xlink:href="#linear-gradient"/><linearGradient id="linear-gradient-6" x1="260.63" y1="470.6" x2="318.27" y2="470.6" xlink:href="#linear-gradient"/><linearGradient id="linear-gradient-7" x1="260.63" y1="438.24" x2="352.04" y2="438.24" xlink:href="#linear-gradient"/><linearGradient id="linear-gradient-8" x1="260.63" y1="445.81" x2="318.27" y2="445.81" xlink:href="#linear-gradient"/></defs><title>Quiz0</title><g id="Quiz"><circle class="cls-1" cx="286.22" cy="416.64" r="253.44"/><rect class="cls-2" x="211.33" y="357.89" width="149.36" height="119.65"/><rect class="cls-3" x="211.33" y="357.89" width="149.36" height="11.55"/><circle class="cls-4" cx="219.91" cy="363.66" r="2.02"/><circle class="cls-5" cx="226.59" cy="363.66" r="2.02"/><circle class="cls-6" cx="233.26" cy="363.66" r="2.02"/><polygon class="cls-2" points="-0.36 602.77 86.41 504.88 112.16 558.1 128.54 514.5 159.65 549.84 206.14 506.94 228.61 535.04 250.07 509.16 254.6 540.29 338.15 483.77 386.58 537.53 470.32 471.53 491.73 526.38 505.46 496.08 512.22 529.93 556.82 468.72 568.98 496.08 586.55 469.95 595.64 474.46 595.64 671.2 0.36 678.69 -0.36 602.77"/><rect class="cls-7" x="201.5" y="369.28" width="167.49" height="31.11"/><rect class="cls-8" x="246.85" y="381.25" width="91.41" height="4.18" rx="2.09"/><rect class="cls-9" x="246.85" y="388.87" width="57.64" height="4.08" rx="2.04"/><circle class="cls-10" cx="249.38" cy="418.3" r="7.03"/><rect class="cls-2" x="248.64" y="413.87" width="1.47" height="8.87" transform="translate(-222.74 298.85) rotate(-45)"/><rect class="cls-2" x="248.64" y="413.87" width="1.47" height="8.87" transform="translate(368.83 -53.82) rotate(45)"/><circle class="cls-10" cx="249.38" cy="442" r="7.03"/><rect class="cls-2" x="248.64" y="437.57" width="1.47" height="8.87" transform="translate(-239.5 305.8) rotate(-45)"/><rect class="cls-2" x="248.64" y="437.57" width="1.47" height="8.87" transform="translate(385.58 -46.88) rotate(45)"/><circle class="cls-10" cx="249.38" cy="466.79" r="7.03"/><rect class="cls-2" x="248.64" y="462.36" width="1.47" height="8.87" transform="translate(-257.03 313.06) rotate(-45)"/><rect class="cls-2" x="248.64" y="462.36" width="1.47" height="8.87" transform="translate(403.11 -39.62) rotate(45)"/><rect class="cls-11" x="260.63" y="412.45" width="91.41" height="4.18" rx="2.09"/><rect class="cls-12" x="260.63" y="420.07" width="57.64" height="4.08" rx="2.04"/><circle class="cls-13" cx="227.85" cy="387.1" r="7.03"/><rect class="cls-2" x="224.49" y="387.08" width="1.47" height="3.7" transform="translate(-209.05 273.17) rotate(-45)"/><rect class="cls-2" x="227.91" y="382.67" width="1.47" height="8.87" transform="translate(340.69 -48.3) rotate(45)"/><rect class="cls-14" x="260.63" y="460.94" width="91.41" height="4.18" rx="2.09"/><rect class="cls-15" x="260.63" y="468.56" width="57.64" height="4.08" rx="2.04"/><rect class="cls-16" x="260.63" y="436.15" width="91.41" height="4.18" rx="2.09"/><rect class="cls-17" x="260.63" y="443.77" width="57.64" height="4.08" rx="2.04"/><path class="cls-3" d="M385.35,377.16V389.8a.6.6,0,0,1-.62.58H369.61a.6.6,0,0,1-.62-.58V377.16a.6.6,0,0,1,.62-.58h15.12A.6.6,0,0,1,385.35,377.16Z"/><path class="cls-3" d="M400.39,390.8V392H384.87a.59.59,0,0,1-.58-.6V375.93l.82,0a15.46,15.46,0,0,1,15.19,13.85C400.34,390.1,400.37,390.45,400.39,390.8Z"/><rect class="cls-3" x="385.35" y="391.52" width="13.97" height="3.33" rx="0.58"/><path class="cls-3" d="M402.46,401.84H382.22a.63.63,0,0,1-.5-.94l3.47-6.29a.55.55,0,0,1,.49-.3H399a.56.56,0,0,1,.5.3L403,400.9A.63.63,0,0,1,402.46,401.84Z"/><polygon class="cls-18" points="387.25 421.8 382.5 417.23 392.39 406.95 397.52 410.73 387.25 421.8"/><path class="cls-19" d="M394.3,412.57l-6.12,6.35a.7.7,0,0,0-1,.06l-1.88-1.81a.69.69,0,0,0,0-1l6.12-6.36a.7.7,0,0,0,1-.05l1.87,1.8A.7.7,0,0,0,394.3,412.57Z"/><ellipse class="cls-18" cx="389.82" cy="414.38" rx="1.4" ry="1.3" transform="translate(-179.06 407.68) rotate(-46.07)"/><polygon class="cls-18" points="383.88 430.65 381.43 436.88 390.83 442.69 393.16 437.69 383.88 430.65"/><path class="cls-19" d="M391.39,437.58l-6.52-5a.61.61,0,0,1-.85.19l-.79,3a.62.62,0,0,1,.27.83l6.44,4.33a.63.63,0,0,1,.85-.2l.88-2.32A.62.62,0,0,1,391.39,437.58Z"/><ellipse class="cls-18" cx="387.33" cy="436.71" rx="1.15" ry="1.26" transform="translate(-183.36 559.41) rotate(-60.56)"/><polygon class="cls-18" points="398.19 451.08 400.64 457.31 391.23 463.12 388.9 458.12 398.19 451.08"/><path class="cls-19" d="M390.67,458l6.52-5a.63.63,0,0,0,.85.2l.79,3a.62.62,0,0,0-.27.83l-6.44,4.33a.61.61,0,0,0-.85-.19l-.87-2.32A.62.62,0,0,0,390.67,458Z"/><ellipse class="cls-18" cx="394.73" cy="457.14" rx="1.26" ry="1.15" transform="translate(-173.71 253.02) rotate(-29.44)"/><polygon class="cls-18" points="390.31 430.13 390.85 423.47 401.85 422.38 401.74 427.9 390.31 430.13"/><path class="cls-19" d="M400.11,427.22,392,428.86a.62.62,0,0,0-.68-.55l.62-3.05a.62.62,0,0,0,.61-.63l7.68-1.05a.63.63,0,0,0,.68.55l-.23,2.46A.63.63,0,0,0,400.11,427.22Z"/><ellipse class="cls-18" cx="396.08" cy="426.21" rx="1.26" ry="1.15" transform="translate(-24.14 23.78) rotate(-3.34)"/><circle class="cls-20" cx="383.18" cy="450.75" r="1.33"/><circle class="cls-20" cx="396.1" cy="438.03" r="1.33"/><circle class="cls-20" cx="385.25" cy="424.89" r="1.33"/><circle class="cls-20" cx="394.84" cy="418.2" r="1.33"/><rect class="cls-21" x="376.44" y="412.84" width="0.81" height="9.93" rx="0.4" transform="translate(261.2 -132.83) rotate(30.19)"/><rect class="cls-21" x="372.39" y="407.3" width="0.81" height="4.86" rx="0.4" transform="translate(481.76 -133.39) rotate(53.64)"/><path class="cls-21" d="M407.52,421.25h0a.36.36,0,0,1-.53-.06l-5.31-6.94a.4.4,0,0,1,.06-.55h0a.38.38,0,0,1,.54.07l5.31,6.94A.38.38,0,0,1,407.52,421.25Z"/><path class="cls-21" d="M409.41,410.36h0a.39.39,0,0,1-.52.15l-3.37-1.87a.4.4,0,0,1-.15-.53h0a.38.38,0,0,1,.52-.16l3.36,1.88A.39.39,0,0,1,409.41,410.36Z"/><circle class="cls-10" cx="216.93" cy="480.36" r="7.03"/><rect class="cls-2" x="216.19" y="475.93" width="1.47" height="8.87" transform="translate(-276.13 294.09) rotate(-45)"/><rect class="cls-2" x="216.19" y="475.93" width="1.47" height="8.87" transform="translate(403.2 -12.7) rotate(45)"/><ellipse class="cls-10" cx="219.54" cy="481.28" rx="5.84" ry="6.27"/><polygon class="cls-2" points="222.58 483.62 221.72 484.54 216.51 478.95 217.37 478.02 222.58 483.62"/><polygon class="cls-2" points="217.37 484.54 216.51 483.62 221.72 478.02 222.58 478.95 217.37 484.54"/><path class="cls-22" d="M180.77,451l3.34,2.88a1.51,1.51,0,0,0,2.35-.5l20.44-42.86a1.52,1.52,0,0,0-.11-1.5L205,406.34a1.52,1.52,0,0,0-2.6.15l-22,42.62A1.51,1.51,0,0,0,180.77,451Z"/><rect class="cls-22" x="175.15" y="527.39" width="8.78" height="46.97"/><polygon class="cls-3" points="175.15 566.14 192.22 582.59 183.68 582.59 179.4 578.15 175.15 582.59 175.15 566.14"/><path class="cls-23" d="M188.72,427.94v10.13a7.1,7.1,0,0,1-5.57,6.94v5.52H175V427.94Z"/><polygon class="cls-4" points="195.6 477.14 199.02 536.74 183.91 536.74 175.67 528.61 164.53 528.63 176.67 477.14 176.67 477.14 172.41 457.74 174.94 448.21 184.12 448.21 199.62 461.53 190.79 477.14 195.6 477.14"/><polygon class="cls-24" points="182.53 477.31 175.67 528.61 164.53 528.61 176.68 477.31 172.42 457.71 182.53 477.31 182.53 477.31"/><path class="cls-23" d="M197.09,487.4,186,471.57l5.56-4.31,8.93,14.67a1.32,1.32,0,0,0,1.14.66l15.92-.15a1.33,1.33,0,0,1,1.26.95l1.07,2.36a1.31,1.31,0,0,1-1.24,1.67l-20.38.62A1.34,1.34,0,0,1,197.09,487.4Z"/><rect class="cls-25" x="189.5" y="459.49" width="0.48" height="8.97" rx="0.24" transform="matrix(0.85, -0.53, 0.53, 0.85, -217.76, 172.06)"/><rect class="cls-25" x="182.74" y="461.27" width="0.48" height="11.98" rx="0.24" transform="translate(-220.55 168.97) rotate(-32.14)"/><polygon class="cls-23" points="143.62 536.74 143.62 528.61 175.67 528.61 183.93 536.74 143.62 536.74"/><polygon class="cls-26" points="151.84 528.61 135.4 545.68 135.4 537.14 139.84 532.86 135.4 528.61 151.84 528.61"/><path class="cls-27" d="M189.26,428.44l-2.49,1.74-.25,4.06-3,1.34-.08,5.07-2.13,1.79h-5.93l-4-7.72a10.83,10.83,0,0,1-.18-2c0-5.75,4.23-10.41,9.44-10.41a9.43,9.43,0,0,1,8.58,6.09Z"/><circle class="cls-27" cx="169.81" cy="421.42" r="4.1"/><rect class="cls-4" x="170.94" y="423.75" width="4.26" height="2.42" transform="translate(-249.8 246.85) rotate(-45)"/><circle class="cls-4" cx="209.49" cy="403.31" r="7.03"/><polygon class="cls-5" points="209.49 399.38 210.37 402.1 213.24 402.1 210.92 403.78 211.8 406.5 209.49 404.82 207.17 406.5 208.06 403.78 205.74 402.1 208.6 402.1 209.49 399.38"/><path class="cls-22" d="M200.21,412.94l2.36,2.09c.54.47,1.42,0,1.78-.91l1.65-5.78a1.67,1.67,0,0,0,0-1.39l-1.2-2.15c-.44-.78-1.51-.43-1.95.63l-2.8,5.85A1.5,1.5,0,0,0,200.21,412.94Z"/><line class="cls-28" x1="390.89" y1="582.59" x2="450.89" y2="582.59"/><line class="cls-28" x1="378.08" y1="582.59" x2="385.68" y2="582.59"/><line class="cls-28" x1="323.98" y1="582.59" x2="355.33" y2="582.59"/><line class="cls-28" x1="317.28" y1="582.59" x2="321.26" y2="582.59"/><line class="cls-28" x1="152.04" y1="582.59" x2="159.65" y2="582.59"/><line class="cls-28" x1="163.78" y1="582.59" x2="202.94" y2="582.59"/><polygon class="cls-26" points="269.37 569.03 276.25 560.77 285.62 535.42 285.62 515.81 282.75 507.92 275.49 514.8 268.61 529.72 266.7 569.03 269.37 569.03"/><path class="cls-29" d="M255.8,521.88c-.57.76-5.73,10.9-5.73,10.9l4.78,5.75-3.06,7.83,7.83,9.08-.95,8.49,7.65,5.15,5.73-7.92-3.25-9.55.76-6.43L263.83,538l1.53-5.17Z"/><polygon class="cls-30" points="268.71 506.32 267.26 506.32 266.15 566.65 269.71 566.65 268.71 506.32"/><polygon class="cls-30" points="269.71 566.65 270.55 566.65 280.24 519.93 279.63 520.03 269.71 566.65"/><polygon class="cls-30" points="266.78 567.39 266.12 567.42 255.45 527.83 255.94 527.9 266.78 567.39"/><polygon class="cls-30" points="268.94 561.77 259.2 560.91 253.11 553.08 262.25 553.08 268.94 561.77"/><polygon class="cls-30" points="269.39 549.4 259.65 548.53 254.6 541.73 263.04 542.28 269.39 549.4"/><polygon class="cls-30" points="268.39 538.5 261.22 537.85 256.97 532.12 263.85 532.56 268.39 538.5"/><polygon class="cls-30" points="267.76 528.65 262.02 528.01 258.46 523.21 265.34 523.66 267.76 528.65"/><polygon class="cls-30" points="268.02 520.23 263.12 519.98 259.64 515.88 264.62 516.21 268.02 520.23"/><polygon class="cls-30" points="268 513.28 263.9 512.56 262.09 507.92 267.21 509.74 268 513.28"/><polygon class="cls-30" points="266.75 559.54 276.49 558.72 282.58 551.28 273.44 551.28 266.75 559.54"/><polygon class="cls-30" points="266.29 547.78 276.04 546.96 281.08 540.5 272.65 541.02 266.29 547.78"/><polygon class="cls-30" points="267.3 537.43 274.47 536.81 278.72 531.37 271.84 531.79 267.3 537.43"/><polygon class="cls-30" points="267.93 528.07 273.66 527.47 277.22 522.91 270.35 523.33 267.93 528.07"/><polygon class="cls-30" points="267.67 520.08 272.57 519.84 276.05 515.94 271.07 516.25 267.67 520.08"/><polygon class="cls-30" points="267.69 513.47 271.79 512.79 273.6 508.38 268.48 510.11 267.69 513.47"/><polygon class="cls-30" points="267.76 507.92 264.85 503.27 266.9 497.52 270.19 503.35 267.76 507.92"/><polygon class="cls-26" points="274.82 582.2 261.13 582.2 258.3 566.65 277.39 566.65 274.82 582.2"/><polygon class="cls-3" points="264.25 582.2 261.13 582.2 258.3 566.65 262.15 566.65 264.25 582.2"/><polygon class="cls-26" points="340.5 575.59 337.58 575.59 342.93 545.17 350.06 541.52 350.06 533.85 362.64 528.74 362.64 544.07 356.56 550.77 357.17 558.07 349.02 563.05 340.5 575.59"/><line class="cls-31" x1="357.39" y1="536.9" x2="341.23" y2="569.3"/><path class="cls-29" d="M341.23,575.29l-2.46.42-4.07-6.09-3.5-5.33s-8-5.17-7.52-5.5,1.37-6.65.95-6.95-4.66-3.9-4.66-3.9l2.93-9.88,8.92,6.75Z"/><line class="cls-31" x1="325.1" y1="544.66" x2="336.86" y2="568.21"/><polygon class="cls-30" points="337.91 535.68 334.5 541.16 332.43 552.72 333.6 563.68 333.89 570.49 337.3 578.15 342.04 571.7 343.87 554.29 342.29 545.78 341.92 541.16 337.91 535.68"/><line class="cls-31" x1="338.15" y1="545.54" x2="338.15" y2="574.86"/><line class="cls-31" x1="338.15" y1="538.97" x2="338.15" y2="543.11"/><polygon class="cls-26" points="342.05 582.59 334.13 582.59 332.45 573.71 343.85 573.71 342.05 582.59"/><polygon class="cls-3" points="336.32 582.59 334.13 582.59 332.45 573.71 334.77 573.71 336.32 582.59"/><path class="cls-2" d="M209.46,306.69h84.83l9.06-9.6-13.75-10.9-17.86-12.47s-2.47,8-2.51,6.35-19.05-14.38-19.05-14.38l-13.46,11.42-2.92,7.18-12.2-5.49-9.69,7.39Z"/><path class="cls-2" d="M374.05,336h42.41l4.54-4.8-6.88-5.45-8.93-6.23s-1.24,4-1.25,3.17-9.53-7.19-9.53-7.19l-6.73,5.71-1.46,3.59-6.1-2.75-4.85,3.7Z"/><path class="cls-2" d="M468.72,383.7H501l3.44-3.64-5.23-4.14-6.78-4.74s-.94,3.05-.95,2.41-7.24-5.46-7.24-5.46l-5.12,4.34L478,375.19l-4.63-2.09-3.69,2.81Z"/><path class="cls-2" d="M56.79,353.81h44l4.7-6.58-7.14-7.47-9.26-8.54s-1.29,5.5-1.3,4.34-9.88-9.85-9.88-9.85l-7,7.82-1.52,4.93-6.32-3.77-5,5.07Z"/><line class="cls-32" x1="232.5" y1="582.59" x2="308.26" y2="582.59"/><line class="cls-32" x1="216.33" y1="582.59" x2="225.93" y2="582.59"/><g id="arm"><path class="cls-22" d="M424,472.54l-5.55,6.36a.82.82,0,0,1-.57.26l-21.26.82a3.13,3.13,0,0,1-3.11-3.13V476a3.12,3.12,0,0,1,3.13-3.11l13.72,0a3.15,3.15,0,0,0,2.55-1.31l1.56-2.06L417.1,466Z"/></g><polygon class="cls-33" points="394.62 481.85 380.31 476.48 380.31 467.44 394.48 470.78 394.62 481.85"/><polygon class="cls-33" points="402.08 483.8 394.62 479.87 394.19 470.71 402.42 474.76 402.08 483.8"/><polygon class="cls-18" points="389.87 480.51 385.59 474.25 398.96 470.17 401.55 476.5 389.87 480.51"/><path class="cls-19" d="M399.29,475.25l-8.51,2.65a.62.62,0,0,0-.89.05l-2.31-2a.63.63,0,0,0,0-.89l9.11-2.33a.65.65,0,0,0,.9-.05l1.7,1.64A.63.63,0,0,0,399.29,475.25Z"/><ellipse class="cls-18" cx="393.83" cy="475.11" rx="1.28" ry="1.19" transform="translate(-221.57 429.16) rotate(-46.07)"/><polygon class="cls-2" points="387.57 483.74 380.31 476.48 380.31 467.44 387.57 474.85 387.57 483.74"/><polygon class="cls-2" points="402.08 483.8 387.57 483.8 387.57 474.76 402.42 474.76 402.08 483.8"/><g id="Pants"><polygon class="cls-24" points="424.4 569.66 413.44 569.66 417.08 489.22 432.95 489.22 424.4 569.66"/><polygon class="cls-4" points="434.82 569.66 445.77 569.66 445.77 489.22 431.1 489.22 434.82 569.66"/></g><g id="Shoe"><polygon class="cls-3" points="424.39 578.88 402.48 578.88 413.44 569.66 424.39 569.66 424.39 578.88"/><path class="cls-31" d="M415,574.11h0a.28.28,0,0,1-.4,0l-3.31-3.19a.27.27,0,0,1,0-.39h0a.32.32,0,0,1,.41,0l3.3,3.19A.27.27,0,0,1,415,574.11Z"/><path class="cls-31" d="M412.92,575.24h0a.28.28,0,0,1-.4,0l-2.86-2.75a.27.27,0,0,1,0-.39h0a.28.28,0,0,1,.4,0l2.86,2.75A.27.27,0,0,1,412.92,575.24Z"/><path class="cls-31" d="M411,576.21h0a.3.3,0,0,1-.4,0l-2.4-2.32a.27.27,0,0,1,0-.39h0a.32.32,0,0,1,.41,0l2.39,2.32A.27.27,0,0,1,411,576.21Z"/><rect class="cls-34" x="402.48" y="578.88" width="21.91" height="2.86"/></g><polygon class="cls-26" points="445.77 578.88 424.35 578.88 435.06 569.66 445.77 569.66 445.77 578.88"/><path class="cls-31" d="M436.58,574.11h0a.28.28,0,0,1-.4,0L433,570.92a.27.27,0,0,1,0-.39h0a.3.3,0,0,1,.4,0l3.23,3.19A.27.27,0,0,1,436.58,574.11Z"/><path class="cls-31" d="M434.55,575.24h0a.27.27,0,0,1-.39,0l-2.79-2.75a.27.27,0,0,1,0-.39h0a.27.27,0,0,1,.39,0l2.79,2.75A.27.27,0,0,1,434.55,575.24Z"/><path class="cls-31" d="M432.68,576.21h0a.3.3,0,0,1-.4,0l-2.34-2.32a.27.27,0,0,1,0-.39h0a.29.29,0,0,1,.39,0l2.35,2.32A.27.27,0,0,1,432.68,576.21Z"/><rect class="cls-35" x="424.35" y="578.88" width="21.43" height="2.86"/><g id="HEAD"><rect class="cls-23" x="427.84" y="430.86" width="9.91" height="9.91"/><path class="cls-23" d="M421.57,415.94H436.7a1.06,1.06,0,0,1,1.06,1.06v13.43a1.06,1.06,0,0,1-1.06,1.06h-7a8.11,8.11,0,0,1-8.11-8.11v-7.44A0,0,0,0,1,421.57,415.94Z"/><path class="cls-27" d="M440.74,416.83l.29,7.77a1.49,1.49,0,0,1-.07.47l-1.62,5a1.3,1.3,0,0,1-2.06.61l-.62-.5a1.32,1.32,0,0,1-.49-1V424a1.32,1.32,0,0,0-.86-1.25l-1.63-.59a1.31,1.31,0,0,1-.85-1.15l-.2-2.94a1.32,1.32,0,0,0-1.31-1.23h-8.11a2.08,2.08,0,0,1-2-2.12V412a5.91,5.91,0,0,1,5.78-6l7.78.62a1.27,1.27,0,0,1,1,.7l5,9.57Z"/></g><path class="cls-2" d="M448.38,450.29,446,490a1.9,1.9,0,0,1-1.86,1.83l-25.2.21a1.91,1.91,0,0,1-1.86-2l.76-37.95a2,2,0,0,1,.61-1.4l8.13-11.59a1.83,1.83,0,0,1,.79-.45l9.2-2.49a1.82,1.82,0,0,1,1.91.66L448,448.93A2.07,2.07,0,0,1,448.38,450.29Z"/><g id="arm-2" data-name="arm"><path class="cls-23" d="M427.84,476.27l-5.53,6.38a.82.82,0,0,1-.57.26l-21.26.88a3.12,3.12,0,0,1-3.11-3.12v-.85a3.11,3.11,0,0,1,3.11-3.12H414.2a3.13,3.13,0,0,0,2.55-1.32l1.55-2.06,1.52-2.11Z"/><path class="cls-36" d="M426.37,478.67h0a.29.29,0,0,0,.39-.05l19.33-23.42a.24.24,0,0,0-.06-.35h0a.3.3,0,0,0-.39,0l-19.32,23.42A.24.24,0,0,0,426.37,478.67Z"/><path class="cls-36" d="M417.58,474h0a.29.29,0,0,0,.39-.07l10.89-14.19a.23.23,0,0,0-.07-.34h0a.3.3,0,0,0-.39.06L417.51,473.6A.25.25,0,0,0,417.58,474Z"/></g></g></svg>