<svg width="292" height="244" fill="none" xmlns="http://www.w3.org/2000/svg"><path opacity=".8" d="M143.749 238.444c65.756 0 119.062-53.306 119.062-119.062S209.505.32 143.749.32 24.687 53.626 24.687 119.382 77.993 238.444 143.75 238.444z" fill="url(#paint0_radial)"/><path d="M5.553 207.593l40.763-45.982 12.097 25.002 7.695-20.483 14.615 16.602 21.84-20.154 10.556 13.201 10.082-12.158 2.128 14.625 39.25-26.552 22.752 25.255 39.339-31.006 10.058 25.768 6.451-14.234 3.175 15.897 20.953-28.751 5.712 12.854 8.254-12.276 10.162 2.889v92.421L0 243.32l5.553-35.727z" fill="#fff"/><path d="M52.465 194.031h6.981M63.233 194.031h35.962" stroke="#C4C4C4" stroke-miterlimit="10" stroke-linecap="round"/><path d="M105.485 78.431h39.852l4.261-4.51-6.464-5.116-8.386-5.858s-1.165 3.758-1.179 2.978c-.014-.78-8.926-6.75-8.926-6.75l-6.328 5.355-1.377 3.378-5.731-2.584-4.552 3.476-1.17 9.631zM196.623 69.815h19.919l2.128-2.255-3.232-2.56-4.195-2.927s-.578 1.88-.588 1.49c-.009-.39-4.477-3.378-4.477-3.378l-3.161 2.682-.686 1.691-2.866-1.292L197.191 65l-.568 4.815zM232.007 99.764h15.141l1.621-1.715-2.457-1.945-3.18-2.227s-.447 1.41-.47 1.133c-.024-.278-3.401-2.565-3.401-2.565l-2.401 2.034-.522 1.282-2.179-.977-1.729 1.316-.423 3.664zM29.582 102.31h20.67l2.213-3.086-3.354-3.514-4.35-4.017s-.606 2.588-.61 2.044c-.005-.545-4.647-4.628-4.647-4.628l-3.288 3.674-.715 2.316-2.973-1.771-2.35 2.382-.596 6.6z" fill="#fff"/><path d="M194.359 109.037h-39.425v69.627h39.425v-69.627z" fill="#EDEDED"/><path d="M181.67 113.848h-14.042c-5.589 0-10.119 4.53-10.119 10.119v41.919c0 5.588 4.53 10.119 10.119 10.119h14.042c5.589 0 10.119-4.531 10.119-10.119v-41.919c0-5.589-4.53-10.119-10.119-10.119z" fill="#F9F7F9"/><path d="M182.243 163.706l-14.803.277-.601-32.011 14.14-2.142 1.264 33.876z" fill="#41B6A3"/><path d="M178.771 137.854l.371 19.806a1.552 1.552 0 0 0-1.075.517 1.564 1.564 0 0 0-.395 1.127l-5.839.113a1.567 1.567 0 0 0-.936-1.463 1.569 1.569 0 0 0-.596-.13l-.371-19.806a1.547 1.547 0 0 0 1.077-.519 1.563 1.563 0 0 0 .393-1.13l5.84-.108a1.562 1.562 0 0 0 1.531 1.593z" fill="#6EC2B5"/><path d="M174.915 150.81c1.613-.032 2.894-1.467 2.859-3.206-.035-1.738-1.371-3.121-2.985-3.089-1.614.033-2.894 1.468-2.859 3.206.034 1.739 1.371 3.122 2.985 3.089z" fill="#41B6A3"/><path d="M171.034 143.538h-46.095v36.7h46.095v-36.7z" fill="#D1CFCF"/><path d="M135.603 143.411l-10.664 6.159v-3.603l4.421-2.556h6.243zM150.03 143.411l-25.091 14.488v-3.603l18.852-10.885h6.239zM164.457 143.411l-39.518 22.822v-3.607l33.279-19.215h6.239zM171.034 145.37v2.579l-46.095 26.614v-3.608l45.649-26.355.446.77zM171.034 152.675v3.604l-41.285 23.836-4.81-.831 46.095-26.609zM171.034 161.005v3.603l-26.858 15.507h-6.243l33.101-19.11zM171.034 169.334v3.603l-12.43 7.178h-6.244l18.674-10.781zM171.034 177.663v2.452h-4.242l4.242-2.452z" fill="#D8D8D8"/><path d="M163.452 114.069c-3.054-3.049-6.643-1.583-11.684 2.349-5.041 3.932-7.324 9.456-5.092 12.303 2.231 2.847 8.033-1.879 12.707-5.52 4.928-3.814 7.489-5.712 4.069-9.132zm-6.676 7.775c-2.166 1.681-4.862 3.88-5.896 2.56-1.033-1.32.024-3.876 2.349-5.708 2.326-1.832 4.003-2.513 5.417-1.099 1.602 1.592.394 2.471-1.87 4.247z" fill="url(#paint1_linear)"/><path d="M141.452 113.632c-5.116-3.406-8.09-3.289-9.899 1.216-1.606 4.003 1.151 6.732 6.761 9.824 5.609 3.091 10.269 4.932 11.119 1.409 1.33-5.497-7.981-12.449-7.981-12.449zm3.039 8.879c-.324 1.338-2.1.638-4.228-.541-2.128-1.179-3.185-2.212-2.574-3.734.69-1.71 1.822-1.762 3.758-.47.005.004 3.547 2.668 3.03 4.745h.014z" fill="url(#paint2_linear)"/><path d="M175.736 123.549h-55.829v22.404h55.829v-22.404z" fill="#D3D3D3"/><path d="M133.902 123.68s-1.174 4.144-1.174 5.239c0 .234 9.461-.108 15.094-4.745 1.095-2.819-6.131-.94-6.131-.94" fill="url(#paint3_linear)"/><path d="M171.156 124.315l2.664 2.583c.005.005.009.01.012.016a.065.065 0 0 1 .004.02.065.065 0 0 1-.004.019.061.061 0 0 1-.012.016 17.286 17.286 0 0 1-14.564-.024c-7.07-3.359-12.707-1.71-13.417-1.348-.037 0 .898-2.819 1.208-2.861 1.639-.277 8.672-.742 15.179 2.288 5.195 2.415 8.54-.399 8.888-.714.007-.003.014-.004.022-.003.007 0 .014.003.02.008z" fill="url(#paint4_linear)"/><path d="M151.538 122.619h-7.155v57.492h7.155v-57.492z" fill="#E2E2E1"/><path d="M132.732 159.008h-20.759a.767.767 0 0 0-.766.672c-.043.412-.065.826-.066 1.24a11.278 11.278 0 0 0 5.689 9.819c.329.191.67.362 1.02.512l.103.042c1.376.588 2.858.89 4.355.888a11.248 11.248 0 0 0 11.209-11.275c0-.413-.022-.825-.066-1.236a.763.763 0 0 0-.719-.662zm-1.47 2.203a10.426 10.426 0 0 1-1.705 5.76l-.146.211a8.55 8.55 0 0 1-14.309 0l-.198-.296a10.378 10.378 0 0 1-1.653-5.675v-.061a.768.768 0 0 1 .784-.751h16.443a.77.77 0 0 1 .542.213.76.76 0 0 1 .233.534l.009.065z" fill="#EEB208"/><path d="M133.306 158.876h-21.944a.817.817 0 0 0-.813.738c-.047.451-.07.904-.07 1.358a12.433 12.433 0 0 0 6.018 10.753h.023c.348.207.707.393 1.076.559l.108.047c1.454.642 3.025.973 4.613.972 6.549 0 11.858-5.534 11.858-12.355 0-.453-.024-.906-.071-1.357a.822.822 0 0 0-.798-.715zm-1.555 2.429a11.7 11.7 0 0 1-1.8 6.305l-.155.235a8.87 8.87 0 0 1-3.233 3.104 8.875 8.875 0 0 1-8.675 0 8.885 8.885 0 0 1-3.233-3.104l-.211-.325a11.707 11.707 0 0 1-1.748-6.215v-.066a.826.826 0 0 1 .827-.826h17.41a.817.817 0 0 1 .818.817v.075z" fill="#F7C418"/><path d="M130.092 158.069v7.234a7.9 7.9 0 0 1-4.834 7.479 7.91 7.91 0 0 1-10.429-4.394 7.918 7.918 0 0 1-.545-3.085v-7.234h15.808z" fill="#F7C418"/><path d="M130.092 160.976l-15.808-2.898h15.808v2.898z" fill="#EEB208"/><path d="M113.871 156.354h16.639c.143 0 .279.056.379.157.101.1.157.236.157.378v.113a1.066 1.066 0 0 1-1.066 1.066h-15.569a1.066 1.066 0 0 1-1.066-1.066v-.113a.534.534 0 0 1 .535-.535h-.009zM124.638 172.876h-4.561a.39.39 0 0 0-.39.39v.052c0 .215.174.39.39.39h4.561a.39.39 0 0 0 .39-.39v-.052a.39.39 0 0 0-.39-.39z" fill="#F7C418"/><path d="M123.332 173.585h-1.945c-.381 0-.69.31-.69.691v4.806c0 .381.309.69.69.69h1.945a.69.69 0 0 0 .691-.69v-4.806a.691.691 0 0 0-.691-.691z" fill="#F7C418"/><path d="M122.36 178.946a2.443 2.443 0 1 0 0-4.887 2.443 2.443 0 0 0 0 4.887z" fill="#F7C418"/><path d="M128.528 180.397h-12.341v6.385h12.341v-6.385zM130.257 186.782h-15.794v1.273h15.794v-1.273z" fill="#9C9B9B"/><path d="M126.461 179.613h-8.202v.639h8.202v-.639z" fill="#CDCCCC"/><path d="M128.528 180.252h-12.341v.145h12.341v-.145z" fill="#9C9B9B"/><path d="M126.931 181.534h-9.142v4.111h9.142v-4.111z" fill="#EDEDED"/><path d="M124.596 185.64h-1.776l-4.111-4.106h1.781l4.106 4.106z" fill="#fff"/><path d="M122.36 162.597l.714 2.194h2.302l-1.865 1.358.714 2.194-1.865-1.358-1.865 1.358.709-2.194-1.865-1.358h2.307l.714-2.194z" fill="#EEB208"/><path d="M173.242 98.763s-9.551 3.918-9.555 3.928l-2.589 2.569.47 3.979c0 .038 23.884 0 23.884 0s2.593-.061 2.555-.098l-9.865-8.818s-4.881-1.57-4.9-1.56z" fill="#fff"/><path d="M159.365 98.453s2.973 8.287 6.943 3.97c.47 1.221 1.109 2.739 1.747 2.818.639.08 2.1-.939 2.453-1.343.352-.404.639-2.218.639-2.683a5.4 5.4 0 0 1-3.904-2.743c.113-.174.939-2.448-.061-2.683-1.001-.234-2.857-1.69-2.857-1.69l-4.669 1.925-.291 2.429z" fill="#F9DCD4"/><path d="M163.738 95.48l-2.09 2.16-.047.047-1.936 1.41a.335.335 0 0 1-.145.06c-.414.067-2.237.24-2.688-1.587a4.7 4.7 0 0 1 .099-3.016.385.385 0 0 1 .193-.193l3.565-1.574a.28.28 0 0 1 .151-.028l3.467.15a.266.266 0 0 0 .103 0l1.254-.352a.34.34 0 0 1 .32.085l1.113 1.02c.062.059.105.136.122.22l.428 2.039a.386.386 0 0 1-.097.373.383.383 0 0 1-.373.097.352.352 0 0 0-.413.14l-.705 1.034a.34.34 0 0 1-.298.174.343.343 0 0 1-.299-.174l-1.165-2.03a.345.345 0 0 0-.426-.15.346.346 0 0 0-.133.094z" fill="#22294A"/><path d="M185.419 111.541l-.644.066a1.54 1.54 0 0 1-.714-.099l-1.254-.469a.688.688 0 0 1-.447-.653v-1.292a.718.718 0 0 1 .113-.39l.85-1.287a.706.706 0 0 1 .588-.315h1.489a.686.686 0 0 1 .498.211l.174.179a.693.693 0 0 1 .098.855l-.329.545a.712.712 0 0 0-.089.512l.282 1.31a.708.708 0 0 1-.342.739.696.696 0 0 1-.273.088zM164.678 111.358l-.644.066a1.54 1.54 0 0 1-.714-.099l-1.259-.47a.696.696 0 0 1-.446-.653v-1.292c0-.138.041-.274.117-.39l.85-1.287a.693.693 0 0 1 .583-.315h1.489a.69.69 0 0 1 .503.212l.174.178a.698.698 0 0 1 .098.855l-.333.545a.702.702 0 0 0-.085.512l.282 1.311a.712.712 0 0 1-.128.547.71.71 0 0 1-.487.28z" fill="#F9DCD4"/><path d="M97.536 130.539l-.723 2.048a.76.76 0 0 0 .33.892c.098.059.209.095.323.104l10.603 1.588 10.476.564a.74.74 0 0 0 .672-.324l.888-1.287a.756.756 0 0 0 .066-.738.746.746 0 0 0-.602-.432l-10.941-1.015-10.312-1.879a.74.74 0 0 0-.78.479zM94.625 168.038l-3.613-2.388-12.778 19.334 3.614 2.388 12.777-19.334z" fill="#F7D1C9"/><path d="M80.488 181.605l2.55 11.411-3.513-2.326-.555-2.987-2.96.671 4.478-6.769z" fill="#C4C4C4"/><path d="M108.05 172.073l-3.138 4.261-12.727-9.386-.14-6.671 16.005 11.796z" fill="#F9DCD4"/><path d="M97.687 186.519l-3.28-2.312 7.855-10.988 5.624-1.019-10.2 14.319z" fill="#F9DCD4"/><path d="M96.902 180.75l1.903 11.538-3.378-2.518-.385-3.021-2.988.503 4.848-6.502z" fill="#EDEDED"/><path d="M103.869 119.349l-.77 4.937a3.502 3.502 0 0 1-3.247 2.955l-.418 2.692-3.993-.625 1.724-11.011 6.704 1.052z" fill="#F9DCD4"/><path d="M100.595 173.158l-7.367-1.151-3.396-4.59-5.435-.841 9.846-24.17-.596-9.781 1.963-4.449 4.473.7 6.539 7.672-4.256 5.712-1.771 30.898z" fill="#F08113"/><path d="M104.076 119.636l-1.349.657-.432 1.959-1.545.428-.428 2.466-1.174.705-2.89-.47-1.362-4.064c-.008-.33.014-.66.066-.986.437-2.819 2.856-4.75 5.393-4.35a4.64 4.64 0 0 1 3.716 3.622l.005.033zM95.15 116.746a2.02 2.02 0 1 0 0-4.04 2.02 2.02 0 0 0 0 4.04z" fill="#22294A"/><path d="M96.974 115.589l-1.7 1.24.703.964 1.7-1.24-.703-.964z" fill="#F08113"/><path d="M101.638 135.848l-.668 2.057a.733.733 0 0 0 .049.63.72.72 0 0 0 .525.352l3.941 1.278 11.359.287a.67.67 0 0 0 .602-.324l.817-1.297a.745.745 0 0 0 .076-.706.74.74 0 0 0-.546-.454l-11.862-.837-3.561-1.465a.691.691 0 0 0-.732.479z" fill="#F9DCD4"/><path d="M97.104 142.904l-7.253 24.485-5.431-.855 9.833-24.076-.583-9.871 3.434 10.317z" fill="#CE6B14"/><path d="M98.714 133.767l-.005.013a.113.113 0 0 0 .058.148l3.858 1.661a.113.113 0 0 0 .148-.059l.006-.013a.113.113 0 0 0-.059-.148l-3.858-1.661a.113.113 0 0 0-.148.059zM96.201 136.699l-.005.013a.113.113 0 0 0 .059.148l5.221 2.247a.111.111 0 0 0 .148-.059l.006-.013a.113.113 0 0 0-.059-.148l-5.221-2.247a.113.113 0 0 0-.148.059z" fill="#42398E"/><path d="M184.47 194.031h6.981M195.237 194.031h35.962" stroke="#C4C4C4" stroke-miterlimit="10" stroke-linecap="round"/><path d="M213.939 187.571l3.232-3.88 4.397-11.909v-9.213l-1.343-3.706-3.415 3.236-3.233 7.01-.897 18.462h1.259z" fill="#EDEDED"/><path d="M207.56 165.421c-.268.361-2.692 5.125-2.692 5.125l2.245 2.697-1.437 3.683 3.683 4.265-.47 3.989 3.613 2.433 2.692-3.72-1.527-4.487.361-3.016-2.696-3.401.719-2.424-4.491-5.144z" fill="#E0E0E0"/><path d="M213.625 158.111h-.682l-.521 28.342h1.672l-.469-28.342z" fill="#DBDBDB"/><path d="M214.094 186.453h.395l4.552-21.948-.287.047-4.66 21.901zM212.718 186.8l-.31.014-5.013-18.594.23.029 5.093 18.551z" fill="#DBDBDB"/><path d="M213.737 184.165l-4.58-.409-2.861-3.678h4.294l3.147 4.087zM213.949 178.349l-4.581-.404L207 174.75l3.961.254 2.988 3.345zM213.479 173.228l-3.373-.3-1.997-2.697 3.232.212 2.138 2.785zM213.183 168.601l-2.697-.296-1.672-2.255 3.227.207 1.142 2.344zM213.305 164.65l-2.307-.117-1.63-1.926 2.335.15 1.602 1.893zM213.291 161.385l-1.926-.338-.85-2.18 2.405.85.371 1.668z" fill="#DBDBDB"/><path d="M212.704 183.113l4.575-.386 2.861-3.495h-4.293l-3.143 3.881zM212.492 177.593l4.576-.386 2.372-3.039-3.965.244-2.983 3.181zM212.962 172.726l3.368-.287 1.997-2.56-3.232.202-2.133 2.645zM213.258 168.333l2.697-.286 1.667-2.142-3.227.202-1.137 2.226zM213.136 164.575l2.307-.113 1.63-1.827-2.34.145-1.597 1.795zM213.145 161.474l1.926-.319.851-2.072-2.406.808-.371 1.583zM213.183 158.867l-1.372-2.184.963-2.702 1.546 2.739-1.137 2.147z" fill="#DBDBDB"/><path d="M216.495 193.763h-6.431l-1.325-7.31h8.963l-1.207 7.31z" fill="#EDEDED"/><path d="M211.529 193.763h-1.465l-1.325-7.31h1.804l.986 7.31z" fill="#C4C4C4"/><path d="M144.731 194.031h3.631M150.331 194.031h18.702" stroke="#C4C4C4" stroke-miterlimit="10" stroke-linecap="round"/><path d="M159.303 190.474h-1.371l2.513-14.291 3.35-1.714v-3.599l5.909-2.401v7.202l-2.856 3.143.287 3.43-3.834 2.344-3.998 5.886z" fill="#EDEDED"/><path d="M167.238 172.298l-7.592 15.221" stroke="#C4C4C4" stroke-width=".25" stroke-miterlimit="10" stroke-linecap="round"/><path d="M159.646 190.338l-1.155.197-1.912-2.865-1.645-2.504s-3.758-2.429-3.532-2.584c.225-.155.643-3.124.446-3.265-.197-.141-2.189-1.832-2.189-1.832l1.372-4.642 4.195 3.171 4.42 14.324z" fill="#EFEFEF"/><path d="M152.069 175.944l5.525 11.063" stroke="#C4C4C4" stroke-width=".25" stroke-miterlimit="10" stroke-linecap="round"/><path d="M158.082 171.725l-1.597 2.574-.973 5.431.55 5.149.136 3.199 1.602 3.599 2.227-3.03.86-8.179-.743-3.998-.173-2.171-1.889-2.574z" fill="#F8F7F7"/><path d="M158.199 176.357v13.774M158.199 173.271v1.945" stroke="#C4C4C4" stroke-width=".25" stroke-miterlimit="10" stroke-linecap="round"/><path d="M160.032 193.763h-3.721l-.789-4.172h5.355l-.845 4.172z" fill="#EDEDED"/><path d="M157.34 193.763h-1.029l-.789-4.172h1.09l.728 4.172z" fill="#C4C4C4"/><defs><radialGradient id="paint0_radial" cx="0" cy="0" r="1" gradientUnits="userSpaceOnUse" gradientTransform="translate(143.749 119.382) scale(119.062)"><stop offset=".5" stop-color="#E0E0E0"/><stop offset=".6" stop-color="#E0E0E0" stop-opacity=".99"/><stop offset=".67" stop-color="#E2E2E2" stop-opacity=".95"/><stop offset=".73" stop-color="#E4E4E4" stop-opacity=".88"/><stop offset=".78" stop-color="#E7E7E7" stop-opacity=".78"/><stop offset=".84" stop-color="#EBEBEB" stop-opacity=".65"/><stop offset=".89" stop-color="#F0F0F0" stop-opacity=".49"/><stop offset=".94" stop-color="#F6F6F6" stop-opacity=".3"/><stop offset=".98" stop-color="#FCFCFC" stop-opacity=".09"/><stop offset="1" stop-color="#fff" stop-opacity="0"/></radialGradient><linearGradient id="paint1_linear" x1="145.821" y1="121.026" x2="165.016" y2="121.026" gradientUnits="userSpaceOnUse"><stop stop-color="#EDEDED"/><stop offset=".13" stop-color="#DCDCDC"/><stop offset=".29" stop-color="#D0CFCF"/><stop offset=".51" stop-color="#C9C8C8"/><stop offset="1" stop-color="#C7C6C6"/></linearGradient><linearGradient id="paint2_linear" x1="5084.64" y1="6878.38" x2="5741.98" y2="7367.16" gradientUnits="userSpaceOnUse"><stop stop-color="#EDEDED"/><stop offset=".13" stop-color="#DCDCDC"/><stop offset=".29" stop-color="#D0CFCF"/><stop offset=".51" stop-color="#C9C8C8"/><stop offset="1" stop-color="#C7C6C6"/></linearGradient><linearGradient id="paint3_linear" x1="4640.24" y1="2891.4" x2="4482.28" y2="2672.99" gradientUnits="userSpaceOnUse"><stop stop-color="#EDEDED"/><stop offset=".13" stop-color="#DCDCDC"/><stop offset=".29" stop-color="#D0CFCF"/><stop offset=".51" stop-color="#C9C8C8"/><stop offset="1" stop-color="#C7C6C6"/></linearGradient><linearGradient id="paint4_linear" x1="8484.83" y1="2710.4" x2="10154.6" y2="2710.4" gradientUnits="userSpaceOnUse"><stop stop-color="#EDEDED"/><stop offset=".13" stop-color="#DCDCDC"/><stop offset=".29" stop-color="#D0CFCF"/><stop offset=".51" stop-color="#C9C8C8"/><stop offset="1" stop-color="#C7C6C6"/></linearGradient></defs></svg>