<svg id="Layer_1" data-name="Layer 1" xmlns="http://www.w3.org/2000/svg" xmlns:xlink="http://www.w3.org/1999/xlink" viewBox="0 0 595.28 841.89"><defs><style>.cls-1{opacity:0.8;fill:url(#radial-gradient);}.cls-2{fill:#fff;}.cls-23,.cls-29,.cls-3{fill:#c4c4c4;}.cls-29,.cls-3{stroke:#c4c4c4;stroke-linecap:round;stroke-miterlimit:10;}.cls-4{fill:#ededed;}.cls-5{fill:#f9f7f9;}.cls-6{fill:#41b6a3;}.cls-7{fill:#6ec2b5;}.cls-8{fill:#d1cfcf;}.cls-9{fill:#d8d8d8;}.cls-10{fill:url(#linear-gradient);}.cls-11{fill:url(#linear-gradient-2);}.cls-12{fill:#d3d3d3;}.cls-13{fill:url(#linear-gradient-3);}.cls-14{fill:url(#linear-gradient-4);}.cls-15{fill:#e2e2e1;}.cls-16{fill:#eeb208;}.cls-17{fill:#f7c418;}.cls-18{fill:#9c9b9b;}.cls-19{fill:#cdcccc;}.cls-20{fill:#f9dcd4;}.cls-21{fill:#22294a;}.cls-22{fill:#f7d1c9;}.cls-24{fill:#f08113;}.cls-25{fill:#ce6b14;}.cls-26{fill:#42398e;}.cls-27{fill:#e0e0e0;}.cls-28{fill:#dbdbdb;}.cls-29{stroke-width:0.25px;}.cls-30{fill:#efefef;}.cls-31{fill:#f8f7f7;}</style><radialGradient id="radial-gradient" cx="293.45" cy="415.76" r="253.44" gradientUnits="userSpaceOnUse"><stop offset="0.5" stop-color="#e0e0e0"/><stop offset="0.6" stop-color="#e0e0e0" stop-opacity="0.99"/><stop offset="0.67" stop-color="#e2e2e2" stop-opacity="0.95"/><stop offset="0.73" stop-color="#e4e4e4" stop-opacity="0.88"/><stop offset="0.78" stop-color="#e7e7e7" stop-opacity="0.78"/><stop offset="0.84" stop-color="#ebebeb" stop-opacity="0.65"/><stop offset="0.89" stop-color="#f0f0f0" stop-opacity="0.49"/><stop offset="0.94" stop-color="#f6f6f6" stop-opacity="0.3"/><stop offset="0.98" stop-color="#fcfcfc" stop-opacity="0.09"/><stop offset="1" stop-color="#fff" stop-opacity="0"/></radialGradient><linearGradient id="linear-gradient" x1="297.86" y1="419.26" x2="338.72" y2="419.26" gradientUnits="userSpaceOnUse"><stop offset="0" stop-color="#ededed"/><stop offset="0.13" stop-color="#dcdcdc"/><stop offset="0.29" stop-color="#d0cfcf"/><stop offset="0.51" stop-color="#c9c8c8"/><stop offset="1" stop-color="#c7c6c6"/></linearGradient><linearGradient id="linear-gradient-2" x1="268.29" y1="404.07" x2="306.29" y2="429.7" xlink:href="#linear-gradient"/><linearGradient id="linear-gradient-3" x1="296.41" y1="435.86" x2="273.73" y2="422.76" xlink:href="#linear-gradient"/><linearGradient id="linear-gradient-4" x1="297.85" y1="428.9" x2="357.49" y2="428.9" xlink:href="#linear-gradient"/></defs><title>Rewards0</title><g id="Rewards"><circle class="cls-1" cx="293.45" cy="415.76" r="253.44"/><polygon class="cls-2" points="-0.72 603.53 86.05 505.65 111.8 558.87 128.18 515.27 159.29 550.61 205.78 507.71 228.25 535.81 249.71 509.93 254.24 541.06 337.79 484.54 386.22 538.3 469.96 472.3 491.37 527.15 505.1 496.85 511.86 530.69 556.46 469.49 568.62 496.85 586.19 470.72 607.82 476.87 607.82 673.6 -12.54 679.58 -0.72 603.53"/><line class="cls-3" x1="99.14" y1="574.66" x2="114" y2="574.66"/><line class="cls-3" x1="122.06" y1="574.66" x2="198.61" y2="574.66"/><path class="cls-2" d="M212,328.59h84.83l9.07-9.6-13.76-10.89-17.85-12.47s-2.48,8-2.51,6.34-19-14.37-19-14.37L239.31,299l-2.93,7.19-12.2-5.5-9.69,7.4Z"/><path class="cls-2" d="M406,310.25H448.4l4.53-4.8L446.05,300l-8.93-6.23s-1.23,4-1.25,3.17-9.53-7.19-9.53-7.19l-6.73,5.71-1.46,3.6-6.1-2.75L407.21,300Z"/><path class="cls-2" d="M481.32,374h32.23l3.45-3.65-5.23-4.14L505,361.47s-.95,3-1,2.41-7.24-5.46-7.24-5.46l-5.11,4.33-1.11,2.73-4.64-2.08-3.68,2.8Z"/><path class="cls-2" d="M50.43,379.42h44l4.71-6.57L92,365.37l-9.26-8.55s-1.29,5.51-1.3,4.35-9.89-9.85-9.89-9.85l-7,7.82-1.52,4.93-6.33-3.77-5,5.07Z"/><rect class="cls-4" x="317.26" y="393.74" width="83.92" height="148.21"/><rect class="cls-5" x="322.74" y="403.98" width="72.97" height="132.31" rx="21.54"/><polygon class="cls-6" points="375.39 510.11 343.88 510.7 342.6 442.56 372.7 438 375.39 510.11"/><path class="cls-7" d="M368,455.08l.79,42.16a3.32,3.32,0,0,0-3.13,3.5l-12.43.24a3.32,3.32,0,0,0-3.26-3.39l-.79-42.16a3.32,3.32,0,0,0,3.13-3.51l12.43-.23A3.33,3.33,0,0,0,368,455.08Z"/><ellipse class="cls-6" cx="359" cy="476.33" rx="6.22" ry="6.7" transform="matrix(1, -0.02, 0.02, 1, -8.87, 6.81)"/><rect class="cls-8" x="253.41" y="467.18" width="98.12" height="78.12"/><polygon class="cls-9" points="276.11 466.91 253.41 480.02 253.41 472.35 262.82 466.91 276.11 466.91"/><polygon class="cls-9" points="306.82 466.91 253.41 497.75 253.41 490.08 293.54 466.91 306.82 466.91"/><polygon class="cls-9" points="337.53 466.91 253.41 515.49 253.41 507.81 324.25 466.91 337.53 466.91"/><polygon class="cls-9" points="351.53 471.08 351.53 476.57 253.41 533.22 253.41 525.54 350.58 469.44 351.53 471.08"/><polygon class="cls-9" points="351.53 486.63 351.53 494.3 263.65 545.04 253.41 543.27 351.53 486.63"/><polygon class="cls-9" points="351.53 504.36 351.53 512.03 294.36 545.04 281.07 545.04 351.53 504.36"/><polygon class="cls-9" points="351.53 522.09 351.53 529.76 325.07 545.04 311.78 545.04 351.53 522.09"/><polygon class="cls-9" points="351.53 539.82 351.53 545.04 342.5 545.04 351.53 539.82"/><path class="cls-10" d="M335.39,404.45c-6.5-6.49-14.14-3.37-24.87,5s-15.59,20.13-10.84,26.19,17.1-4,27.05-11.75C337.22,415.77,342.67,411.73,335.39,404.45ZM321.18,421c-4.61,3.58-10.35,8.26-12.55,5.45s.05-8.25,5-12.15,8.52-5.35,11.53-2.34C328.57,415.35,326,417.22,321.18,421Z"/><path class="cls-11" d="M288.56,403.52c-10.89-7.25-17.22-7-21.07,2.59-3.42,8.52,2.45,14.33,14.39,20.91s21.86,10.5,23.67,3C308.38,418.32,288.56,403.52,288.56,403.52Zm6.47,18.9c-.69,2.85-4.47,1.36-9-1.15s-6.78-4.71-5.48-7.95c1.47-3.64,3.88-3.75,8-1C288.56,412.33,296.1,418,295,422.42Z"/><rect class="cls-12" x="242.7" y="424.63" width="118.84" height="47.69"/><path class="cls-13" d="M272.49,424.91s-2.5,8.82-2.5,11.15c0,.5,20.14-.23,32.13-10.1,2.33-6-13.05-2-13.05-2"/><path class="cls-14" d="M351.79,426.26l5.67,5.5a.1.1,0,0,1,0,.15,36.78,36.78,0,0,1-31-.05c-15.05-7.15-27.05-3.64-28.56-2.87-.08,0,1.91-6,2.57-6.09,3.49-.59,18.46-1.58,32.31,4.87,11.06,5.14,18.18-.85,18.92-1.52A.09.09,0,0,1,351.79,426.26Z"/><rect class="cls-15" x="294.8" y="422.65" width="15.23" height="122.38"/><path class="cls-16" d="M270,500.11H225.81a1.63,1.63,0,0,0-1.63,1.43,25.64,25.64,0,0,0-.14,2.64,24,24,0,0,0,12.11,20.9l0,0h0a20,20,0,0,0,2.17,1.09l.22.09a23.48,23.48,0,0,0,9.27,1.89,23.93,23.93,0,0,0,23.86-24,25.29,25.29,0,0,0-.14-2.63A1.63,1.63,0,0,0,270,500.11Zm-3.13,4.69a22.19,22.19,0,0,1-3.63,12.26l-.31.45a18.21,18.21,0,0,1-30.46,0l-.42-.63a22.1,22.1,0,0,1-3.52-12.08v-.13a1.64,1.64,0,0,1,1.67-1.6h35a1.62,1.62,0,0,1,1.65,1.59Z"/><path class="cls-17" d="M271.22,499.83H224.51a1.74,1.74,0,0,0-1.73,1.57,27.54,27.54,0,0,0-.15,2.89,26.47,26.47,0,0,0,12.81,22.89l.05,0,0,0a22.6,22.6,0,0,0,2.29,1.19l.23.1a24.3,24.3,0,0,0,9.82,2.07c13.94,0,25.24-11.78,25.24-26.3a27.68,27.68,0,0,0-.15-2.89A1.75,1.75,0,0,0,271.22,499.83ZM267.91,505a24.91,24.91,0,0,1-3.83,13.42l-.33.5a18.91,18.91,0,0,1-32.23,0l-.45-.69A24.92,24.92,0,0,1,227.35,505v-.14a1.76,1.76,0,0,1,1.76-1.76h37.06a1.74,1.74,0,0,1,1.74,1.74Z"/><path class="cls-17" d="M264.38,498.11v15.4a16.83,16.83,0,1,1-33.65,0v-15.4Z"/><polygon class="cls-16" points="264.38 504.3 230.73 498.13 230.73 498.13 264.38 498.13 264.38 504.3"/><path class="cls-17" d="M229.85,494.46h35.42a1.14,1.14,0,0,1,1.14,1.14v.24a2.27,2.27,0,0,1-2.27,2.27H231a2.27,2.27,0,0,1-2.27-2.27v-.24a1.14,1.14,0,0,1,1.14-1.14Z"/><rect class="cls-17" x="242.23" y="529.63" width="11.37" height="1.77" rx="0.83"/><rect class="cls-17" x="244.38" y="531.14" width="7.08" height="13.17" rx="1.47"/><circle class="cls-17" cx="247.92" cy="537.35" r="5.2"/><rect class="cls-18" x="234.78" y="545.64" width="26.27" height="13.59"/><rect class="cls-18" x="231.11" y="559.23" width="33.62" height="2.71"/><rect class="cls-19" x="239.19" y="543.97" width="17.46" height="1.36"/><rect class="cls-18" x="234.78" y="545.33" width="26.27" height="0.31"/><rect class="cls-4" x="238.19" y="548.06" width="19.46" height="8.75"/><polygon class="cls-2" points="252.68 556.8 248.9 556.8 240.15 548.06 243.94 548.06 252.68 556.8"/><polygon class="cls-16" points="247.92 507.75 249.44 512.42 254.34 512.42 250.37 515.31 251.89 519.98 247.92 517.09 243.95 519.98 245.46 515.31 241.49 512.42 246.4 512.42 247.92 507.75"/><path class="cls-2" d="M356.23,371.87s-20.33,8.34-20.34,8.36l-5.51,5.47,1,8.47c0,.08,50.84,0,50.84,0s5.52-.13,5.44-.21l-21-18.77S356.27,371.85,356.23,371.87Z"/><path class="cls-20" d="M326.69,371.21s6.33,17.64,14.78,8.45c1,2.6,2.36,5.83,3.72,6s4.47-2,5.22-2.86,1.36-4.72,1.36-5.71a11.5,11.5,0,0,1-8.31-5.84c.24-.37,2-5.21-.13-5.71s-6.08-3.6-6.08-3.6l-9.94,4.1Z"/><path class="cls-21" d="M336,364.88l-4.45,4.6-.1.1-4.12,3a.71.71,0,0,1-.31.13c-.88.14-4.76.51-5.72-3.38a10,10,0,0,1,.21-6.42.82.82,0,0,1,.41-.41l7.59-3.35a.59.59,0,0,1,.32-.06l7.38.32a.57.57,0,0,0,.22,0l2.67-.75a.72.72,0,0,1,.68.18l2.37,2.17a.91.91,0,0,1,.26.47l.91,4.34a.81.81,0,0,1-1,1h0a.75.75,0,0,0-.88.3l-1.5,2.2a.73.73,0,0,1-1.27,0L337.19,365A.73.73,0,0,0,336,364.88Z"/><path class="cls-20" d="M382.15,399.07l-1.37.14a3.29,3.29,0,0,1-1.52-.21l-2.67-1a1.47,1.47,0,0,1-.95-1.39v-2.75a1.52,1.52,0,0,1,.24-.83l1.81-2.74a1.5,1.5,0,0,1,1.25-.67h3.17a1.47,1.47,0,0,1,1.06.45l.37.38a1.48,1.48,0,0,1,.21,1.82l-.7,1.16a1.5,1.5,0,0,0-.19,1.09l.6,2.79A1.49,1.49,0,0,1,382.15,399.07Z"/><path class="cls-20" d="M338,398.68l-1.37.14a3.27,3.27,0,0,1-1.52-.21l-2.68-1a1.49,1.49,0,0,1-.95-1.39v-2.75a1.53,1.53,0,0,1,.25-.83l1.81-2.74a1.47,1.47,0,0,1,1.24-.67h3.17a1.47,1.47,0,0,1,1.07.45l.37.38a1.48,1.48,0,0,1,.21,1.82l-.71,1.16a1.49,1.49,0,0,0-.18,1.09l.6,2.79A1.5,1.5,0,0,1,338,398.68Z"/><path class="cls-22" d="M195.08,439.51l-1.54,4.36a1.61,1.61,0,0,0,1.39,2.12l22.57,3.38,22.3,1.2a1.59,1.59,0,0,0,1.43-.69l1.89-2.74a1.59,1.59,0,0,0-1.14-2.49l-23.29-2.16-21.95-4A1.58,1.58,0,0,0,195.08,439.51Z"/><rect class="cls-22" x="166.86" y="512.71" width="9.22" height="49.33" transform="translate(324.67 -5.49) rotate(33.46)"/><polygon class="cls-23" points="158.79 548.21 164.22 572.5 156.74 567.55 155.56 561.19 149.26 562.62 158.79 548.21"/><polygon class="cls-20" points="217.46 527.92 210.78 536.99 183.69 517.01 183.39 502.81 217.46 527.92"/><polygon class="cls-20" points="195.4 558.67 188.42 553.75 205.14 530.36 217.11 528.19 195.4 558.67"/><polygon class="cls-4" points="193.73 546.39 197.78 570.95 190.59 565.59 189.77 559.16 183.41 560.23 193.73 546.39"/><path class="cls-20" d="M208.56,415.69l-1.64,10.51a7.46,7.46,0,0,1-6.91,6.29l-.89,5.73-8.5-1.33,3.67-23.44Z"/><polygon class="cls-24" points="201.59 530.23 185.91 527.78 178.68 518.01 167.11 516.22 188.07 464.77 188.07 464.77 186.8 443.95 190.98 434.48 200.5 435.97 214.42 452.3 205.36 464.46 201.59 530.23"/><path class="cls-21" d="M209,416.3l-2.87,1.4-.92,4.17-3.29.91-.91,5.25-2.5,1.5-6.15-1-2.9-8.65a11.52,11.52,0,0,1,.14-2.1c.93-6,6.08-10.11,11.48-9.26a9.88,9.88,0,0,1,7.91,7.71Z"/><circle class="cls-21" cx="190" cy="405.85" r="4.3"/><rect class="cls-24" x="190.57" y="408.79" width="4.48" height="2.54" transform="translate(-204.61 192.38) rotate(-36.11)"/><path class="cls-20" d="M203.81,450.81l-1.42,4.38a1.54,1.54,0,0,0,1.22,2.09L212,460l24.18.61a1.41,1.41,0,0,0,1.28-.69l1.74-2.76a1.6,1.6,0,0,0-1-2.47l-25.25-1.78-7.58-3.12A1.48,1.48,0,0,0,203.81,450.81Z"/><polygon class="cls-25" points="194.16 465.83 178.72 517.95 167.16 516.13 188.09 464.88 186.85 443.87 194.16 465.83 194.16 465.83"/><rect class="cls-26" x="201.65" y="443.51" width="0.51" height="9.42" rx="0.24" transform="translate(-289.62 456.49) rotate(-66.71)"/><rect class="cls-26" x="197.76" y="448.79" width="0.51" height="12.58" rx="0.24" transform="translate(-298.28 457.07) rotate(-66.71)"/><line class="cls-3" x1="380.13" y1="574.66" x2="394.99" y2="574.66"/><line class="cls-3" x1="403.05" y1="574.66" x2="479.6" y2="574.66"/><polygon class="cls-4" points="442.86 560.91 449.74 552.65 459.1 527.3 459.1 507.69 456.24 499.8 448.97 506.69 442.09 521.61 440.18 560.91 442.86 560.91"/><path class="cls-27" d="M429.28,513.76c-.57.77-5.73,10.91-5.73,10.91l4.78,5.74-3.06,7.84,7.84,9.08-1,8.49L439.8,561l5.73-7.92-3.25-9.55.77-6.42-5.74-7.24,1.53-5.16Z"/><polygon class="cls-28" points="442.19 498.2 440.74 498.2 439.63 558.53 443.19 558.53 442.19 498.2"/><polygon class="cls-28" points="443.19 558.53 444.03 558.53 453.72 511.81 453.11 511.91 443.19 558.53"/><polygon class="cls-28" points="440.26 559.27 439.6 559.3 428.93 519.72 429.42 519.78 440.26 559.27"/><polygon class="cls-28" points="442.43 553.66 432.68 552.79 426.59 544.96 435.73 544.96 442.43 553.66"/><polygon class="cls-28" points="442.88 541.28 433.13 540.42 428.09 533.62 436.52 534.16 442.88 541.28"/><polygon class="cls-28" points="441.88 530.38 434.7 529.74 430.45 524 437.33 524.45 441.88 530.38"/><polygon class="cls-28" points="441.25 520.53 435.51 519.9 431.95 515.1 438.82 515.54 441.25 520.53"/><polygon class="cls-28" points="441.51 512.12 436.6 511.87 433.13 507.77 438.1 508.09 441.51 512.12"/><polygon class="cls-28" points="441.48 505.17 437.38 504.45 435.57 499.81 440.69 501.62 441.48 505.17"/><polygon class="cls-28" points="440.23 551.42 449.97 550.6 456.06 543.16 446.92 543.16 440.23 551.42"/><polygon class="cls-28" points="439.78 539.67 449.52 538.85 454.57 532.38 446.13 532.9 439.78 539.67"/><polygon class="cls-28" points="440.78 529.31 447.95 528.7 452.2 523.25 445.32 523.68 440.78 529.31"/><polygon class="cls-28" points="441.41 519.96 447.15 519.35 450.7 514.79 443.83 515.22 441.41 519.96"/><polygon class="cls-28" points="441.15 511.96 446.06 511.72 449.53 507.83 444.55 508.14 441.15 511.96"/><polygon class="cls-28" points="441.17 505.36 445.27 504.68 447.08 500.27 441.96 501.99 441.17 505.36"/><polygon class="cls-28" points="441.25 499.81 438.33 495.16 440.38 489.41 443.67 495.24 441.25 499.81"/><polygon class="cls-4" points="448.3 574.09 434.61 574.09 431.79 558.53 450.87 558.53 448.3 574.09"/><polygon class="cls-23" points="437.73 574.09 434.61 574.09 431.79 558.53 435.63 558.53 437.73 574.09"/><line class="cls-3" x1="295.54" y1="574.66" x2="303.27" y2="574.66"/><line class="cls-3" x1="307.46" y1="574.66" x2="347.27" y2="574.66"/><polygon class="cls-4" points="326.56 567.09 323.64 567.09 328.99 536.67 336.12 533.02 336.12 525.36 348.7 520.25 348.7 535.58 342.62 542.27 343.23 549.57 335.07 554.56 326.56 567.09"/><line class="cls-29" x1="343.45" y1="528.4" x2="327.29" y2="560.8"/><path class="cls-30" d="M327.29,566.8l-2.46.42-4.07-6.1-3.5-5.33s-8-5.17-7.52-5.5,1.37-6.65.95-6.95-4.66-3.9-4.66-3.9l2.92-9.88,8.93,6.75Z"/><line class="cls-29" x1="311.16" y1="536.16" x2="322.92" y2="559.71"/><polygon class="cls-31" points="323.96 527.18 320.56 532.66 318.49 544.22 319.66 555.18 319.95 561.99 323.36 569.65 328.1 563.2 329.93 545.79 328.35 537.28 327.98 532.66 323.96 527.18"/><line class="cls-29" x1="324.21" y1="537.04" x2="324.21" y2="566.36"/><line class="cls-29" x1="324.21" y1="530.47" x2="324.21" y2="534.61"/><polygon class="cls-4" points="328.11 574.09 320.19 574.09 318.51 565.21 329.91 565.21 328.11 574.09"/><polygon class="cls-23" points="322.38 574.09 320.19 574.09 318.51 565.21 320.83 565.21 322.38 574.09"/></g></svg>