<svg id="Layer_1" data-name="Layer 1" xmlns="http://www.w3.org/2000/svg" xmlns:xlink="http://www.w3.org/1999/xlink" viewBox="0 0 595.28 841.89"><defs><style>.cls-2{fill:#fff}.cls-10,.cls-3,.cls-33,.cls-8{fill:#c4c4c4}.cls-10,.cls-3,.cls-33,.cls-34{stroke:#c4c4c4}.cls-10,.cls-29,.cls-3,.cls-33,.cls-34,.cls-35{stroke-linecap:round}.cls-10,.cls-29,.cls-3,.cls-33,.cls-34,.cls-35,.cls-36{stroke-miterlimit:10}.cls-5{fill:#e0e0e0}.cls-6{fill:#eaeaea}.cls-7{fill:#ededed}.cls-10,.cls-29{stroke-width:.25px}.cls-16{fill:#f08113}.cls-20{fill:#f4f2f2}.cls-26{fill:#f7d1c9}.cls-27{fill:#f9dcd4}.cls-28,.cls-29{fill:#ce6b14}.cls-29{stroke:#ce6b14}.cls-30{fill:#24284f}.cls-33{stroke-width:.5px}.cls-34,.cls-35,.cls-36{fill:none}.cls-35{stroke:#d3d3d3}.cls-36{stroke:#ddd}.cls-38{fill:#c7c6c6}</style><radialGradient id="radial-gradient" cx="305.26" cy="416.79" r="253.44" gradientUnits="userSpaceOnUse"><stop offset=".5" stop-color="#e0e0e0"/><stop offset=".6" stop-color="#e0e0e0" stop-opacity=".99"/><stop offset=".67" stop-color="#e2e2e2" stop-opacity=".95"/><stop offset=".73" stop-color="#e4e4e4" stop-opacity=".88"/><stop offset=".78" stop-color="#e7e7e7" stop-opacity=".78"/><stop offset=".84" stop-color="#ebebeb" stop-opacity=".65"/><stop offset=".89" stop-color="#f0f0f0" stop-opacity=".49"/><stop offset=".94" stop-color="#f6f6f6" stop-opacity=".3"/><stop offset=".98" stop-color="#fcfcfc" stop-opacity=".09"/><stop offset="1" stop-color="#fff" stop-opacity="0"/></radialGradient><linearGradient id="linear-gradient" x1="194.74" y1="395.19" x2="260.47" y2="395.19" gradientUnits="userSpaceOnUse"><stop offset="0" stop-color="#ebebe9"/><stop offset=".22" stop-color="#ebebe9" stop-opacity=".99"/><stop offset=".35" stop-color="#eaeae8" stop-opacity=".95"/><stop offset=".47" stop-color="#e9e9e8" stop-opacity=".89"/><stop offset=".58" stop-color="#e8e8e6" stop-opacity=".8"/><stop offset=".67" stop-color="#e6e6e5" stop-opacity=".68"/><stop offset=".77" stop-color="#e4e4e3" stop-opacity=".54"/><stop offset=".85" stop-color="#e2e2e1" stop-opacity=".37"/><stop offset=".93" stop-color="#dfdfde" stop-opacity=".18"/><stop offset="1" stop-color="#dcdcdc" stop-opacity="0"/></linearGradient><linearGradient id="linear-gradient-2" x1="194.74" y1="400.64" x2="236.19" y2="400.64" xlink:href="#linear-gradient"/><linearGradient id="linear-gradient-3" x1="194.74" y1="381.38" x2="260.47" y2="381.38" xlink:href="#linear-gradient"/><linearGradient id="linear-gradient-4" x1="194.74" y1="386.83" x2="236.19" y2="386.83" xlink:href="#linear-gradient"/><linearGradient id="linear-gradient-5" x1="315.8" y1="458.24" x2="357.45" y2="458.24" xlink:href="#linear-gradient"/><linearGradient id="linear-gradient-6" x1="315.8" y1="464.12" x2="342.06" y2="464.12" xlink:href="#linear-gradient"/><linearGradient id="linear-gradient-7" x1="389.89" y1="455.67" x2="421.74" y2="455.67" xlink:href="#linear-gradient"/><linearGradient id="linear-gradient-8" x1="389.89" y1="459.13" x2="409.97" y2="459.13" xlink:href="#linear-gradient"/><linearGradient id="linear-gradient-9" x1="389.89" y1="465.88" x2="421.74" y2="465.88" xlink:href="#linear-gradient"/></defs><g id="Self-tape"><circle cx="305.26" cy="416.79" r="253.44" opacity=".8" fill="url(#radial-gradient)"/><path class="cls-2" d="M-6.94 602.5l86.08-97.88 25.55 53.22 16.25-43.6 30.86 35.34 46.12-42.9 22.29 28.1 21.29-25.88 4.5 31.13 68.5-60.39 62.43 57.62 83.07-66 21.24 54.86 13.62-30.3 6.71 33.84 44.24-61.2 12.07 27.36 33.77-37.97 22.29 34.85v179.17l-632.6 6.68 11.72-76.05zM220.6 326.15h84.84l9.06-9.6-13.76-10.9-17.85-12.47s-2.48 8-2.51 6.35-19.05-14.38-19.05-14.38l-13.46 11.42-2.93 7.18-12.19-5.49-9.7 7.39zM414.54 307.82H457l4.53-4.8-6.88-5.45-8.92-6.24s-1.24 4-1.26 3.17-9.52-7.18-9.52-7.18l-6.77 5.68-1.47 3.59-6.1-2.75-4.84 3.7zM489.88 371.56h32.23l3.45-3.65-5.23-4.14-6.78-4.77s-.94 3.05-1 2.41-7.23-5.46-7.23-5.46l-5.12 4.34-1.11 2.73-4.59-2.02-3.69 2.81zM59 377h44l4.7-6.58-7.14-7.47-9.26-8.54s-1.28 5.5-1.3 4.34-9.88-9.85-9.88-9.85l-7 7.83-1.52 4.92-6.32-3.77-5 5.07z"/><path class="cls-3" d="M370 577.96h14.86M392.93 577.96h93.32M132.99 577.96h14.87M155.92 577.96h59.89M246.86 577.96h14.87M269.79 577.96h76.55"/><path fill="#cdcccc" d="M309.59 564.2l6.89-8.26 9.36-25.34v-19.61l-2.86-7.89-7.27 6.88-6.88 14.92-1.91 39.3h2.67z"/><path class="cls-5" d="M296 517.06c-.57.76-5.73 10.9-5.73 10.9l4.78 5.74-3.05 7.84 7.84 9.08-1 8.49 7.65 5.15 5.73-7.93-3.22-9.54.77-6.43-5.74-7.23 1.53-5.17z"/><path class="cls-6" d="M308.93 501.5h-1.45l-1.11 60.33h3.56l-1-60.33z"/><path class="cls-6" d="M309.93 561.83h.84l9.69-46.73-.61.11-9.92 46.62zM307 562.57l-.66.03-10.67-39.59.49.06 10.84 39.5z"/><path class="cls-6" d="M309.16 556.95l-9.74-.86-6.09-7.84h9.14l6.69 8.7zM309.62 544.58l-9.75-.87-5.05-6.8 8.44.55 6.36 7.12zM308.62 533.68l-7.18-.65-4.25-5.74 6.88.45 4.55 5.94zM307.98 523.83l-5.73-.64-3.56-4.8 6.87.45 2.42 4.99zM308.25 515.41l-4.92-.25-3.46-4.1 4.97.33 3.41 4.02zM308.22 508.46l-4.1-.72-1.81-4.64 5.12 1.82.79 3.54z"/><path class="cls-6" d="M306.97 554.72l9.74-.82 6.09-7.44h-9.14l-6.69 8.26zM306.51 542.96l9.75-.82 5.05-6.46-8.44.52-6.36 6.76zM307.51 532.61l7.18-.62 4.25-5.45-6.88.43-4.55 5.64zM308.14 523.25l5.74-.61 3.56-4.55-6.87.42-2.43 4.74zM307.88 515.26l4.92-.24 3.46-3.9-4.97.31-3.41 3.83zM307.91 508.65l4.1-.68 1.81-4.41-5.12 1.72-.79 3.37zM307.98 503.1l-2.91-4.65 2.05-5.75 3.29 5.83-2.43 4.57z"/><path class="cls-7" d="M315.04 577.38h-13.69l-2.83-15.55h19.09l-2.57 15.55z"/><path class="cls-8" d="M304.47 577.38h-3.12l-2.83-15.55h3.85l2.1 15.55z"/><path class="cls-3" d="M500.07 577.96h7.73"/><path fill="#214390" stroke="#a5b8d8" stroke-miterlimit="10" stroke-linecap="round" d="M511.99 577.96h39.8"/><path class="cls-7" d="M531.08 570.38h-2.92l5.36-30.42 7.12-3.65v-7.66l12.59-5.11v15.33l-6.09 6.69.61 7.3-8.15 4.99-8.52 12.53z"/><path class="cls-10" d="M547.98 531.69l-16.17 32.41"/><path class="cls-5" d="M531.81 570.09l-2.45.42-4.07-6.09-3.5-5.33s-8-5.18-7.52-5.51 1.37-6.65 1-7-4.67-3.89-4.67-3.89l2.93-9.88 8.93 6.74z"/><path class="cls-10" d="M515.68 539.46l11.76 23.55"/><path fill="#f8f7f7" d="M528.49 530.48l-3.41 5.47-2.06 11.56 1.16 10.97.3 6.8 3.4 7.66 4.75-6.45 1.82-17.41-1.58-8.5-.36-4.63-4.02-5.47z"/><path class="cls-10" d="M528.73 540.33v29.33M528.73 533.76v4.14"/><path class="cls-7" d="M532.63 577.38h-7.91l-1.69-8.88h11.4l-1.8 8.88z"/><path class="cls-8" d="M526.9 577.38h-2.18l-1.69-8.88h2.32l1.55 8.88z"/><rect class="cls-2" x="189.32" y="366.6" width="76.56" height="48.78" rx="3.83"/><rect x="194.74" y="393.69" width="65.73" height="3" rx=".95" fill="url(#linear-gradient)"/><rect x="194.74" y="399.17" width="41.45" height="2.94" rx=".93" fill="url(#linear-gradient-2)"/><rect x="194.74" y="379.88" width="65.73" height="3" rx=".95" fill="url(#linear-gradient-3)"/><rect x="194.74" y="385.36" width="41.45" height="2.94" rx=".93" fill="url(#linear-gradient-4)"/><path class="cls-2" d="M277.92 347.62h149.36v119.65H277.92z"/><path class="cls-8" d="M277.92 347.62h149.36v11.55H277.92z"/><circle class="cls-16" cx="286.5" cy="353.4" r="2.02"/><circle cx="293.17" cy="353.4" r="2.02" fill="#f7c418"/><circle cx="299.85" cy="353.4" r="2.02" fill="#5fbfba"/><path class="cls-7" d="M286.5 370.5h131.23v75.56H286.5z"/><circle cx="350.08" cy="405.17" r="23.18" fill="#41b6a3"/><path class="cls-2" d="M343.31 395.19l17.28 9.98-17.28 9.98v-19.96z"/><path class="cls-20" d="M286.5 453.63h25.81v13.64H286.5zM377.14 453.63h7.51v7.51h-7.51z"/><rect x="315.8" y="456.62" width="41.65" height="3.24" rx=".95" fill="url(#linear-gradient-5)"/><rect x="315.8" y="462.54" width="26.26" height="3.17" rx=".93" fill="url(#linear-gradient-6)"/><rect x="389.89" y="454.72" width="31.84" height="1.9" rx=".95" fill="url(#linear-gradient-7)"/><rect x="389.89" y="458.2" width="20.08" height="1.86" rx=".93" fill="url(#linear-gradient-8)"/><path class="cls-20" d="M377.14 463.84h7.51v3.76h-7.51z"/><rect x="389.89" y="464.93" width="31.84" height="1.9" rx=".95" fill="url(#linear-gradient-9)"/><path class="cls-26" d="M173.41 446.53l-.1 4.36c0 1 .71 1.8 1.46 1.65l17.39-3.54a1.71 1.71 0 0 0 1.12-.8l7.48-12.57a2 2 0 0 1 .59-.59 1.3 1.3 0 0 0 .53-.79l.72-2.94a1.83 1.83 0 0 0-.36-1.35 1.69 1.69 0 0 0-2.76-.07L189.65 443a1.69 1.69 0 0 1-1.17.66l-14.13 1.55a1.28 1.28 0 0 0-.94 1.32z"/><path class="cls-27" d="M171.48 522.76h8.78v46.97h-8.78z"/><path class="cls-8" d="M171.48 561.51l17.07 16.45h-8.54l-4.28-4.44-4.25 4.44v-16.45z"/><path class="cls-27" d="M185.05 423.3v10.13a7.1 7.1 0 0 1-5.57 6.94v5.52h-8.19V423.3z"/><path class="cls-26" d="M195.54 569.73h-8.13l-.33-40.31h8.46v40.31z"/><path class="cls-7" d="M187.41 561.51l17.07 16.45h-8.54l-4.28-4.44-4.25 4.44v-16.45z"/><path class="cls-16" d="M191.93 472.5l3.42 59.6h-15.11l-8.24-8.12-11.15.02L173 472.5l-4.26-19.4 2.53-9.53h9.18l15.5 13.32-8.83 15.61h4.81z"/><path class="cls-28" d="M178.85 472.67L172 523.98h-11.14L173 472.67l-4.25-19.59 10.1 19.59z"/><path class="cls-27" d="M187.86 473.48l-5.56-6.54 5.57-4.31 3.37 5.38c.24.4-2-2.42-1.51-2.42l1.79-1.66a1.31 1.31 0 0 1 1.26.95l1.07 2.35c.24.84.24 2.73-.63 2.74l-1.08 4.14c-.47.01-4.04-.23-4.28-.63z"/><rect class="cls-29" x="185.83" y="454.86" width=".48" height="8.97" rx=".24" transform="rotate(-32.14 186.098 459.368)"/><rect class="cls-29" x="179.07" y="456.64" width=".48" height="11.98" rx=".24" transform="rotate(-32.14 179.322 462.661)"/><path class="cls-30" d="M185.59 423.81l-2.49 1.74-.25 4.06-3 1.34-.05 5.05-2.13 1.79h-5.93l-4-7.72a10.83 10.83 0 0 1-.18-2c0-5.75 4.23-10.41 9.44-10.41a9.43 9.43 0 0 1 8.58 6.09s.01.05.01.06z"/><circle class="cls-30" cx="166.14" cy="416.79" r="4.1"/><path class="cls-16" transform="rotate(-45 169.406 420.33)" d="M167.27 419.12h4.26v2.42h-4.26z"/><g id="Pants"><path class="cls-28" d="M436.48 565.87h-10.96l3.64-80.44h15.87l-8.55 80.44z"/><path class="cls-16" d="M446.9 565.87h10.96v-80.44h-14.68l3.72 80.44z"/></g><g id="Shoe"><path class="cls-8" d="M436.48 575.1h-21.91l10.95-9.23h10.96v9.23z"/><path class="cls-10" d="M427.07 570.32a.28.28 0 0 1-.4 0l-3.3-3.19a.25.25 0 0 1 0-.38.28.28 0 0 1 .4 0l3.3 3.18a.27.27 0 0 1 0 .39zM425 571.45a.28.28 0 0 1-.4 0l-2.86-2.75a.27.27 0 0 1 0-.39.3.3 0 0 1 .41 0l2.85 2.76a.26.26 0 0 1 0 .38zM423.09 572.42a.32.32 0 0 1-.41 0l-2.39-2.31a.26.26 0 0 1 0-.39.28.28 0 0 1 .4 0l2.4 2.31a.27.27 0 0 1 0 .39z"/><path fill="#8d8d8e" d="M414.57 575.1h21.91v2.86h-21.91z"/></g><path class="cls-7" d="M457.86 575.1h-21.43l10.71-9.23h10.72v9.23z"/><path class="cls-10" d="M448.66 570.32a.27.27 0 0 1-.39 0l-3.27-3.19a.28.28 0 0 1 0-.38.28.28 0 0 1 .4 0l3.23 3.18a.27.27 0 0 1 .03.39zM446.64 571.45a.28.28 0 0 1-.4 0l-2.79-2.75a.27.27 0 0 1 0-.39.27.27 0 0 1 .39 0l2.8 2.76a.28.28 0 0 1 0 .38zM444.76 572.42a.29.29 0 0 1-.39 0l-2.37-2.31a.27.27 0 0 1 0-.39.28.28 0 0 1 .4 0l2.34 2.31a.27.27 0 0 1 .02.39z"/><path fill="#a9a9a9" d="M436.43 575.1h21.43v2.86h-21.43z"/><path class="cls-26" d="M434.1 468.71l-5.53 6.38a.82.82 0 0 1-.57.26l-21.26.87a3.11 3.11 0 0 1-3.11-3.11v-.86a3.12 3.12 0 0 1 3.11-3.12h13.72a3.15 3.15 0 0 0 2.55-1.31l1.55-2.07 1.52-2.1z" id="arm"/><g id="HEAD"><path class="cls-27" d="M439.93 427.08h9.91v9.91h-9.91z"/><path class="cls-27" d="M433.65 412.15h15.13a1.06 1.06 0 0 1 1.06 1.06v13.43a1.06 1.06 0 0 1-1.06 1.06h-7a8.11 8.11 0 0 1-8.11-8.11v-7.44h-.02z"/><path class="cls-30" d="M452.82 413.05l.29 7.76a1.49 1.49 0 0 1-.07.47l-1.62 5a1.3 1.3 0 0 1-2.06.61l-.62-.5a1.32 1.32 0 0 1-.49-1v-5.19a1.31 1.31 0 0 0-.86-1.24l-1.62-.6a1.32 1.32 0 0 1-.86-1.15l-.2-2.93a1.31 1.31 0 0 0-1.3-1.23h-8.12a2.09 2.09 0 0 1-2-2.13v-2.75a5.91 5.91 0 0 1 5.78-6l7.78.62a1.32 1.32 0 0 1 1.06.7l4.95 9.58z"/></g><path class="cls-2" d="M460.47 446.51l-2.39 39.65a1.9 1.9 0 0 1-1.86 1.83l-25.19.22a1.92 1.92 0 0 1-1.87-2l.77-37.95a2 2 0 0 1 .6-1.4l8.13-11.58a1.81 1.81 0 0 1 .79-.46l9.21-2.49a1.82 1.82 0 0 1 1.91.66l9.48 12.16a2 2 0 0 1 .42 1.36z"/><g id="arm-2" data-name="arm"><path class="cls-27" d="M439.93 472.48l-5.54 6.38a.78.78 0 0 1-.57.26l-21.25.88a3.11 3.11 0 0 1-3.12-3.12V476a3.12 3.12 0 0 1 3.12-3.12h13.71a3.1 3.1 0 0 0 2.55-1.32l1.55-2.06 1.53-2.11z"/><path class="cls-33" d="M438.46 474.89a.28.28 0 0 0 .38-.06l19.33-23.42a.24.24 0 0 0-.06-.35.3.3 0 0 0-.39.05l-19.32 23.43a.23.23 0 0 0 .06.35zM429.67 470.16a.29.29 0 0 0 .38-.06l10.89-14.19a.23.23 0 0 0-.07-.35.3.3 0 0 0-.39.06l-10.88 14.19a.23.23 0 0 0 .07.35z"/></g><path class="cls-34" d="M391.93 568.29l5.62-.03 2.24-87.83-6.46-.17-1.4 88.03zM395.86 568.29v-87.33"/><path class="cls-35" d="M382.13 577.66l-7.52.3 12.26-98.32 6.18.77-10.92 97.25zM376.98 577.6l14.2-97.34"/><path class="cls-36" d="M412.23 577.51l7.52.3-12.26-98.32-7.37.92 12.11 97.1zM417.25 576.74l-14.3-97.01"/><path fill="#a0a09f" stroke-width=".25" stroke-miterlimit="10" stroke-linecap="round" stroke="#c4c4c4" d="M415.25 457.67L403.39 438l-19.56 19.53 5.7 9.31 25.72-9.17z"/><path class="cls-38" d="M385.27 472.34l-19.94 5.92v-20.59l19.94 8.52v6.15z"/><path class="cls-7" d="M385.2 459.95h22.31v18.35H385.2z"/><path class="cls-10" d="M388.07 462.35h16.58v12.51h-16.58z"/><path class="cls-2" d="M385.27 465.77h22.19v6.72h-22.19z"/><path class="cls-10" d="M382.34 478.27h28.05v2.92h-28.05z"/><path class="cls-7" d="M407.45 465.37h4.17v9.49h-4.17z"/><path class="cls-10" d="M407.45 465.37h1.48v9.49h-1.48z"/><path class="cls-7" d="M407.52 459.95h6.68v4.22h-6.68z"/><path class="cls-10" d="M407.52 459.95h1.63v4.22h-1.63z"/><circle class="cls-38" cx="384.71" cy="445.57" r="13.47"/><circle class="cls-2" cx="384.71" cy="445.57" r="3.71"/><circle class="cls-38" cx="409.32" cy="445.57" r="13.47"/><circle class="cls-2" cx="409.32" cy="445.57" r="3.71"/></g></svg>