<svg id="Layer_1" data-name="Layer 1" xmlns="http://www.w3.org/2000/svg" xmlns:xlink="http://www.w3.org/1999/xlink" viewBox="0 0 595.28 841.89"><defs><style>.cls-1{opacity:0.8;fill:url(#radial-gradient);}.cls-2{fill:#fff;}.cls-10,.cls-3,.cls-33,.cls-8{fill:#c4c4c4;}.cls-10,.cls-3,.cls-33,.cls-34,.cls-37{stroke:#c4c4c4;}.cls-10,.cls-29,.cls-3,.cls-33,.cls-34,.cls-35,.cls-37,.cls-9{stroke-linecap:round;}.cls-10,.cls-29,.cls-3,.cls-33,.cls-34,.cls-35,.cls-36,.cls-37,.cls-9{stroke-miterlimit:10;}.cls-4{fill:#cdcccc;}.cls-5{fill:#e0e0e0;}.cls-6{fill:#eaeaea;}.cls-7{fill:#ededed;}.cls-9{fill:#214390;stroke:#a5b8d8;}.cls-10,.cls-29,.cls-37{stroke-width:0.25px;}.cls-11{fill:#f8f7f7;}.cls-12{fill:url(#linear-gradient);}.cls-13{fill:url(#linear-gradient-2);}.cls-14{fill:url(#linear-gradient-3);}.cls-15{fill:url(#linear-gradient-4);}.cls-16{fill:#f08113;}.cls-17{fill:#f7c418;}.cls-18{fill:#5fbfba;}.cls-19{fill:#41b6a3;}.cls-20{fill:#f4f2f2;}.cls-21{fill:url(#linear-gradient-5);}.cls-22{fill:url(#linear-gradient-6);}.cls-23{fill:url(#linear-gradient-7);}.cls-24{fill:url(#linear-gradient-8);}.cls-25{fill:url(#linear-gradient-9);}.cls-26{fill:#f7d1c9;}.cls-27{fill:#f9dcd4;}.cls-28,.cls-29{fill:#ce6b14;}.cls-29{stroke:#ce6b14;}.cls-30{fill:#24284f;}.cls-31{fill:#8d8d8e;}.cls-32{fill:#a9a9a9;}.cls-33{stroke-width:0.5px;}.cls-34,.cls-35,.cls-36{fill:none;}.cls-35{stroke:#d3d3d3;}.cls-36{stroke:#ddd;}.cls-37{fill:#a0a09f;}.cls-38{fill:#c7c6c6;}</style><radialGradient id="radial-gradient" cx="305.26" cy="416.79" r="253.44" gradientUnits="userSpaceOnUse"><stop offset="0.5" stop-color="#e0e0e0"/><stop offset="0.6" stop-color="#e0e0e0" stop-opacity="0.99"/><stop offset="0.67" stop-color="#e2e2e2" stop-opacity="0.95"/><stop offset="0.73" stop-color="#e4e4e4" stop-opacity="0.88"/><stop offset="0.78" stop-color="#e7e7e7" stop-opacity="0.78"/><stop offset="0.84" stop-color="#ebebeb" stop-opacity="0.65"/><stop offset="0.89" stop-color="#f0f0f0" stop-opacity="0.49"/><stop offset="0.94" stop-color="#f6f6f6" stop-opacity="0.3"/><stop offset="0.98" stop-color="#fcfcfc" stop-opacity="0.09"/><stop offset="1" stop-color="#fff" stop-opacity="0"/></radialGradient><linearGradient id="linear-gradient" x1="194.74" y1="395.19" x2="260.47" y2="395.19" gradientUnits="userSpaceOnUse"><stop offset="0" stop-color="#ebebe9"/><stop offset="0.22" stop-color="#ebebe9" stop-opacity="0.99"/><stop offset="0.35" stop-color="#eaeae8" stop-opacity="0.95"/><stop offset="0.47" stop-color="#e9e9e8" stop-opacity="0.89"/><stop offset="0.58" stop-color="#e8e8e6" stop-opacity="0.8"/><stop offset="0.67" stop-color="#e6e6e5" stop-opacity="0.68"/><stop offset="0.77" stop-color="#e4e4e3" stop-opacity="0.54"/><stop offset="0.85" stop-color="#e2e2e1" stop-opacity="0.37"/><stop offset="0.93" stop-color="#dfdfde" stop-opacity="0.18"/><stop offset="1" stop-color="#dcdcdc" stop-opacity="0"/></linearGradient><linearGradient id="linear-gradient-2" x1="194.74" y1="400.64" x2="236.19" y2="400.64" xlink:href="#linear-gradient"/><linearGradient id="linear-gradient-3" x1="194.74" y1="381.38" x2="260.47" y2="381.38" xlink:href="#linear-gradient"/><linearGradient id="linear-gradient-4" x1="194.74" y1="386.83" x2="236.19" y2="386.83" xlink:href="#linear-gradient"/><linearGradient id="linear-gradient-5" x1="315.8" y1="458.24" x2="357.45" y2="458.24" xlink:href="#linear-gradient"/><linearGradient id="linear-gradient-6" x1="315.8" y1="464.12" x2="342.06" y2="464.12" xlink:href="#linear-gradient"/><linearGradient id="linear-gradient-7" x1="389.89" y1="455.67" x2="421.74" y2="455.67" xlink:href="#linear-gradient"/><linearGradient id="linear-gradient-8" x1="389.89" y1="459.13" x2="409.97" y2="459.13" xlink:href="#linear-gradient"/><linearGradient id="linear-gradient-9" x1="389.89" y1="465.88" x2="421.74" y2="465.88" xlink:href="#linear-gradient"/></defs><title>Self-tape0</title><g id="Self-tape"><circle class="cls-1" cx="305.26" cy="416.79" r="253.44"/><polygon class="cls-2" points="-6.94 602.5 79.14 504.62 104.69 557.84 120.94 514.24 151.8 549.58 197.92 506.68 220.21 534.78 241.5 508.9 246 540.03 314.5 479.64 376.93 537.26 460 471.26 481.24 526.12 494.86 495.82 501.57 529.66 545.81 468.46 557.88 495.82 591.65 457.85 613.94 492.7 613.94 671.87 -18.66 678.55 -6.94 602.5"/><path class="cls-2" d="M220.6,326.15h84.84l9.06-9.6-13.76-10.9-17.85-12.47s-2.48,8-2.51,6.35-19.05-14.38-19.05-14.38l-13.46,11.42-2.93,7.18-12.19-5.49-9.7,7.39Z"/><path class="cls-2" d="M414.54,307.82H457l4.53-4.8-6.88-5.45-8.92-6.24s-1.24,4-1.26,3.17-9.52-7.18-9.52-7.18L428.18,293l-1.47,3.59-6.1-2.75-4.84,3.7Z"/><path class="cls-2" d="M489.88,371.56h32.23l3.45-3.65-5.23-4.14L513.55,359s-.94,3.05-1,2.41-7.23-5.46-7.23-5.46l-5.12,4.34-1.11,2.73L494.5,361l-3.69,2.81Z"/><path class="cls-2" d="M59,377h44l4.7-6.58-7.14-7.47-9.26-8.54s-1.28,5.5-1.3,4.34-9.88-9.85-9.88-9.85l-7,7.83-1.52,4.92-6.32-3.77-5,5.07Z"/><line class="cls-3" x1="370" y1="577.96" x2="384.86" y2="577.96"/><line class="cls-3" x1="392.93" y1="577.96" x2="486.25" y2="577.96"/><line class="cls-3" x1="132.99" y1="577.96" x2="147.86" y2="577.96"/><line class="cls-3" x1="155.92" y1="577.96" x2="215.81" y2="577.96"/><line class="cls-3" x1="246.86" y1="577.96" x2="261.73" y2="577.96"/><line class="cls-3" x1="269.79" y1="577.96" x2="346.34" y2="577.96"/><polygon class="cls-4" points="309.59 564.2 316.48 555.94 325.84 530.6 325.84 510.99 322.98 503.1 315.71 509.98 308.83 524.9 306.92 564.2 309.59 564.2"/><path class="cls-5" d="M296,517.06c-.57.76-5.73,10.9-5.73,10.9l4.78,5.74L292,541.54l7.84,9.08-1,8.49,7.65,5.15,5.73-7.93L309,546.79l.77-6.43-5.74-7.23,1.53-5.17Z"/><polygon class="cls-6" points="308.93 501.5 307.48 501.5 306.37 561.83 309.93 561.83 308.93 501.5"/><polygon class="cls-6" points="309.93 561.83 310.77 561.83 320.46 515.1 319.85 515.21 309.93 561.83"/><polygon class="cls-6" points="307 562.57 306.34 562.6 295.67 523.01 296.16 523.07 307 562.57"/><polygon class="cls-6" points="309.16 556.95 299.42 556.09 293.33 548.25 302.47 548.25 309.16 556.95"/><polygon class="cls-6" points="309.62 544.58 299.87 543.71 294.82 536.91 303.26 537.46 309.62 544.58"/><polygon class="cls-6" points="308.62 533.68 301.44 533.03 297.19 527.29 304.07 527.74 308.62 533.68"/><polygon class="cls-6" points="307.98 523.83 302.25 523.19 298.69 518.39 305.56 518.84 307.98 523.83"/><polygon class="cls-6" points="308.25 515.41 303.33 515.16 299.87 511.06 304.84 511.39 308.25 515.41"/><polygon class="cls-6" points="308.22 508.46 304.12 507.74 302.31 503.1 307.43 504.92 308.22 508.46"/><polygon class="cls-6" points="306.97 554.72 316.71 553.9 322.8 546.46 313.66 546.46 306.97 554.72"/><polygon class="cls-6" points="306.51 542.96 316.26 542.14 321.31 535.68 312.87 536.2 306.51 542.96"/><polygon class="cls-6" points="307.51 532.61 314.69 531.99 318.94 526.54 312.06 526.97 307.51 532.61"/><polygon class="cls-6" points="308.14 523.25 313.88 522.64 317.44 518.09 310.57 518.51 308.14 523.25"/><polygon class="cls-6" points="307.88 515.26 312.8 515.02 316.26 511.12 311.29 511.43 307.88 515.26"/><polygon class="cls-6" points="307.91 508.65 312.01 507.97 313.82 503.56 308.7 505.28 307.91 508.65"/><polygon class="cls-6" points="307.98 503.1 305.07 498.45 307.12 492.7 310.41 498.53 307.98 503.1"/><polygon class="cls-7" points="315.04 577.38 301.35 577.38 298.52 561.83 317.61 561.83 315.04 577.38"/><polygon class="cls-8" points="304.47 577.38 301.35 577.38 298.52 561.83 302.37 561.83 304.47 577.38"/><line class="cls-3" x1="500.07" y1="577.96" x2="507.8" y2="577.96"/><line class="cls-9" x1="511.99" y1="577.96" x2="551.79" y2="577.96"/><polygon class="cls-7" points="531.08 570.38 528.16 570.38 533.52 539.96 540.64 536.31 540.64 528.65 553.23 523.54 553.23 538.87 547.14 545.56 547.75 552.86 539.6 557.85 531.08 570.38"/><line class="cls-10" x1="547.98" y1="531.69" x2="531.81" y2="564.1"/><path class="cls-5" d="M531.81,570.09l-2.45.42-4.07-6.09-3.5-5.33s-8-5.18-7.52-5.51,1.37-6.65,1-7-4.67-3.89-4.67-3.89l2.93-9.88,8.93,6.74Z"/><line class="cls-10" x1="515.68" y1="539.46" x2="527.44" y2="563.01"/><polygon class="cls-11" points="528.49 530.48 525.08 535.95 523.02 547.51 524.18 558.48 524.48 565.28 527.88 572.94 532.63 566.49 534.45 549.08 532.87 540.58 532.51 535.95 528.49 530.48"/><line class="cls-10" x1="528.73" y1="540.33" x2="528.73" y2="569.66"/><line class="cls-10" x1="528.73" y1="533.76" x2="528.73" y2="537.9"/><polygon class="cls-7" points="532.63 577.38 524.72 577.38 523.03 568.5 534.43 568.5 532.63 577.38"/><polygon class="cls-8" points="526.9 577.38 524.72 577.38 523.03 568.5 525.35 568.5 526.9 577.38"/><rect class="cls-2" x="189.32" y="366.6" width="76.56" height="48.78" rx="3.83"/><rect class="cls-12" x="194.74" y="393.69" width="65.73" height="3" rx="0.95"/><rect class="cls-13" x="194.74" y="399.17" width="41.45" height="2.94" rx="0.93"/><rect class="cls-14" x="194.74" y="379.88" width="65.73" height="3" rx="0.95"/><rect class="cls-15" x="194.74" y="385.36" width="41.45" height="2.94" rx="0.93"/><rect class="cls-2" x="277.92" y="347.62" width="149.36" height="119.65"/><rect class="cls-8" x="277.92" y="347.62" width="149.36" height="11.55"/><circle class="cls-16" cx="286.5" cy="353.4" r="2.02"/><circle class="cls-17" cx="293.17" cy="353.4" r="2.02"/><circle class="cls-18" cx="299.85" cy="353.4" r="2.02"/><rect class="cls-7" x="286.5" y="370.5" width="131.23" height="75.56"/><circle class="cls-19" cx="350.08" cy="405.17" r="23.18"/><polygon class="cls-2" points="343.31 395.19 360.59 405.17 343.31 415.15 343.31 395.19"/><rect class="cls-20" x="286.5" y="453.63" width="25.81" height="13.64"/><rect class="cls-20" x="377.14" y="453.63" width="7.51" height="7.51"/><rect class="cls-21" x="315.8" y="456.62" width="41.65" height="3.24" rx="0.95"/><rect class="cls-22" x="315.8" y="462.54" width="26.26" height="3.17" rx="0.93"/><rect class="cls-23" x="389.89" y="454.72" width="31.84" height="1.9" rx="0.95"/><rect class="cls-24" x="389.89" y="458.2" width="20.08" height="1.86" rx="0.93"/><rect class="cls-20" x="377.14" y="463.84" width="7.51" height="3.76"/><rect class="cls-25" x="389.89" y="464.93" width="31.84" height="1.9" rx="0.95"/><path class="cls-26" d="M173.41,446.53l-.1,4.36c0,1,.71,1.8,1.46,1.65L192.16,449a1.71,1.71,0,0,0,1.12-.8l7.48-12.57a2,2,0,0,1,.59-.59,1.3,1.3,0,0,0,.53-.79l.72-2.94a1.83,1.83,0,0,0-.36-1.35,1.69,1.69,0,0,0-2.76-.07L189.65,443a1.69,1.69,0,0,1-1.17.66l-14.13,1.55A1.28,1.28,0,0,0,173.41,446.53Z"/><rect class="cls-27" x="171.48" y="522.76" width="8.78" height="46.97"/><polygon class="cls-8" points="171.48 561.51 188.55 577.96 180.01 577.96 175.73 573.52 171.48 577.96 171.48 561.51"/><path class="cls-27" d="M185.05,423.3v10.13a7.1,7.1,0,0,1-5.57,6.94v5.52h-8.19V423.3Z"/><polygon class="cls-26" points="195.54 569.73 187.41 569.73 187.08 529.42 195.54 529.42 195.54 569.73"/><polygon class="cls-7" points="187.41 561.51 204.48 577.96 195.94 577.96 191.66 573.52 187.41 577.96 187.41 561.51"/><polygon class="cls-16" points="191.93 472.5 195.35 532.1 180.24 532.1 172 523.98 160.85 524 173 472.5 173 472.5 168.74 453.1 171.27 443.57 180.45 443.57 195.95 456.89 187.12 472.5 191.93 472.5"/><polygon class="cls-28" points="178.85 472.67 172 523.98 160.86 523.98 173 472.67 168.75 453.08 178.85 472.67 178.85 472.67"/><path class="cls-27" d="M187.86,473.48l-5.56-6.54,5.57-4.31,3.37,5.38c.24.4-2-2.42-1.51-2.42l1.79-1.66a1.31,1.31,0,0,1,1.26.95l1.07,2.35c.24.84.24,2.73-.63,2.74l-1.08,4.14C191.67,474.12,188.1,473.88,187.86,473.48Z"/><rect class="cls-29" x="185.83" y="454.86" width="0.48" height="8.97" rx="0.24" transform="translate(-215.86 169.4) rotate(-32.14)"/><rect class="cls-29" x="179.07" y="456.64" width="0.48" height="11.98" rx="0.24" transform="translate(-218.65 166.3) rotate(-32.14)"/><path class="cls-30" d="M185.59,423.81l-2.49,1.74-.25,4.06-3,1.34L179.8,436l-2.13,1.79h-5.93l-4-7.72a10.83,10.83,0,0,1-.18-2c0-5.75,4.23-10.41,9.44-10.41a9.43,9.43,0,0,1,8.58,6.09S185.59,423.8,185.59,423.81Z"/><circle class="cls-30" cx="166.14" cy="416.79" r="4.1"/><rect class="cls-16" x="167.27" y="419.12" width="4.26" height="2.42" transform="translate(-247.6 242.9) rotate(-45)"/><g id="Pants"><polygon class="cls-28" points="436.48 565.87 425.52 565.87 429.16 485.43 445.03 485.43 436.48 565.87"/><polygon class="cls-16" points="446.9 565.87 457.86 565.87 457.86 485.43 443.18 485.43 446.9 565.87"/></g><g id="Shoe"><polygon class="cls-8" points="436.48 575.1 414.57 575.1 425.52 565.87 436.48 565.87 436.48 575.1"/><path class="cls-10" d="M427.07,570.32h0a.28.28,0,0,1-.4,0l-3.3-3.19a.25.25,0,0,1,0-.38h0a.28.28,0,0,1,.4,0l3.3,3.18A.27.27,0,0,1,427.07,570.32Z"/><path class="cls-10" d="M425,571.45h0a.28.28,0,0,1-.4,0l-2.86-2.75a.27.27,0,0,1,0-.39h0a.3.3,0,0,1,.41,0l2.85,2.76A.26.26,0,0,1,425,571.45Z"/><path class="cls-10" d="M423.09,572.42h0a.32.32,0,0,1-.41,0l-2.39-2.31a.26.26,0,0,1,0-.39h0a.28.28,0,0,1,.4,0l2.4,2.31A.27.27,0,0,1,423.09,572.42Z"/><rect class="cls-31" x="414.57" y="575.1" width="21.91" height="2.86"/></g><polygon class="cls-7" points="457.86 575.1 436.43 575.1 447.14 565.87 457.86 565.87 457.86 575.1"/><path class="cls-10" d="M448.66,570.32h0a.27.27,0,0,1-.39,0L445,567.13a.28.28,0,0,1,0-.38h0a.28.28,0,0,1,.4,0l3.23,3.18A.27.27,0,0,1,448.66,570.32Z"/><path class="cls-10" d="M446.64,571.45h0a.28.28,0,0,1-.4,0l-2.79-2.75a.27.27,0,0,1,0-.39h0a.27.27,0,0,1,.39,0l2.8,2.76A.28.28,0,0,1,446.64,571.45Z"/><path class="cls-10" d="M444.76,572.42h0a.29.29,0,0,1-.39,0L442,570.11a.27.27,0,0,1,0-.39h0a.28.28,0,0,1,.4,0l2.34,2.31A.27.27,0,0,1,444.76,572.42Z"/><rect class="cls-32" x="436.43" y="575.1" width="21.43" height="2.86"/><g id="arm"><path class="cls-26" d="M434.1,468.71l-5.53,6.38a.82.82,0,0,1-.57.26l-21.26.87a3.11,3.11,0,0,1-3.11-3.11v-.86a3.12,3.12,0,0,1,3.11-3.12h13.72a3.15,3.15,0,0,0,2.55-1.31l1.55-2.07,1.52-2.1Z"/></g><g id="HEAD"><rect class="cls-27" x="439.93" y="427.08" width="9.91" height="9.91"/><path class="cls-27" d="M433.65,412.15h15.13a1.06,1.06,0,0,1,1.06,1.06v13.43a1.06,1.06,0,0,1-1.06,1.06h-7a8.11,8.11,0,0,1-8.11-8.11v-7.44A0,0,0,0,1,433.65,412.15Z"/><path class="cls-30" d="M452.82,413.05l.29,7.76a1.49,1.49,0,0,1-.07.47l-1.62,5a1.3,1.3,0,0,1-2.06.61l-.62-.5a1.32,1.32,0,0,1-.49-1V420.2a1.31,1.31,0,0,0-.86-1.24l-1.62-.6a1.32,1.32,0,0,1-.86-1.15l-.2-2.93a1.31,1.31,0,0,0-1.3-1.23h-8.12a2.09,2.09,0,0,1-2-2.13v-2.75a5.91,5.91,0,0,1,5.78-6l7.78.62a1.32,1.32,0,0,1,1.06.7l4.95,9.58Z"/></g><path class="cls-2" d="M460.47,446.51l-2.39,39.65a1.9,1.9,0,0,1-1.86,1.83l-25.19.22a1.92,1.92,0,0,1-1.87-2l.77-37.95a2,2,0,0,1,.6-1.4l8.13-11.58a1.81,1.81,0,0,1,.79-.46l9.21-2.49a1.82,1.82,0,0,1,1.91.66l9.48,12.16A2,2,0,0,1,460.47,446.51Z"/><g id="arm-2" data-name="arm"><path class="cls-27" d="M439.93,472.48l-5.54,6.38a.78.78,0,0,1-.57.26l-21.25.88a3.11,3.11,0,0,1-3.12-3.12V476a3.12,3.12,0,0,1,3.12-3.12h13.71a3.1,3.1,0,0,0,2.55-1.32l1.55-2.06,1.53-2.11Z"/><path class="cls-33" d="M438.46,474.89h0a.28.28,0,0,0,.38-.06l19.33-23.42a.24.24,0,0,0-.06-.35h0a.3.3,0,0,0-.39.05L438.4,474.54A.23.23,0,0,0,438.46,474.89Z"/><path class="cls-33" d="M429.67,470.16h0a.29.29,0,0,0,.38-.06l10.89-14.19a.23.23,0,0,0-.07-.35h0a.3.3,0,0,0-.39.06L429.6,469.81A.23.23,0,0,0,429.67,470.16Z"/></g><polygon class="cls-34" points="391.93 568.29 397.55 568.26 399.79 480.43 393.33 480.26 391.93 568.29"/><line class="cls-34" x1="395.86" y1="568.29" x2="395.86" y2="480.96"/><polygon class="cls-35" points="382.13 577.66 374.61 577.96 386.87 479.64 393.05 480.41 382.13 577.66"/><line class="cls-35" x1="376.98" y1="577.6" x2="391.18" y2="480.26"/><polygon class="cls-36" points="412.23 577.51 419.75 577.81 407.49 479.49 400.12 480.41 412.23 577.51"/><line class="cls-36" x1="417.25" y1="576.74" x2="402.95" y2="479.73"/><polygon class="cls-37" points="415.25 457.67 403.39 438 383.83 457.53 389.53 466.84 415.25 457.67"/><polygon class="cls-38" points="385.27 472.34 365.33 478.26 365.33 457.67 385.27 466.19 385.27 472.34"/><rect class="cls-7" x="385.2" y="459.95" width="22.31" height="18.35"/><rect class="cls-10" x="388.07" y="462.35" width="16.58" height="12.51"/><rect class="cls-2" x="385.27" y="465.77" width="22.19" height="6.72"/><rect class="cls-10" x="382.34" y="478.27" width="28.05" height="2.92"/><rect class="cls-7" x="407.45" y="465.37" width="4.17" height="9.49"/><rect class="cls-10" x="407.45" y="465.37" width="1.48" height="9.49"/><rect class="cls-7" x="407.52" y="459.95" width="6.68" height="4.22"/><rect class="cls-10" x="407.52" y="459.95" width="1.63" height="4.22"/><circle class="cls-38" cx="384.71" cy="445.57" r="13.47"/><circle class="cls-2" cx="384.71" cy="445.57" r="3.71"/><circle class="cls-38" cx="409.32" cy="445.57" r="13.47"/><circle class="cls-2" cx="409.32" cy="445.57" r="3.71"/></g></svg>