<svg width="24" height="24" viewBox="0 0 24 24" fill="none" xmlns="http://www.w3.org/2000/svg">
<path d="M3.00003 11.5C2.99659 12.8199 3.30496 14.1219 3.90003 15.3C4.60559 16.7118 5.69027 17.8992 7.03257 18.7293C8.37487 19.5594 9.92178 19.9994 11.5 20C12.8199 20.0034 14.1219 19.6951 15.3 19.1L21 21L19.1 15.3C19.6951 14.1219 20.0034 12.8199 20 11.5C19.9994 9.92177 19.5594 8.37487 18.7293 7.03257C17.8992 5.69027 16.7118 4.60559 15.3 3.90003C14.1219 3.30496 12.8199 2.99659 11.5 3.00003H11C8.91567 3.11502 6.94698 3.99479 5.47088 5.47088C3.99479 6.94698 3.11502 8.91567 3.00003 11V11.5Z" stroke="#6D6D6D" stroke-width="2" stroke-linecap="round" stroke-linejoin="round"/>
<path d="M10.1992 12.9766V12.4727C10.1992 12.0898 10.2773 11.7676 10.4336 11.5059C10.5898 11.2402 10.8672 10.9824 11.2656 10.7324C11.582 10.5332 11.8086 10.3535 11.9453 10.1934C12.0859 10.0332 12.1562 9.84961 12.1562 9.64258C12.1562 9.47852 12.082 9.34961 11.9336 9.25586C11.7852 9.1582 11.5918 9.10938 11.3535 9.10938C10.7637 9.10938 10.0742 9.31836 9.28516 9.73633L8.4707 8.14258C9.44336 7.58789 10.459 7.31055 11.5176 7.31055C12.3887 7.31055 13.0723 7.50195 13.5684 7.88477C14.0645 8.26758 14.3125 8.78906 14.3125 9.44922C14.3125 9.92188 14.2012 10.332 13.9785 10.6797C13.7598 11.0234 13.4082 11.3496 12.9238 11.6582C12.5137 11.9238 12.2559 12.1191 12.1504 12.2441C12.0488 12.3652 11.998 12.5098 11.998 12.6777V12.9766H10.1992ZM9.94727 15.0273C9.94727 14.668 10.0508 14.3906 10.2578 14.1953C10.4688 14 10.7773 13.9023 11.1836 13.9023C11.5742 13.9023 11.873 14.002 12.0801 14.2012C12.291 14.3965 12.3965 14.6719 12.3965 15.0273C12.3965 15.3828 12.2871 15.6582 12.0684 15.8535C11.8535 16.0488 11.5586 16.1465 11.1836 16.1465C10.7969 16.1465 10.4941 16.0508 10.2754 15.8594C10.0566 15.6641 9.94727 15.3867 9.94727 15.0273Z" fill="#6D6D6D"/>
</svg>
